/* XPM */
static char *_0f49163a7f44f24b6a8e24d25433cf73CUm6bd53QyTeIk6[] = {
/* columns rows colors chars-per-pixel */
"60 49 72 1 ",
"  c None",
". c #DC7702",
"X c #E37B00",
"o c #039D03",
"O c #05A505",
"+ c #01AD01",
"@ c #03B303",
"# c #00BB00",
"$ c #15A115",
"% c #12A912",
"& c #21A821",
"* c #33AD32",
"= c #6E8402",
"- c #778A08",
"; c #00C300",
": c #00CC00",
"> c #42B242",
", c #4AB350",
"< c #58B75E",
"1 c #61BE61",
"2 c #6BC06C",
"3 c #72C276",
"4 c #DE8215",
"5 c #E98302",
"6 c #ED8700",
"7 c #E5840B",
"8 c #F18A00",
"9 c #F69001",
"0 c #F99403",
"q c #FD9600",
"w c #FF9900",
"e c #FD9E0E",
"r c #E48A1C",
"t c #FFA517",
"y c #D78327",
"u c #D78C3D",
"i c #EA9421",
"p c #ED9E2F",
"a c #E19135",
"s c #F7A121",
"d c #FEA821",
"f c #FEAD28",
"g c #FDAF30",
"h c #FEB63E",
"j c #CF8D48",
"k c #E49D49",
"l c #FFBE4B",
"z c #CA9663",
"x c #C99A6E",
"c c #E2A767",
"v c #FEC355",
"b c #FEC55A",
"n c #FFC85F",
"m c #FFCC64",
"M c #FFCD67",
"N c #C7A281",
"B c #C4A994",
"V c #E2B583",
"C c #E4BB91",
"Z c #C2B7B5",
"A c #84CA84",
"S c #94CF94",
"D c #9ED39E",
"F c #C1BFC7",
"G c #BFCADD",
"H c #BECEE6",
"J c #BFCFEB",
"K c #BFD0EE",
"L c #C0D0EC",
"P c #C1D1EC",
"I c #C4D2EC",
"U c #C8D5EC",
/* pixels */
"                     >   A D                                ",
"                  ,1%o2*&&&&                                ",
"                  &O##%oOO+&><                              ",
"                  3o+@@#;;:OoS       3*  Ao1                ",
"                   3%o#;;@:#+<       <$& >o$*O>   1         ",
"                    >&OO+O#%&o3      <o@@@;@;#+>,&$         ",
"                      <,<2<  *$      ,+;::::::;+@O$A        ",
"                             Ao3    ,+:::::::::::;oA        ",
"                              O1  >OO%#@#;:#;;+#:#o*        ",
"                              +< &O2  ,oOo@O@@&%#%*&        ",
"                              @>*$    G<A>OOO* 3OA          ",
"                              +oo     J    *,               ",
"                             2oo2                           ",
"                      aippiaV*o&                            ",
"                    u.snMMnh7=@3                            ",
"                  CappipnMMMh.-             JJJJJJJJLU      ",
"                 CkbMMmiivmmbeXk     L       IIJJJJJJJJJJL  ",
"                 pMMMMmvp.idtww87x   JJ         LJJJJJJJJL  ",
"                7hMMMMMmv8Xqwwwww5BKJ            LJJJJJJJJI ",
"               rtnMMMMmll9.qwwwww0jHJ             UIJJJJJJL ",
"              kemMMMMmveww9wwwwww0jHJU                 LJJI ",
"             VivMMMMMhe0wwwwwwwww8xKJL                   II ",
"             rlMMMMMMl8X6wwwwwwww4ZKJJU                     ",
"            u8dmMMMMMvtqX6wwwwww8zHJJJL                     ",
"           V.4XsnMMMvgww8.9wwww0yFKJJJI                     ",
"           albp.ibMMdwwww6.qwwq7BKJJJJ                      ",
"          cpMMMfXilbtwwwww5www5NJLJJJJ                      ",
"          rlMMMnp5wewwwwww60w6xH JJJJJ                      ",
"         ksmMMMMl0wwwwwwww686zG  JJJL                       ",
"         rnMMMlftwwqwwwwww9.zG   JJJ                        ",
"        ktMMMntwww95qwwwwq5xG   JJJ                         ",
"        7hMMlfwwwwwX8wwwq7N     JJ                          ",
"       k0vMvewwwwww98ww04B                                  ",
"       rlMnfwwwwwwwwww9y                                    ",
"      chMndqwwwwwwwww8j                                     ",
"      kMMv05qwwwwwwq7z                                      ",
"     VvMMgw96wwwww94                                        ",
"     ysggew9Xwwww6u                                         ",
"     XX8www0Xqwq7z                                          ",
"    afdX0wwwX89y                                            ",
"    pMhX5www6.j                                             ",
"   cvMg9.ww94N                                              ",
"   rfge0X06j                                                ",
"  V.X6wqX4N                                                 ",
"  kge.65j                                                   ",
"  kbe5y                                                     ",
" cgs7z                                                      ",
" y7j                                                        ",
" yN                                                         "
};
