/* XPM */
static char *_6737_3e620a1cf0907c61099a011f5f47ab487c7a406ae8f1f7e6161c889eeb33150d[] = {
/* columns rows colors chars-per-pixel */
"60 40 198 2 ",
"   c #2D2F2C",
".  c #2C312E",
"X  c #2D3532",
"o  c #2E3936",
"O  c #303936",
"+  c #313E3A",
"@  c #313431",
"#  c #35413D",
"$  c #2F4B46",
"%  c #364541",
"&  c #3A4A46",
"*  c #354F4C",
"=  c #3D4F4A",
"-  c #3F514C",
";  c #33504C",
":  c #3B5653",
">  c #3C5955",
",  c #395B59",
"<  c #3B6764",
"1  c #35696A",
"2  c #3D7571",
"3  c #377A76",
"4  c #33746D",
"5  c #444C49",
"6  c #40524D",
"7  c #425651",
"8  c #4C5652",
"9  c #455A56",
"0  c #4B5854",
"q  c #475D59",
"w  c #4B5F5B",
"e  c #555A57",
"r  c #4B615D",
"t  c #42615C",
"y  c #50615D",
"u  c #4E6461",
"i  c #416E6B",
"p  c #536662",
"a  c #536965",
"s  c #576D69",
"d  c #586D6A",
"f  c #5C716D",
"g  c #497A76",
"h  c #5F7571",
"j  c #627572",
"k  c #6A7E7A",
"l  c #657A77",
"z  c #39817E",
"x  c #47807B",
"c  c #6E827E",
"v  c #70827F",
"b  c #3A8583",
"n  c #3D8E93",
"m  c #3E989A",
"M  c #38A19B",
"N  c #3F9FA0",
"B  c #3CA5A3",
"V  c #3EA9A4",
"C  c #3FAAA9",
"Z  c #498A85",
"A  c #479596",
"S  c #539E9A",
"D  c #748582",
"F  c #7D8E8B",
"G  c #7A8A87",
"H  c #40A59D",
"J  c #68A39E",
"K  c #459FA4",
"L  c #42ADAA",
"P  c #4DA9AD",
"I  c #44A7A6",
"U  c #59ABA6",
"Y  c #44B3AD",
"T  c #48B7AE",
"R  c #5AB2AA",
"E  c #4FADB0",
"W  c #55ACB2",
"Q  c #4AB6B3",
"!  c #47BAB2",
"~  c #4BBCB5",
"^  c #4DBEB9",
"/  c #47B5B1",
"(  c #53B3B5",
")  c #51BAB4",
"_  c #54BDBB",
"`  c #5CBEBD",
"'  c #58B5B8",
"]  c #67ADAA",
"[  c #73AEAA",
"{  c #68BDB6",
"}  c #64BDBD",
"|  c #67BCB6",
" . c #4EC0B9",
".. c #52C3BD",
"X. c #5AC1BF",
"o. c #63C5BF",
"O. c #5CC4C1",
"+. c #57C9C1",
"@. c #5DCBC4",
"#. c #58CAC5",
"$. c #5CD4D0",
"%. c #63C6C4",
"&. c #65CAC5",
"*. c #6BCAC5",
"=. c #64CEC9",
"-. c #6DCBC9",
";. c #70CBC5",
":. c #78C8C7",
">. c #67D1CC",
",. c #7AD4CE",
"<. c #76D0CA",
"1. c #7AD5D0",
"2. c #7FDBD5",
"3. c #63D5D2",
"4. c #82908E",
"5. c #869592",
"6. c #8B9A98",
"7. c #899592",
"8. c #94A09E",
"9. c #9AA4A2",
"0. c #9CA8A6",
"q. c #94B3AD",
"w. c #A2ABA9",
"e. c #B0B0AD",
"r. c #A7B7B5",
"t. c #B2B9B7",
"y. c #BCBEBB",
"u. c #B5B9B7",
"i. c #A3C2BE",
"p. c #BEC0BE",
"a. c #88C9C9",
"s. c #85D1CF",
"d. c #8ED0CD",
"f. c #90D1CE",
"g. c #83D6D2",
"h. c #84DAD4",
"j. c #8DDCD6",
"k. c #8ADED9",
"l. c #88D8D5",
"z. c #9EDBD6",
"x. c #98DFDB",
"c. c #9CCBC6",
"v. c #BDC3C1",
"b. c #B1CBC7",
"n. c #A8DBD6",
"m. c #B2DFDB",
"M. c #AEC7C3",
"N. c #8DE0DB",
"B. c #95E3DD",
"V. c #A1E2DD",
"C. c #ABE2DE",
"Z. c #B7E0DB",
"A. c #9DE6E0",
"S. c #ACEAE5",
"D. c #A6E7E2",
"F. c #B4E7E2",
"G. c #B3EBE6",
"H. c #BBE9E5",
"J. c #B7EDE8",
"K. c #BCEDE9",
"L. c #BAE5E2",
"P. c #C4C7C3",
"I. c #CBCCC9",
"U. c #CDD3D1",
"Y. c #CDDAD8",
"T. c #D4D6D5",
"R. c #D7D8D7",
"E. c #C4E2DD",
"W. c #CBE3DE",
"Q. c #DCE1DF",
"!. c #D4E2DF",
"~. c #CDE6E1",
"^. c #C4EBE7",
"/. c #CDEAE6",
"(. c #C4EDEA",
"). c #CDEEEA",
"_. c #C3E5E2",
"`. c #D2E6E2",
"'. c #DBE4E1",
"]. c #D3E9E5",
"[. c #DBE9E6",
"{. c #D4EDEB",
"}. c #DBEDEA",
"|. c #DEF0ED",
" X c #E3E5E4",
".X c #E9E6E5",
"XX c #E4E9E7",
"oX c #EBE8E7",
"OX c #E3ECEB",
"+X c #ECECEB",
"@X c #F1EEEE",
"#X c #E4F0EF",
"$X c #ECF0EF",
"%X c #EFEFF0",
"&X c #F3EFF0",
"*X c #EDF0F0",
"=X c #F2F0F1",
"-X c None",
/* pixels */
"-X-X-X-X-X-X-X-X-X-X-X-X-X-X-X-X-X-X-X-X-X-X-X-X-X-X-X-X-X-X-X-X-X-X-X-X-X-X-X-X-X-X-X-X-X-X-X-X-X-X-X-X-X-X-X-X-X-X-X-X",
"-X-X-X-X-X-X-X-X-X-X-X-X-X-X-X-X-X-X-X-X-X-X-X-X-X-X-X-X-X-X-X-X-X-X-X-X-X-X-X-X-X-X-X-X-X-X-X-X-X-X-X-X-X-X-X-X-X-X-X-X",
"-X-X-X-X-X-X-X-X-X-X-X-X-X-X-X-X-X-X-X-X-X-Xp p p y w -X-X-X-X-X-X-X-X-X-X-X-X-X-X-X-X-X-X-X-X-X-X-X-X-X-X-X-X-X-X-X-X-X",
"-X-X-X-X-X-X-X-X-X-X-X-X-X-X-X-X-X-X-X-X-X-Xd s a p u r q 7 7 6 -X-X-X-X-X-X-X-X-X-X-X-X-X-X-X-X-X-X-X-X-X-X-X-X-X-X-X-X",
"-X-X-X-X-X-X-X-X-X-X-X-X-X-X-X-X-X-X-X-X-X-Xj f f d a w r q 7 6 -X-X-X-X-X-X-X-X-X-X-X-X-X-X-X-X-X-X-X-X-X-X-X-X-X-X-X-X",
"-X-X-X-X-X-X-X-X-X-X-X-X-X-X-X-X-X-X-X-Xk 4.P.v.y.u.e.w.0.6.7.D -X-X-X-X-X-X-X-X-X-X-X-X-X-X-X-X-X-X-X-X-X-X-X-X-X-X-X-X",
"-X-X-X-X-X-X-X-X-X-X-X-X-X-X-X-X-X-X-Xk v 6. XoXoXoX.X.X.XQ.R.w.7 6 -X-X-X-X-X-X-X-X-X-X-X-X-X-X-X-X-X-X-X-X-X-X-X-X-X-X",
"-X-X-X-X-X-X-X-X-X-X-X-X-X-X-X-X-X-X-X4.4.9..XoXoX.X.X.X.XQ.'.w.7 6 -X-X-X-X-X-X-X-X-X-X-X-X-X-X-X-X-X-X-X-X-X-X-X-X-X-X",
"-X-X-X-X-X-X-X-X-X-X-X-X-X-X-X-X-XF F p.T.Y.H.H.H.L._.'.'.Q.Q.r.Z x -X-X-X-X-X-X-X-X-X-X-X-X-X-X-X-X-X-X-X-X-X-X-X-X-X-X",
"-X-X-X-X-X-X-X-X-X-X-X-X-X-X-X-X-XF 6.U.&X|.S.D.D.A.D.~.~.!.'.n...) t = -X-X-X-X-X-X-X-X-X-X-X-X-X-X-X-X-X-X-X-X-X-X-X-X",
"-X-X-X-X-X-X-X-X-X-X-X-X-X-X-X-X-X8.9.T.$XOXG.S.D.D.F.~.~.'.'.n.@.) t & -X-X-X-X-X-X-X-X-X-X-X-X-X-X-X-X-X-X-X-X-X-X-X-X",
"-X-X-X-X-X-X-X-X-X-X-X-X-X-XG F w.'.Q./.(.(.).).).^./.[.[.`.Y.n.>.o.Z g i -X-X-X-X-X-X-X-X-X-X-X-X-X-X-X-X-X-X-X-X-X-X-X",
"-X-X-X-X-X-X-X-X-X-X-X-X-X-X4.5.e.+X=X).K.(.|.|.}.}.[.OX X`.W.n.h.,... .g % # -X-X-X-X-X-X-X-X-X-X-X-X-X-X-X-X-X-X-X-X-X",
"-X-X-X-X-X-X-X-X-X-X-X-X-X-X4.6.r.+X=X).K.(.|.|.}.}.}.XXXX~.W.C.h.,... .2 % # -X-X-X-X-X-X-X-X-X-X-X-X-X-X-X-X-X-X-X-X-X",
"-X-X-X-X-X-X-X-X-X-X-X-X-X-X5.6.t.%X*X).K.).$X$XOXOXOX+XXX'.!.m.h.1.=.O.g % # -X-X-X-X-X-X-X-X-X-X-X-X-X-X-X-X-X-X-X-X-X",
"-X-X-X-X-X-X-X-X-X-X-X-X-X-X5.6.t.%X=X{.(.{.=X*X+X+X+X+XoX X Xm.h.g.,.<.g % % -X-X-X-X-X-X-X-X-X-X-X-X-X-X-X-X-X-X-X-X-X",
"-X-X-X-X-X-X-X-X-X-X-X-X-X-X9.0.v.$X$X).(.{.%X%X#X$X$XoXoXXX Xm.h.2.1.<.g % # -X-X-X-X-X-X-X-X-X-X-X-X-X-X-X-X-X-X-X-X-X",
"-X-X-X-X-X-X-X-X-X-X-X-XD F U.oX{.(.(.#X%X|.).).(.K./.[.[.`.!.z.*.*.&.%.A 2 < -X-X-X-X-X-X-X-X-X-X-X-X-X-X-X-X-X-X-X-X-X",
"-X-X-X-X-X-X-X-X-X-X-X-XD F T.&X|.J.K.#X&X#XK.K.H.G.H.].`.`.W.f.O._  . .Y L b # O -X-X-X-X-X-X-X-X-X-X-X-X-X-X-X-X-X-X-X",
"-X-X-X-X-X-X-X-X-X-X-X-Xc G T.&X}.J.K.#X&X|.K.J.G.S.^.].`.~.W.d._ .. .^ P V b + O -X-X-X-X-X-X-X-X-X-X-X-X-X-X-X-X-X-X-X",
"-X-X-X-X-X-X-X-X-X-X-X-Xc G Y.&X{.G.J.OX%X{.G.J.)././.].~.~.~.a.' ' +.^ C C z + O -X-X-X-X-X-X-X-X-X-X-X-X-X-X-X-X-X-X-X",
"-X-X-X-X-X-X-X-X-X-X-X-Xk G T.+X{.S.G.OX$X{.G.H.{.].].].~.~.W.a.W ( ^ ^ Y C z + o -X-X-X-X-X-X-X-X-X-X-X-X-X-X-X-X-X-X-X",
"-X-X-X-X-X-X-X-X-X-X-X-Xj D R.+X{.G.H.}.OX/.G.G.].].].~.~.W.Y.a.W ( ^ ~ C C z + o -X-X-X-X-X-X-X-X-X-X-X-X-X-X-X-X-X-X-X",
"-X-X-X-X-X-X-X-X-X-X-X-Xh D T.+X+XOX[.C.V.F././.].].`.~.E.z.z.:.W E Q / C B 3 o O -X-X-X-X-X-X-X-X-X-X-X-X-X-X-X-X-X-X-X",
"-X-X-X-X-X-X-X-X-X-X-X-Xh k T.oXoXoXoXx.k.D.[.].].`.~.~.E.j.l.} W P Y L I B 3 o O -X-X-X-X-X-X-X-X-X-X-X-X-X-X-X-X-X-X-X",
"-X-X-X-X-X-X-X-X-X-X-X-Xd k T.oXOXOX[.j.l.C.~./.~.~.W._.m.j.h.} P P L L I M 3 o X -X-X-X-X-X-X-X-X-X-X-X-X-X-X-X-X-X-X-X",
"-X-X-X-X-X-X-X-X-X-X-X-Xa l U. X_.V.A.B.A.l.d.s.s.s.,.a.:.%.%._ ~ Q T Y B m 4 X . -X-X-X-X-X-X-X-X-X-X-X-X-X-X-X-X-X-X-X",
"-X-X-X-X-X-X-X-X-X-X-X-Xp j U.XXL.B.A.N.A.g.-.-.-.%.%.` X._ ^ _ ..! ! Y A n 1 X X -X-X-X-X-X-X-X-X-X-X-X-X-X-X-X-X-X-X-X",
"-X-X-X-X-X-X-X-X-X-X-X-Xw j v.U.n.j.N.k.k.1.*.%.%.%.X._ ` _ Q ^ ~ ! ! Y m n < X . -X-X-X-X-X-X-X-X-X-X-X-X-X-X-X-X-X-X-X",
"-X-X-X-X-X-X-X-X-X-X-X-X-X-Xf h [ j.l.-.-.=.=.=.=.%.@.+.+._ ^ Q Y Y ! V 1 , * -X-X-X-X-X-X-X-X-X-X-X-X-X-X-X-X-X-X-X-X-X",
"-X-X-X-X-X-X-X-X-X-X-X-X-X-Xq r ] l.2.O.O.@.@.=.@.@.+.+.+. .^ / L C Y B ; X @ -X-X-X-X-X-X-X-X-X-X-X-X-X-X-X-X-X-X-X-X-X",
"-X-X-X-X-X-X-X-X-X-X-X-X-X-Xq q J 2.1.O.` #.@.#.#.+.+.+. .^ ~ Y V I Y B $ X -X-X-X-X-X-X-X-X-X-X-X-X-X-X-X-X-X-X-X-X-X-X",
"-X-X-X-X-X-X-X-X-X-X-X-X-X-X7 9 S 3.=._ _ +.+.+.+.+. . . .! ! L M R M.q.6 . -X-X-X-X-X-X-X-X-X-X-X-X-X-X-X-X-X-X-X-X-X-X",
"-X-X-X-X-X-X-X-X-X-X-X-X-X-X- 7 S $.#.^ ~ ^ +. .^  .^ ^  .! T L M [ P.u.5 . -X-X-X-X-X-X-X-X-X-X-X-X-X-X-X-X-X-X-X-X-X-X",
"-X-X-X-X-X-X-X-X-X-X-X-X-X-X= - A ` _ / Q ^ +._ ..^ ^ ^ ) T T M m ] y.e.5 . -X-X-X-X-X-X-X-X-X-X-X-X-X-X-X-X-X-X-X-X-X-X",
"-X-X-X-X-X-X-X-X-X-X-X-X-X-X-X-X> > 2 K K } -.*.*.*.c.b.b.b.i.R M Z e e -X-X-X-X-X-X-X-X-X-X-X-X-X-X-X-X-X-X-X-X-X-X-X-X",
"-X-X-X-X-X-X-X-X-X-X-X-X-X-X-X-X& & , A K } ;.;.*.o.b.I.I.I.P.R V z . . -X-X-X-X-X-X-X-X-X-X-X-X-X-X-X-X-X-X-X-X-X-X-X-X",
"-X-X-X-X-X-X-X-X-X-X-X-X-X-X-X-X% % , A n R { { { { i.p.p.p.t.U M 4 X X -X-X-X-X-X-X-X-X-X-X-X-X-X-X-X-X-X-X-X-X-X-X-X-X",
"-X-X-X-X-X-X-X-X-X-X-X-X-X-X-X-X-X-X-X* * : > : 7 : 0 0 8 8 8 ; $ # -X-X-X-X-X-X-X-X-X-X-X-X-X-X-X-X-X-X-X-X-X-X-X-X-X-X",
"-X-X-X-X-X-X-X-X-X-X-X-X-X-X-X-X-X-X-X+ % + + + # O o o X X X . . . -X-X-X-X-X-X-X-X-X-X-X-X-X-X-X-X-X-X-X-X-X-X-X-X-X-X"
};
