/* XPM */
static char *_2200_7b8fc6a1bdd9d66d8cc96006c17b914c599b7981bf87a9593f0182104042d74f[] = {
/* columns rows colors chars-per-pixel */
"40 40 182 2 ",
"   c #2B2F2C",
".  c #2B312E",
"X  c #2D3532",
"o  c #2E3A36",
"O  c #2F3B38",
"+  c #303E3A",
"@  c #34413D",
"#  c #2F4642",
"$  c #384844",
"%  c #334D4A",
"&  c #3D4E49",
"*  c #344844",
"=  c #3F514C",
"-  c #3C5853",
";  c #3F5D58",
":  c #375352",
">  c #31625D",
",  c #3E615D",
"<  c #366867",
"1  c #3B6A66",
"2  c #3D6D6D",
"3  c #366F72",
"4  c #377577",
"5  c #424845",
"6  c #43544F",
"7  c #425551",
"8  c #4D5754",
"9  c #455955",
"0  c #4A5F5B",
"q  c #475C58",
"w  c #555855",
"e  c #4E625E",
"r  c #436A65",
"t  c #486B67",
"y  c #4A6E69",
"u  c #496561",
"i  c #526662",
"p  c #546A66",
"a  c #5C6E6A",
"s  c #566D69",
"d  c #5C726E",
"f  c #53726E",
"g  c #437E7A",
"h  c #487A75",
"j  c #617672",
"k  c #687C78",
"l  c #37827F",
"z  c #6E817E",
"x  c #65827E",
"c  c #388583",
"v  c #3A8986",
"b  c #3A8C8A",
"n  c #3E979A",
"m  c #3DA49D",
"M  c #3E9FA0",
"N  c #3CA6A4",
"B  c #3EA8A7",
"V  c #468C88",
"C  c #479A98",
"Z  c #728481",
"A  c #7C8B88",
"S  c #639893",
"D  c #41A59C",
"F  c #41ABA3",
"G  c #41ADAA",
"H  c #4AACAE",
"J  c #47A3A7",
"K  c #44B2AD",
"L  c #5CB3AE",
"P  c #56AEB3",
"I  c #46B5B0",
"U  c #4BB3B2",
"Y  c #4BBCB6",
"T  c #4EBEB9",
"R  c #47BAB3",
"E  c #52B6B4",
"W  c #52BCBA",
"Q  c #56B6B5",
"!  c #65B8B8",
"~  c #75B5B1",
"^  c #4EC0BA",
"/  c #52C3BD",
"(  c #59C0BE",
")  c #63C2BE",
"_  c #56C7C0",
"`  c #5CC4C1",
"'  c #56C8C3",
"]  c #5CCBC4",
"[  c #5DCBC8",
"{  c #64C5C3",
"}  c #63C9C6",
"|  c #6BCAC5",
" . c #65CEC9",
".. c #6CCCC8",
"X. c #73CDC6",
"o. c #7BCECB",
"O. c #78CEC8",
"+. c #6ED0CB",
"@. c #76D2CE",
"#. c #7BD3CE",
"$. c #7ED6D2",
"%. c #808F8C",
"&. c #84928E",
"*. c #8A9896",
"=. c #939F9C",
"-. c #94A19F",
";. c #9AA5A3",
":. c #95A2A0",
">. c #86B2AF",
",. c #95B2AD",
"<. c #8DBBB7",
"1. c #96BAB5",
"2. c #A3ADAB",
"3. c #A7B1AF",
"4. c #B1B0AD",
"5. c #ABB4B3",
"6. c #AEB9B6",
"7. c #B6BCBA",
"8. c #BCBBB7",
"9. c #A3C1BC",
"0. c #BAC0BE",
"q. c #81CFCB",
"w. c #8DCAC5",
"e. c #9CCCC7",
"r. c #85D2CE",
"t. c #8EDAD5",
"y. c #8BDED9",
"u. c #87D2D0",
"i. c #91DCD6",
"p. c #97DCD7",
"a. c #BDC2C1",
"s. c #B1C9C5",
"d. c #B8DAD7",
"f. c #BBDEDA",
"g. c #B6D9D6",
"h. c #94E3DD",
"j. c #9DE3DE",
"k. c #A8E2DD",
"l. c #B3E3DF",
"z. c #A0E7E1",
"x. c #AAE6E1",
"c. c #ABE9E4",
"v. c #A6E9E3",
"b. c #BBE6E2",
"n. c #B4EBE6",
"m. c #BAEAE5",
"M. c #BCECE9",
"N. c #CCCCCA",
"B. c #CDD3D1",
"V. c #CED8D6",
"C. c #CCDFDC",
"Z. c #C5D5D3",
"A. c #D0DFDD",
"S. c #DCDDDD",
"D. c #D2D3D2",
"F. c #C4E2DD",
"G. c #CBE3DF",
"H. c #DFDFE0",
"J. c #C3E6E2",
"K. c #CDE6E2",
"L. c #CCEBE6",
"P. c #C4EDE9",
"I. c #CBEEEA",
"U. c #C1EBE7",
"Y. c #D4E5E2",
"T. c #DBE5E3",
"R. c #D2E9E5",
"E. c #DBE9E6",
"W. c #D3EEEC",
"Q. c #DBEEEB",
"!. c #DDF0EE",
"~. c #E3E4E3",
"^. c #EAE5E4",
"/. c #E4E9E7",
"(. c #EAE8E7",
"). c #E4EBEA",
"_. c #EBECEB",
"`. c #EDF0EF",
"'. c #E6F1F0",
"]. c #EAF1F0",
"[. c #F1F0F1",
"{. c None",
/* pixels */
"{.{.{.{.{.{.{.{.{.{.{.{.{.{.{.{.{.{.{.{.{.{.{.{.{.{.{.{.{.{.{.{.{.{.{.{.{.{.{.{.",
"{.{.{.{.{.{.{.{.{.{.{.{.{.{.{.{.{.{.{.{.{.{.{.{.{.{.{.{.{.{.{.{.{.{.{.{.{.{.{.{.",
"{.{.{.{.{.{.{.{.{.{.{.{.{.{.{.p i e {.{.{.{.{.{.{.{.{.{.{.{.{.{.{.{.{.{.{.{.{.{.",
"{.{.{.{.{.{.{.{.{.{.{.{.{.{.{.s i i 0 9 6 {.{.{.{.{.{.{.{.{.{.{.{.{.{.{.{.{.{.{.",
"{.{.{.{.{.{.{.{.{.{.{.{.{.{.{.d d p e 8 6 {.{.{.{.{.{.{.{.{.{.{.{.{.{.{.{.{.{.{.",
"{.{.{.{.{.{.{.{.{.{.{.{.{.k -.N.7.5.2.=.&.{.{.{.{.{.{.{.{.{.{.{.{.{.{.{.{.{.{.{.",
"{.{.{.{.{.{.{.{.{.{.{.{.{.z 3._.(.(.^.H.B.a & {.{.{.{.{.{.{.{.{.{.{.{.{.{.{.{.{.",
"{.{.{.{.{.{.{.{.{.{.{.{.{.A 6.(.(.(.^.H.B.d & {.{.{.{.{.{.{.{.{.{.{.{.{.{.{.{.{.",
"{.{.{.{.{.{.{.{.{.{.{.A -.D.F.m.m.U.Y.H.V.S h {.{.{.{.{.{.{.{.{.{.{.{.{.{.{.{.{.",
"{.{.{.{.{.{.{.{.{.{.{.A ;.(.W.v.k.k.G.Y.A...C & {.{.{.{.{.{.{.{.{.{.{.{.{.{.{.{.",
"{.{.{.{.{.{.{.{.{.{.{.=.5.(.W.c.v.c.G.T.A.X.D & {.{.{.{.{.{.{.{.{.{.{.{.{.{.{.{.",
"{.{.{.{.{.{.{.{.{.{.*.B.T.P.I.I.L.L.E.Y.F.#.L g , {.{.{.{.{.{.{.{.{.{.{.{.{.{.{.",
"{.{.{.{.{.{.{.{.{.{.*.S.'.M.I.!.Q.E./.Y.F.t.+.^ 1 @ {.{.{.{.{.{.{.{.{.{.{.{.{.{.",
"{.{.{.{.{.{.{.{.{.{.=.S.].M.W.!.Q.Q./.Y.F.t.+.^ r @ {.{.{.{.{.{.{.{.{.{.{.{.{.{.",
"{.{.{.{.{.{.{.{.{.{.-.S.].P.!.]._._._.E.G.i.@.) r * {.{.{.{.{.{.{.{.{.{.{.{.{.{.",
"{.{.{.{.{.{.{.{.{.{.:.H.'.P.!.].'.(.(./.Y.i.$.X.y @ {.{.{.{.{.{.{.{.{.{.{.{.{.{.",
"{.{.{.{.{.{.{.{.{.-.3.T.'.P.!.[._._._./.Y.i.r.O.y @ {.{.{.{.{.{.{.{.{.{.{.{.{.{.",
"{.{.{.{.{.{.{.{.Z 7./.P.I.'.!.I.P.P.E.Y.F.o. .) V < {.{.{.{.{.{.{.{.{.{.{.{.{.{.",
"{.{.{.{.{.{.{.{.Z a.].P.I.[.W.M.n.m.R.R.f.{ / ^ K b @ {.{.{.{.{.{.{.{.{.{.{.{.{.",
"{.{.{.{.{.{.{.{.Z 0.[.P.P.[.W.m.n.m.R.K.f.{ W ^ K b @ {.{.{.{.{.{.{.{.{.{.{.{.{.",
"{.{.{.{.{.{.{.{.z 0.].m.P.].I.m.L.L.R.G.l.! W T K b @ {.{.{.{.{.{.{.{.{.{.{.{.{.",
"{.{.{.{.{.{.{.{.k 0.].n.M._.I.n.R.R.R.G.d.! E T G v + {.{.{.{.{.{.{.{.{.{.{.{.{.",
"{.{.{.{.{.{.{.{.k 7._.M.M./.P.n.R.R.K.G.d.! E T B b + {.{.{.{.{.{.{.{.{.{.{.{.{.",
"{.{.{.{.{.{.{.{.j 7._.(.R.k.b.K.R.R.K.l.e.Q H I B v + {.{.{.{.{.{.{.{.{.{.{.{.{.",
"{.{.{.{.{.{.{.{.d 7._._.R.y.b.R.Y.Y.C.j.#.P H G B c O {.{.{.{.{.{.{.{.{.{.{.{.{.",
"{.{.{.{.{.{.{.{.s 7.(.).J.y.b.K.J.G.G.p.o.P H G N l O {.{.{.{.{.{.{.{.{.{.{.{.{.",
"{.{.{.{.{.{.{.{.p 6.E.k.j.h.t.u.r.q.q.| { W I K N 4 o {.{.{.{.{.{.{.{.{.{.{.{.{.",
"{.{.{.{.{.{.{.{.i 6.T.j.h.h.$.| ..{ ` W Y ^ T I n 3 o {.{.{.{.{.{.{.{.{.{.{.{.{.",
"{.{.{.{.{.{.{.{.i 2.Z.i.y.y.@.} { ` ( W Y Y R K n 3 X {.{.{.{.{.{.{.{.{.{.{.{.{.",
"{.{.{.{.{.{.{.{.{.s x r.$.|  . .} [ ` / T I K F < : {.{.{.{.{.{.{.{.{.{.{.{.{.{.",
"{.{.{.{.{.{.{.{.{.e f o.@.` }  .] ' ' / Y G G m % . {.{.{.{.{.{.{.{.{.{.{.{.{.{.",
"{.{.{.{.{.{.{.{.{.9 s o.@./ ' ] ' ' / ^ R F G D % X {.{.{.{.{.{.{.{.{.{.{.{.{.{.",
"{.{.{.{.{.{.{.{.{.9 t { [ W _ ' / / ^ ^ K m ~ ,.@ X {.{.{.{.{.{.{.{.{.{.{.{.{.{.",
"{.{.{.{.{.{.{.{.{.& r ' ' T W ^ / ^ ^ ^ B m 1.8.5 X {.{.{.{.{.{.{.{.{.{.{.{.{.{.",
"{.{.{.{.{.{.{.{.{.& u E W U T / / ^ ^ Y R m >.4.5 . {.{.{.{.{.{.{.{.{.{.{.{.{.{.",
"{.{.{.{.{.{.{.{.{.{.{.; g J ) ..) w.0.0.<.B l w {.{.{.{.{.{.{.{.{.{.{.{.{.{.{.{.",
"{.{.{.{.{.{.{.{.{.{.{.$ 2 J ! ..) e.N.N.9.F >   {.{.{.{.{.{.{.{.{.{.{.{.{.{.{.{.",
"{.{.{.{.{.{.{.{.{.{.{.$ 2 n L ! ) 1.a.a.,.m >   {.{.{.{.{.{.{.{.{.{.{.{.{.{.{.{.",
"{.{.{.{.{.{.{.{.{.{.{.{.& % - - - 9 8 8 6 % # {.{.{.{.{.{.{.{.{.{.{.{.{.{.{.{.{.",
"{.{.{.{.{.{.{.{.{.{.{.{.{.@ @ + O O o X X . {.{.{.{.{.{.{.{.{.{.{.{.{.{.{.{.{.{."
};
