/* XPM */
static char *aaeb1a2c4b71425dd003fe3b3ed0bbd5miSWsLAOa5UY3p5Q[] = {
/* columns rows colors chars-per-pixel */
"60 60 206 2 ",
"   c None",
".  c #2C312E",
"X  c #2D3532",
"o  c #2F3936",
"O  c #2F3C38",
"+  c #303936",
"@  c #313E3A",
"#  c #313532",
"$  c #2C2F2C",
"%  c #33413D",
"&  c #354541",
"*  c #3B4B46",
"=  c #3D4E4A",
"-  c #344A46",
";  c #34504D",
":  c #3F524D",
">  c #3D5B57",
",  c #3C5D5B",
"<  c #385754",
"1  c #2F544F",
"2  c #376768",
"3  c #34726E",
"4  c #367975",
"5  c #397975",
"6  c #454B48",
"7  c #42534E",
"8  c #425651",
"9  c #455955",
"0  c #4A5E5A",
"q  c #475C58",
"w  c #545D59",
"e  c #42625D",
"r  c #4C615D",
"t  c #4E6460",
"y  c #446863",
"u  c #536965",
"i  c #566D69",
"p  c #596F6B",
"a  c #516763",
"s  c #5C726E",
"d  c #4E7B76",
"f  c #457C77",
"g  c #54736E",
"h  c #617672",
"j  c #657A76",
"k  c #6A7D7A",
"l  c #677B78",
"z  c #38817E",
"x  c #6E827E",
"c  c #72807C",
"v  c #3A8582",
"b  c #398388",
"n  c #3D8E93",
"m  c #3E9A9C",
"M  c #3A989A",
"N  c #3CA49D",
"B  c #37A49B",
"V  c #3CA5A4",
"C  c #3DA9A4",
"Z  c #3FAAA9",
"A  c #478F8A",
"S  c #4D9E99",
"D  c #44979A",
"F  c #549F9B",
"G  c #738582",
"H  c #7C8D8A",
"J  c #778985",
"K  c #7E908D",
"L  c #6BA49F",
"P  c #63A19D",
"I  c #459DA2",
"U  c #42ACAA",
"Y  c #49A8A9",
"T  c #58ACAA",
"R  c #43B3AC",
"E  c #4AB5AD",
"W  c #5DB2AA",
"Q  c #54ADB2",
"!  c #58AFB5",
"~  c #46B4B0",
"^  c #4AB6B4",
"/  c #46B9B1",
"(  c #4BBCB5",
")  c #4DBEB9",
"_  c #51B9B2",
"`  c #54BDBB",
"'  c #5ABEBC",
"]  c #53B1B4",
"[  c #4EACB0",
"{  c #6BBCB5",
"}  c #64BDBC",
"|  c #67BEB7",
" . c #70B3AF",
".. c #4EC1BA",
"X. c #52C3BD",
"o. c #5AC3BE",
"O. c #72C2BD",
"+. c #68BEC0",
"@. c #56C7C0",
"#. c #5DC4C1",
"$. c #57C9C3",
"%. c #5CCAC4",
"&. c #5ACDCA",
"*. c #5BD2CE",
"=. c #5DD4D0",
"-. c #63C6C4",
";. c #63CAC6",
":. c #6DC9C4",
">. c #63CDC8",
",. c #6ECAC9",
"<. c #6BC4C4",
"1. c #71CCC6",
"2. c #73CEC9",
"3. c #63D0CC",
"4. c #75D1CC",
"5. c #7AD4CE",
"6. c #7DD6D1",
"7. c #7EDAD5",
"8. c #64D6D2",
"9. c #808C88",
"0. c #82918E",
"q. c #859492",
"w. c #8A9996",
"e. c #8E9C9A",
"r. c #889492",
"t. c #989995",
"y. c #93A19E",
"u. c #A0A29F",
"i. c #9BA6A3",
"p. c #8DB7B2",
"a. c #A2ADAA",
"s. c #ADB5B4",
"d. c #A8B6B4",
"f. c #B9BFBD",
"g. c #B5B8B6",
"h. c #A6B0AF",
"j. c #91C2BE",
"k. c #BEC0BE",
"l. c #A6C1BD",
"z. c #87C9C8",
"x. c #8CD0CE",
"c. c #91D1CE",
"v. c #81D7D2",
"b. c #8CD3D1",
"n. c #84DAD4",
"m. c #8BDED9",
"M. c #8BDCD6",
"N. c #93DED9",
"B. c #98D9D6",
"V. c #AFCCC8",
"C. c #BFC7C3",
"Z. c #A5D5D2",
"A. c #ABDFD9",
"S. c #A6DAD5",
"D. c #B2DFDB",
"F. c #8EE1DB",
"G. c #93E2DD",
"H. c #99E2DD",
"J. c #ACE3DE",
"K. c #A1E3DE",
"L. c #B4E1DC",
"P. c #BDE1DD",
"I. c #9DE6E1",
"U. c #A2E6E1",
"Y. c #ADE6E1",
"T. c #A5E8E2",
"R. c #ACE9E4",
"E. c #B4EBE6",
"W. c #BDEAE5",
"Q. c #B7EDE8",
"!. c #BBEDE9",
"~. c #B7E5E0",
"^. c #C4C5C3",
"/. c #C7C9C6",
"(. c #CBCDCB",
"). c #C7CAC7",
"_. c #CBD4D2",
"`. c #D4D6D5",
"'. c #D8DBDA",
"]. c #C1E2DE",
"[. c #CBE3DE",
"{. c #DCE1DF",
"}. c #CEE6E1",
"|. c #C3E9E5",
" X c #CAEAE6",
".X c #C2EEEA",
"XX c #CCEDEB",
"oX c #C4E6E3",
"OX c #D1E6E2",
"+X c #DCE4E2",
"@X c #D3E9E5",
"#X c #D4EDEB",
"$X c #DBEDEB",
"%X c #DBE9E7",
"&X c #DDF0EC",
"*X c #E3E5E4",
"=X c #E9E5E5",
"-X c #E3E9E7",
";X c #EBE8E7",
":X c #E3ECEB",
">X c #ECECEB",
",X c #F1EEEE",
"<X c #E4F0EF",
"1X c #EBF0EF",
"2X c #F1EFF0",
"3X c #F2F0F1",
/* pixels */
"                                                                                                                        ",
"                                                                                                                        ",
"                                                                                                                        ",
"                                                                                                                        ",
"                                            i u t t t q q 8 7 =                                                         ",
"                                            i i i u t 0 0 9 7 7                                                         ",
"                                            s s p i u t r q 8 8                                                         ",
"                                            H G k l h i u r 9 8                                                         ",
"                                      k l r.'.'.'.`.(.^.k.g.a.r.7                                                       ",
"                                      x G w.*X;X;X=X=X=X=X{.'.a.7 :                                                     ",
"                                      G G e.=X;X;X;X=X=X=X{.'.a.9 7                                                     ",
"                                      H H i.=X;X;X;X;X=X=X{.{.a.9 7                                                     ",
"                                  J 9.f.`._.W.|.|.|.}.+X'.'.+Xh.y y                                                     ",
"                                  0.q.(.3X$XR.U.I.I.Y.}.OX+X+XZ.o.E e *                                                 ",
"                                  q.w._.2X:XR.R.T.U.Y.}.[.+X'.S.$.^ e =                                                 ",
"                                  q.e.`.2X:XR.R.T.U.Y.}.}.+X{.S.%._ e =                                                 ",
"                              9.i.f.f.'.<X#X!.!.E.R.~.@XOX+X+XS.%._ e :                                                 ",
"                            H K a.>X2X.XQ.!.$X#X#X#X#X-X+XOX[.S.4.:.S A 3                                               ",
"                            H q.h.>X2XXXQ..X&X#X%X#X+X-X*XOX[.A.n.5.X...f % %                                           ",
"                            0.q.d.1X2XXX!..X&X&X$X#X$X-X+XOX[.A.n.5.X.( f % %                                           ",
"                            r.w.s.2X3XXX!.XX<X&X#X#X%X:X-X}.[.A.n.5.o...f & %                                           ",
"                            r.w.g.>X3XXX!.XX1X<X1X:X:X;X-X%XOXA.n.5.;.X.f & &                                           ",
"                            q.e.g.1X2XXX.X#X3X3X>X>X>X>X;X*X*XD.n.v.5.2.d % %                                           ",
"                            q.e.g.1X2X#X.X#X3X3X>X<X>X>X;X*X*XD.n.v.5.4.d & &                                           ",
"                            w.e.C.3X3XXX.X#X3X3X1X>X>X>X>X*X+XL.n.v.5.4.d & &                                           ",
"                        c 9.f.(._.#X<X#X#X&X<X:X<X$X:X>X-X*X{.L.n.6.5.2.d & &                                           ",
"                        G K `.3X&XQ.!.1X3X<X.X!.Q.E.|.@X@X@X[.B.-.#.%.o.S v 5 @                                         ",
"                        G H `.1X#XQ.!.<X3X<X.X!.E.E.|.@X@X[.[.c.' ` X.) ~ Z v % +                                       ",
"                        G H `.2X$XQ.!.<X3X<X!.!.E.E.|.@X[.[.[.c.' ` X.) R Z v % +                                       ",
"                        x K `.2X$XQ.!.<X3X&XQ.Q.E.R.W.@X@X[.[.c.' ` X.) R C v @ +                                       ",
"                        k H `.2X$XQ.Q.<X1X$X!.E. X X X@X@X[.[.c.` ` X.) R Z z % +                                       ",
"                        k J `.2X#XR.Q.&X1X#XE.E.@X$X%X@XOX[.[.z.! ] ..) U Z z % +                                       ",
"                        l J `.>X#XR.E.$X>X#XE.E.#X#X@XOX}.[.[.z.Q Q X.( U Z z @ o                                       ",
"                        j J `.,X#XR.E.$X>X#XR.E.@X@X@XOX[.[.[.z.Q Q X.( U Z 4 @ o                                       ",
"                        h G `.,X-X X XoXoX XW.W.@X@X@X}.oX]._.z.Q Q ( ( U V 5 + o                                       ",
"                        h G `.>X;X,X>XK.N.Y.#X@X@X@XOX}.oXN.m.+.Q [ ~ R U V z o o                                       ",
"                        s x `.>X>X>X;XH.m.J.#X@X@XOX}.}.P.m.n.+.[ [ ~ U U V 4 o o                                       ",
"                        i x `.=X;X>X-XH.m.J.@X@X@XOX}.}.].M.n.+.Q Y U U V V 4 o o                                       ",
"                        i k `.;X-X-X%XN.n.J.@XOX}.oX[.}.D.M.n.} Y Y Y U V V 3 o X                                       ",
"                        u j _.=XoXK.K.H.H.M.b.b.b.b.x.z.z.,.-.' ] ^ ~ R V M 3 o X                                       ",
"                        a j _.*X~.G.G.H.H.n.2.,.,.,.-.-.#.' _ ....( / R m n 2 X X                                       ",
"                        t h _.+X~.F.G.G.I.v.,.,.;.<.-.#.' X._ ....../ R m n 2 X X                                       ",
"                        r h _.*XL.F.F.G.m.6.;.;.-.-.#.' ` ` _ ..../ / R M n 2 . .                                       ",
"                            w.y.j.m.m.6.6.4.,.;.-.-.#.@.` ` / ..( / / U n b 2 X .                                       ",
"                            r t L F.n.;.-.>.3.3.>.>.%.%.X.X...R R U R N , & %                                           ",
"                            r r L m.7.-.#.%.>.>.&.%.%.@.........U U R C ; X X                                           ",
"                            r q P n.6.#.#.#.%.%.%.%.@.@.........U C R N ; X #                                           ",
"                            q q P 7.6.#.` @.%.%.$.$.X.X.......Z N U R N ; X                                             ",
"                            8 9 F 8.3.` ` ` $.$...X.X......./ C C W d.p.* X                                             ",
"                            8 8 F =.&.` ) @.@.@...............C N  .^.g.6 .                                             ",
"                            : : S *.&.( ^ ) @...........Z ..R C N  .^.g.6 .                                             ",
"                            : : S *.$.^ ^ ) ..) ..........C C C M  .^.s.6 .                                             ",
"                                z A D U ~ ` #.#.X.o.O.O.O.O.O.U N P u.t.6 $                                             ",
"                                6 * q I I +.4.2.1.4.V._././.k.W C 5 @ +                                                 ",
"                                * * , D I | :.:.>.O.V.(././.k.W C 4 X .                                                 ",
"                                * & , D I ' 1.:.O.O.V.(././.k.W B 4 X .                                                 ",
"                                % * > n M W { { } | l.^.C.k.f.T B 3 . .                                                 ",
"                                      ; ; < > > > > 0 w w w w ; 1 1                                                     ",
"                                      % % % % % % + + O O X X X . .                                                     ",
"                                      % @ % % @ % @ @ o X X X . . .                                                     "
};
