/* XPM */
static char *_5789b7a6efd4c99abeae3a43c189513TaLfkgNdx4kdnQe6[] = {
/* columns rows colors chars-per-pixel */
"60 60 102 2 ",
"   c #573C27",
".  c #583C27",
"X  c #593D28",
"o  c #5E412B",
"O  c #62442D",
"+  c #674831",
"@  c #6A4A31",
"#  c #6C4F39",
"$  c #704F35",
"%  c #735136",
"&  c #775439",
"*  c #79563A",
"=  c #7D593C",
"-  c #755B45",
";  c #7C5F46",
":  c #7B604A",
">  c #6F665F",
",  c #726153",
"<  c #7C6452",
"1  c #7F6855",
"2  c #70665F",
"3  c #7C6758",
"4  c #7E6C5C",
"5  c #6E6862",
"6  c #6C6C6B",
"7  c #766C64",
"8  c #815C3E",
"9  c #855F40",
"0  c #876142",
"q  c #896243",
"w  c #856348",
"e  c #8A674A",
"r  c #906747",
"t  c #916847",
"y  c #966C4A",
"u  c #996D4B",
"i  c #9E714E",
"p  c #826954",
"a  c #836C5A",
"s  c #826C5B",
"d  c #816D5D",
"f  c #936E50",
"g  c #8F725B",
"h  c #977052",
"j  c #997355",
"k  c #937358",
"l  c #92745B",
"z  c #A1734F",
"x  c #A17451",
"c  c #A37551",
"v  c #A67753",
"b  c #A77853",
"n  c #A87853",
"m  c #A87A53",
"M  c #A97A53",
"N  c #A97954",
"B  c #A87955",
"V  c #AA7A54",
"C  c #AB7B55",
"Z  c #B07E57",
"A  c #B07F58",
"S  c #B17F58",
"D  c #B17F59",
"F  c #816F61",
"G  c #8E7663",
"H  c #8F7967",
"J  c #8F7A69",
"K  c #927965",
"L  c #907966",
"P  c #857D77",
"I  c #857E78",
"U  c #B18059",
"Y  c #B28059",
"T  c #B4825A",
"R  c #B5835B",
"E  c #B6835B",
"W  c #B7835C",
"Q  c #B7845C",
"!  c #B7855F",
"~  c #B7865F",
"^  c #B8855C",
"/  c #BA855C",
"(  c #BA855D",
")  c #BA865C",
"_  c #B8865F",
"`  c #BA865E",
"'  c #BB865E",
"]  c #BC875E",
"[  c #8A827A",
"{  c #9E8470",
"}  c #9F8673",
"|  c #94867B",
" . c #95877C",
".. c #A2836A",
"X. c #868482",
"o. c #868787",
"O. c #888684",
"+. c #888685",
"@. c #878887",
"#. c #868788",
"$. c #878889",
"%. c #888888",
/* pixels */
"` ` n y y y y y u y q * * * * * * * y ] E / n y y i y y u y q * * * * * = * @ . . . @ * * * * * * * u ' ` ] y * = * y ] ",
"b n i y y y e q 8 q 8 = * * * * * * q z i i t 0 0 8 0 0 0 0 = * * * * $ $ $ @ @ @ @ $ * * * 8 q q q u A A A r $ $ % 9 x ",
"* = q y u u = . X X @ * * * * * * * @ o o o o o . o . . . o @ * * * @ X . . * y y y q * * * y ] / / v y y u * X X X X . ",
"* * q y u u * . . . @ * * * * * * * @ . . . . . . . o . . . @ * * * @   . . * y y y q * * * y ] W ` v u y y *   X X X . ",
"& & 8 u y y * . . . @ & = & * * * * + . . . . . . .     . . @ * * * +   . . * y y y q = * * y ] ] ] B y y u *   . . . . ",
"q q r r q r * O O O @ $ $ # = q q q * @ @ @ @ + @ @ O O O O * q q q $   . . $ r r e 8 * * * q x z h j l k k w * $ # @ O ",
"` / u * * = * * * * @ X . . 0 ` / E b y y y y y y y 0 * * & y Q / / q . . . @ = * * * * * * @   X X , #.+.+.{ E ! ` y & ",
"/ / u * * * * * & = @ . . . q ` ` / b y y y y y u u 0 * * * y ` / ] q . X . @ & * * * * * * @ . X X , %.#.#.{ / ` ` y * ",
"` ` y * * * * & & * @ . X X 0 ` ) ] n y y y y y y u q * & & y ` / ] 8 . . . + = * * * = & = @ . . . , %.#.#.} ` ` ` u * ",
"Z Z y - - - : q q q & O O O = z z z u y y y t t t e q q q q i U Z Z r + + @ $ * * * * $ $ $ @ O O O <  . . ...A V A y * ",
"u y d 6 6 6 K Q / ` y & * * @ X o . * u y y q & * * y ` / E n y u u u u y y 9 * * * @ X .   @ & * * y ! W W B y y y 0 * ",
"y y s 6 6 6 K ` / ] u & * * @ . o . & u y y q = * * y ` ` ` n y y u u u y y q = * * @ . X . @ & * * y ` ` ` B y y y 0 * ",
"y y s 6 6 6 K ` ` ` y * * * @ . . . * u y y q & * & i / ` ` n y u y y u u u 8 * * * + . . . @ * * * y ` ` ` V y u u 0 * ",
"y y p 2 2 2 g U V Z i q q q $ . . . * u y y q & * * t V b n z y y y r 8 9 q 8 * & = & $ $ $ & & * * y A C A z q q q 9 * ",
"y u e * * * q y y i n E E E q . . . * u y y q * * * * = * * q y y y 8 X X X @ * * * y A E E y & * * 0 y u i *   X o @ * ",
"y y q & * * q y y y b ` ` ` q   .   % u y y q * * * * * * * 0 y y y * . X X + = * * y ` ] ] y = * * 0 y y u *       @ * ",
"y y 9 = = & 8 y y y n ] ` ` q   . . * u y y q * * * * * * * 0 y u u 8 . . . + & = & y ] ] ] y % * * 9 y y y & .     + = ",
"z z q $ $ & 8 y y y v E A A q o O O * u y y 8 % % % % % % $ = q q 9 $ O O O $ * & & q c c v r * * * 9 r r r & O O X * q ",
"/ ` q . X X * u y y y u y y q * & & 8 y y y * . . o . o o .   o o X + * & & & * & & @ o o X @ * * * = * * = * * * * y / ",
"/ ` q . . . * y y y y y y y 9 * = * q y y y *   . . . . . . . .   . + % & = = & = 8 @   . . @ * * * * * * * * * = & y ] ",
"` ` q   . . * y y y y y y y q * & * 0 y y y *     X     . . . . . . + = * * * * & & @       + * * * * * & * * * & & y ] ",
"W ` q O O O * r r r e r r r 0 - - - w t t t & O O O + % $ $ $ $ + # * * * * 9 9 q 9 = + $ # $ = * * = 9 8 9 = * * & y A ",
"` ] y * & & * * * = = & * = , 6 7 6 , * * * * * & & y U E U E E ( W y * * % y ' / W W W A E y * * * 9 y y y q * * * q u ",
"` ] y * * * * = & * & = = & , 6 6 6 , * * * * * * * y ` ` Q ` ` ' ' y * * * y ' / / / / ] ] y * * * 9 y y u 9 * * * 9 y ",
"` ` u * * * * * & & * * * & , 6 6 6 , & * * * * * * u ] ] ] ` ` ' ] y = * * u ] / / / ] ` ] y * * * 9 y y y q * * * 8 y ",
"n V r * * * 8 q q 9 q 9 q 9 < 7 7 7 < = 9 8 * % $ # q C C C C Z D A t $ $ $ t D A A Z C B B y * * * w k k k e 8 8 8 q y ",
"= = * * * * y ` E E E E W E v y y y y y y y *   . X @ = = = q u u u *   X X 8 y u y q = = = * * * * F +.+.+.L y y u y y ",
"* * * * * * y ` / / / ` ] ` v y y y y y y y *   . X @ = * = 8 u y u *       & y y y 9 * * * * * * * a %.+.#.H y y y y y ",
"* * * * * * y ` ` ` ] ` ` ` V u y y y y y y *   . . @ * * * 8 u u u *       * u y y q * * * * * * * F %.%.%.J y u y u y ",
"9 = = * * * r V V V Z Z A A x t e t t u y u * . . X O * % % q t t t = + + + * t r r 9 * * * = 8 8 8 d [ P [ G q q 9 e r ",
"y y 0 * * * = = 8 = e u u u q * * * q y y y * X X . X X X . @ * * * 9 t t y 9 * = = * * * * 9 y y y u y h y =   X O @ = ",
"y y q * * * * * & & q y y y q * * * q y y y * X X X X X X . @ * * * q y y y q * * * * * * * 9 y y y y y y y *       @ * ",
"y y q * * * * = * * 9 y y u q * * * q u u y * o         o   + * * * 0 y y i 0 * * * * * * * 0 y y y y y y y *       + * ",
"e r q = 8 8 * $ % $ 9 r t t 9 * * * 9 q q q %     o o o o o @ * * * 0 y y y 0 * * * % $ % $ 0 i x u x i f i 8 O o o $ 8 ",
"= * q y y y % . . X @ = * = * * * * + o o o o     o O * * * * * * * 0 y y y 0 * * * @ o o   q ^ W ! W / ` / y & & & 9 y ",
"* = 8 y y y * . . . @ * * * * * * * +   o         o + * * * * * * * 0 y y y 0 * * * + o . o 9 ) ( / / / ` ] y * & = 9 y ",
"* * q y y y * .     @ & * * * * * * + o . o   o     + * * * * * * * q i t y q & * * @ . . . 9 ) ] ` / ` ` ` u * * & q y ",
"* * q y y y = O O X & 8 9 9 8 * * * $ O O O + @ @ @ & = 8 = * * * * q i i i y 9 9 0 % . . . 9 E A W A A A Q f ; ; ; 9 r ",
"* * q y y y q * * & y E W ` u * * * 9 y y t c E U E z y y y q * * * y ) E ^ R E E E 9 . o   * i u u u u y y K o.+.+.F = ",
"* * 8 y y y q = * * y / ` ` u * * * 0 y y y b ) / / V y y y q * * * y E ) ^ E ) E ` 9 . .   % y y y y y y y H o.%.%.F & ",
"* * q y y y q * * & y ` ` ` y * * * 0 y y y b ) ` ` C y y y 8 * * * y ` ` ` ) ` ) ) q o   . * y u y y t u u H o.%.%.d * ",
"= = 0 t t r 9 * * * y W Z E y * * * q y y u i U C C b y y y q - - - y E U U C b b C *   . . * y u u y u u t l P P I 3 & ",
"y y q * * = * * * * q y u y q * * * 9 y y y q = = = q y y y s 6 6 6 s y y i * o o o o o . . * y t u y u u t q = = - @ X ",
"y y q * * * * * * * 0 y y y q * * * q y y y q * * * q y y y s 6 6 6 s y y y *     o   . . . * y u y y y u u q * & = @ . ",
"y u q = * * * * * * q y y y q * * = q y y y q * * & q y y y s 6 6 6 s y y y * X X o .   . . * y u u u u y y q * & = @ . ",
"q q = & & & & * * * q y y y q * * * 9 t t t q 0 0 9 q r t t p 5 > 5 1 t t y * o o o O O O + * t t r r r r r q 9 0 8 & @ ",
"o o X X . X @ * * * 9 y y y q * * * * = * = y E E E y = * = * * - * * * * * * & * & 0 t y t 0 * * * = = = = u A A / U A ",
"  X X X     @ * * * q y y y q * * * * * & & y ` ` ` y & * * * * * * * * * * * * * * 0 y y y 0 * * * * & = * y ] ] / ` ] ",
"X X         + = * * 8 y y y q * = & * * * & u ] / / u & * * * * * * * * * * * * = * 9 u u u 9 * * * * & & & u ` ` / / ] ",
"O o O + + O $ & * * 9 y t y 8 & * * * & * * y E U U u 8 = 8 = * * * & & % % % % % % 9 9 q q 9 * & = 8 9 9 9 y E U W U Z ",
"& & 9 t r y 9 & * * * = = = & = * * * = * & q y u u u u y y 9 * * * @ o o o o o X o o X o o @ & * & y U A W V y u u u u ",
"* * 9 u y y q * * * * = & & = & * * * * * & q y y u u y y y q * * * @           X   X   X X @ = * * u ] ` ` V y y u y u ",
"* * q y y y q = * * * * * & * * * * * & * & q y y u u u y y q * * & @     . . .   X X   X   + * * * u ] ` ` V y y y u y ",
"= = q t r t 9 * * * = 8 8 8 8 * * * & % & % 8 y t t q q e q 0 8 0 0 $ o o o o O O X O + O O $ * * * y V C A c y y y y y ",
"y y q * * = * * * * u E E E y * * * @ o o X @ = = = @ O O X q E U U y & & & * * & & 9 t t t 9 * * * = = = = q y y y y y ",
"y y q * * * * * * * u ` Q ` y & * * @ . .   @ & * & @   X X 0 ) ` Q y * * * * * * = 9 u u u q * * * * * * & q y y y y y ",
"y y 9 = * * * = & * y ] ` ] y * * * @ . . . @ & & & @ . X   0 ` ` ` y * * * * * * * 0 y y y q & * * * * * * q y y y y y ",
"y y 9 * * * = 8 8 9 y W U Q u 8 = 8 @ o o o # : : : % O o o 0 U U R y = = = = * * * 0 t t y w ; ; ; ; = = = 0 t y t t e ",
"y y q * * & y Q W W b y y y y y t y q & * & 4 X.[ X.4 % & & 0 i u u y y y y 0 = * * * = * * d X.[ X.G y y t 0 * = = @ O ",
"y y q * * & y ] W ` V y y y y y y y q * * * d @.$.@.s & * & 0 y y y y y y y 0 = * * * & * * d %.#.o.J y y y 0 * & & @   "
};
