/* XPM */
static char *_917c1ad1240416097e0092a6d928c5cO8PHlGRqqKacKqgA[] = {
/* columns rows colors chars-per-pixel */
"60 60 150 2 ",
"   c None",
".  c #262422",
"X  c #2F2926",
"o  c #3A3124",
"O  c #343331",
"+  c #573D11",
"@  c #5A3E11",
"#  c #423627",
"$  c #463D2F",
"%  c #573C32",
"&  c #593E32",
"*  c #523C38",
"=  c #5F4213",
"-  c #644514",
";  c #6D4C16",
":  c #64471D",
">  c #68491C",
",  c #724F17",
"<  c #724F18",
"1  c #6E521F",
"2  c #745017",
"3  c #74511B",
"4  c #7C561A",
"5  c #5C4133",
"6  c #5E453D",
"7  c #534A3D",
"8  c #6E4D2B",
"9  c #6D5227",
"0  c #6E5328",
"q  c #735421",
"w  c #785722",
"e  c #7C5A23",
"r  c #73552A",
"t  c #79552B",
"y  c #75592D",
"u  c #7B5C2C",
"i  c #624437",
"p  c #674936",
"a  c #62443A",
"s  c #694F3A",
"d  c #6D5237",
"f  c #6E503A",
"g  c #775B35",
"h  c #7D5E33",
"j  c #76543D",
"k  c #7D5F3E",
"l  c #7F6131",
"z  c #7B613E",
"x  c #454343",
"c  c #5D5C5D",
"v  c #634941",
"b  c #6C4B41",
"n  c #655D4F",
"m  c #745341",
"M  c #6C5D55",
"N  c #605F5F",
"B  c #7B6443",
"V  c #696052",
"C  c #796C65",
"Z  c #796F6B",
"A  c #835B1B",
"S  c #895F1C",
"D  c #8A601C",
"F  c #825E25",
"G  c #805E39",
"H  c #846125",
"J  c #8E6927",
"K  c #82612E",
"L  c #856430",
"P  c #896731",
"I  c #876834",
"U  c #8A6934",
"Y  c #84673B",
"T  c #84693C",
"R  c #8E6E3B",
"E  c #906F3B",
"W  c #8D7134",
"Q  c #8B713C",
"!  c #93743B",
"~  c #98773C",
"^  c #94793F",
"/  c #876B40",
"(  c #8A6E40",
")  c #836D4C",
"_  c #8D7444",
"`  c #947544",
"'  c #977945",
"]  c #9B7C45",
"[  c #967748",
"{  c #967949",
"}  c #997C4C",
"|  c #837254",
" . c #887353",
".. c #8E7853",
"X. c #9B7E52",
"o. c #988247",
"O. c #97814F",
"+. c #9B864C",
"@. c #9C894C",
"#. c #9E8255",
"$. c #9E8D50",
"%. c #9E8358",
"&. c #A68647",
"*. c #A58548",
"=. c #A28C4E",
"-. c #A88848",
";. c #A28F51",
":. c #A1865B",
">. c #A38959",
",. c #A69353",
"<. c #AA9453",
"1. c #AD9855",
"2. c #AB9758",
"3. c #AE9A5A",
"4. c #B19D59",
"5. c #928064",
"6. c #9C906D",
"7. c #86817D",
"8. c #938D7D",
"9. c #9F9574",
"0. c #A78D65",
"q. c #A39363",
"w. c #AB926C",
"e. c #A79869",
"r. c #AD9570",
"t. c #B19A77",
"y. c #B39D7B",
"u. c #878484",
"i. c #8D8A87",
"p. c #8E8E8F",
"a. c #959285",
"s. c #90908F",
"d. c #B7A281",
"f. c #BAA586",
"g. c #B5A48A",
"h. c #BBA789",
"j. c #BEAB8D",
"k. c #C2B094",
"l. c #C5B499",
"z. c #C8B89F",
"x. c #CABBA3",
"c. c #CEBFA9",
"v. c #CFC1AB",
"b. c #D1C3AE",
"n. c #D3C6B2",
"m. c #D6CAB7",
"M. c #D7CBB9",
"N. c #F2EEE9",
"B. c #F4F0EB",
"V. c #FFFFFF",
/* pixels */
"4 4 4 H 1.4.4.,.=.$.$.$.$.$.$.$.$.$.$.$.$.2.4.4.4.4.4.4.4.4.4.4.4.4.4.,.$.$.;.4.4.4.4.4.4.4.4.4.4.2.=.$.$.$.$.$.W 4 4 4 ",
"4 4 4 J 1.3.4.;.o.+.o.@.@.o.@.o.o.@.o.+.+.=.,.<.=.<.-.<.1.,.,.<.<.,.<.-.+.o.+.,.,.<.=.<.<.<.<.-.,.=.+.+.o.+.o.+.U 4 4 4 ",
"4 4 4 H 1.3.3.] P U P P U P U P U U U U U U U U U U U U U U U U P U P U U P U U U U U U U U U U P P U P U U U U H 4 4 4 ",
"4 4 4 H 1.4.3.] P P U R U R R U R U I U U U U U W U U E U E U U R U R R U R U R E U W U U E U U E U E U R I I U K 4 4 4 ",
"4 4 4 J 1.4.4.~ P P U ` ` ` ` ` ` _ T Y Y ( ` ` ` ( ` ` ' ' ` [ [ ` ` ` ` ` ` ` ` ! E ` ` ` ( ` ` ` ` [ ` T / / K 4 4 4 ",
", , , e ,.<.<.^ u u L ` [ ` r.j.j.h.g.g.g.j.j.j.k.k.h.j.0.` [ ` ` [ ' w.j.j.h.j.k.k.k.f.k.f.k.h.j.w.` ` ` h F h e 4 4 4 ",
"= = = 1 @.$.$.T 9 9 y ` ` ` n.V.V.V.V.V.V.V.V.V.V.V.V.V.k.` ` ' ` ' ` b.V.V.V.V.V.V.V.V.V.V.V.V.V.z.` ` ! 3 ; < 3 4 4 4 ",
", 1 ; 1 z z B l r r h ` [ ` n.V.V.V.V.V.V.V.V.V.V.V.V.V.z.} X.X.` ` ` c.V.V.V.V.V.V.V.V.V.V.V.V.V.x.} X.[ t q r 4 4 4 4 ",
"4 4 4 3 5 5 % 8 y u l ` [ ` n.V.V.V.V.V.V.V.V.V.V.V.V.V.x.:.:.X.[ ` ` b.V.V.V.V.V.V.V.V.V.V.V.V.V.c.:.%.X.l u u e 4 4 4 ",
"2 2 2 y C Z Z B y u l ` [ ` n.V.V.V.      V.V.V.V.V.V.V.x.X.:.#.[ [ ` b.V.V.V.V.V.V.V.V.V.V.V.V.V.c.#.:.X.l u u e 4 4 4 ",
", ; , y p.s.s.B u u l ` ` ` v.V.V.V.      V.V.V.V.V.V.V.x.X.:.X.[ ` ` c.V.V.V.V.V.V.V.V.V.V.V.V.V.c.#.:.X.L u u e 4 4 4 ",
"4 4 4 e e.e.e._ y u l ` [ [ q.y.y.r.:.:.#.t.h.f.d.f.f.f.w.:.:.%.[ ' ` 0.y.t.y.f.f.d.d.y.t.t.f.h.h.w.#.:.X.h y u e 4 4 4 ",
"4 4 4 H 1.4.4.^ u u l ` ' ' ` ` ` ` #.:.:.:.X.:.:.X.:.X.:.:.:.X.[ ` [ ` ` ` ` #.#.#.} ` ` ` #.#.#.:.:.X.X.G u u e 4 4 4 ",
"- - - q $.;.$.Q u u l ` ' ` [ [ ` ` [ [ { [ [ [ [ [ ` ' ` [ [ [ [ ' ` ` ` ` ` { ` { ` ` ` [ [ { [ ` } { [ F u u e 4 4 4 ",
"- - - q @.$.$.Q w y l ` ` [ #.%.:.:.:.:.:.:.:.:.:.:.:.:.X.` [ ` ` [ ` X.:.:.:.:.:.:.:.:.:.:.:.:.:.X.` ' ` u u u t 4 4 4 ",
"4 4 4 e <.4.4.W 0 0 y ` ` ` x.B.N.N.N.N.N.N.N.N.N.N.N.N.k.` ` [ ` [ ` x.B.N.N.N.N.N.N.N.N.N.N.N.B.k.` ` _ r 0 0 w 4 4 4 ",
"4 4 4 J <.4.3.Q r r g ` ` ` n.V.V.V.V.V.V.V.V.V.V.V.V.V.l.` ` ` ` ` ` b.V.V.V.V.V.V.V.V.V.V.V.V.V.z.` ` _ y r 0 q A 4 4 ",
"4 4 4 H 1.4.3.^ y y u ` ` ` n.V.V.V.V.V.V.V.V.V.V.V.V.V.l.` ` ` { ` ` b.V.V.V.V.V.V.V.V.V.V.V.V.V.z.` ` ` u u u e 4 4 4 ",
"4 4 4 H <.4.3.^ e u l ` [ ` n.V.V.V.V.V.V.V.V.V.V.V.V.V.l.` ` { ` [ ` v.V.V.V.V.V.V.V.V.V.V.V.V.V.z.` ` ` u u u e 4 4 4 ",
"4 4 4 H 1.4.4.^ y u L ` ` ` m.V.V.V.V.V.V.V.V.V.V.V.V.V.l.` [ ` ` ` ` b.V.V.V.V.V.V.V.V.V.V.V.V.V.x.` ` ` u u e e 4 4 4 ",
"2 1 2 e ,.<.<.Q u u K ` ` ` j.M.m.m.M.M.m.m.M.M.m.M.M.M.t.` ' ` [ ` ` f.M.M.M.M.m.m.M.M.m.m.M.M.m.y.` ' ` l u y e 4 4 4 ",
"- - - 1 @.@.@.Q u y K ` ` ` ` ` ` ` ` [ ` ` ` [ ` [ ` ` ` ` ` [ ` [ [ ` ' ` ` ` ` ` ` [ ` ` ` [ ` ` [ [ ` l u u e 4 4 4 ",
", , ; 4 ;.<.,.Q r r u R E E R R ! R R E E E R E E E E R R ! E E R E R E R E R R ! R R E E E R E R E R R R r r r t 4 4 4 ",
"4 4 4 H 1.4.4.Q 0 0 r K P P P P P P P P P P P P P P P P I P P P P P U P P P P P P P P P P P P P P P P P K r r r 3 4 4 4 ",
"4 4 4 H 3.4.4.^ u u K K F l K K F L u L F K G L F h K K K P P P K K K u K K H l L u K l F h L F L F u K F h u K e 4 4 4 ",
"4 4 4 H 3.4.4.^ J U L u u u u u h u u F h u u F u h u F K P P P u u u u u u u u u u u h h u h u u g u y h L P P F 4 4 4 ",
"4 4 4 J 1.4.4.o.P P P u u u R ] ] ] ~ o.] ~ ] ~ ] ~ ] ] ! P P P u u y R ~ ] ~ &.] ~ B V n n 7 7 7 $ o o # j j j t A 4 4 ",
"4 4 4 e ,.1.<.^ P U K u u u ! -.-.-.-.-.-.-.-.-.-.-.-.-.~ P P K u u e ! -.-.-.-.-.-.| N N c x x x O . . X a b b 8 4 4 4 ",
"- ; - > s s s l P P K u u u ~ -.&.-.-.-.-.-.-.-.-.-.-.-.~ P P P u u u ! -.-.-.-.-.-.B * * * a v v d g y r a a 6 8 A 4 4 ",
"- - - : 6 6 6 g P P P u u u ~ -.-.-.-.-.-.-.-.-.-.-.-.-.~ K P P u u u ! -.-.-.-.-.-.k & & i m m m G P P L a i i 8 4 4 4 ",
"4 4 4 u 7.u.u.| J P K u y u ~ &.-.*.-.&.-.-.-.*.-.-.&.&.~ P P K e u u ! -.-.*.&.&.*.&.] ] ] *.] *.! P P L L L L F 4 4 4 ",
"4 4 4 K 8.a.a...U U K u u u ! *.*.*.*.*.] *.*.&.*.*.&.&.! P P P u u u ! *.*.&.*.*.&.*.*.*.&.&.*.&.! P P P P P P F 4 4 4 ",
"4 4 4 H 1.3.4.' P P P u u u Q ' ' [ ' ' ` ' ' ' ' [ [ [ ( P P P F u u U [ ' ' ' ` ' [ ' ` [ [ [ ` E P P P P P P F 4 4 4 ",
"4 4 4 H 1.4.4.o.J P P K u u U ! ! ! ( ` E ` E ! ` ( ` ! U P P P G u F Y ! ! ( ` ` ` ! ! ` ( E ! ` R P P P P P P F A 4 4 ",
"4 4 4 J 1.4.4.o.L U P P P P U P P P P P U P P P P U P P P P P P P P I U P U P U L U P P U U U P P P P P P U U U F 4 4 4 ",
", , 2 u ;.<.<.^ L L P K L K L L L L L K G L L L G P F L P E E U L K L L L L K K F P G L G P F P K K L K K K K K F 4 4 4 ",
"- = - 1 @.$.$.! P P P u u y u u u u t y y u u u F u y u U ` ` ` u u u u u u y u y y u e u u u t u u u h u u u u e 4 4 4 ",
"; , , e ;.,.<.^ P U K u u u P ! ! ! ! ! ! ! E E ! E ! ! ` ' ` ` u u u L ! R ! ! ! ! ! ! E ! ! ! ! U F L F u u u e 4 4 4 ",
"4 4 4 H 1.4.4.^ P P L u u u ! -.-.-.-.-.-.-.-.-.&.-.-.-.] ' [ ` F u u ! -.-.-.-.-.-.-.-.-.-.&.-.-.~ P P L u u u e 4 4 4 ",
"2 2 2 e 1.4.4.o.P P P u u u ! -.-.-.-.-.-.&.-.&.&.-.-.-.] [ ' ( h h u ! -.-.-.&.-.&.-.-.-.-.-.&.-.~ P P P u u u e 4 4 4 ",
"; 2 ; e <.4.4.] P P K u u u ~ -.-.-.-.-.-.-.-.-.-.-.-.-.] [ ` ` F u u ! -.-.-.-.-.-.-.-.&.-.-.-.-.~ P P P u u y e 4 4 e ",
"4 2 4 H 1.4.4.~ J P P u u u ~ -.-.-.-.&.-.-.-.-.-.-.-.-.] ` ` ( u u u ! -.-.-.-.-.-.-.-.-.-.-.-.-.~ P P P u u u e 4 4 4 ",
"4 4 4 H 1.3.4.] L P L u u y ~ -.-.-.-.-.-.&.-.-.-.-.-.-.] } ` ` u u u ! -.-.-.-.-.&.-.-.-.-.-.&.-.~ P P P u u u e 4 4 4 ",
"- - - q #.>.:.( u u u u u u ~ -.-.-.-.-.-.-.-.-.-.-.-.-.] [ ` ` h u t ~ -.-.-.-.-.-.-.-.-.-.-.-.-.~ P P L u u u e 4 4 4 ",
"- - - q #.:.:.R u u u h u u ! -.-.&.&.-.-.-.&.-.-.-.-.&.} ` ` ` L F h ` &.&.&.-.-.-.&.-.&.-.-.&.-.~ P P P u u u e 4 4 4 ",
"4 4 4 H <.3.4.+.` ` ` ` ` ` ` ' [ [ [ [ [ [ [ } [ [ [ [ [ ` ` ' ` ( ` ` [ } [ [ [ [ [ } ' [ [ ' ' E P P P P P P F 4 4 4 ",
"4 4 4 H 1.4.3.*.` ` ` R ! ` ` ` ` E ` ( E ` ( ( ( ` ` E ` ` [ ` ` ` ` R ` ( ` ( ` E ( ( ` ( ` ( ` U P P P P P P K 4 4 4 ",
"4 4 4 H 3.4.4.=.[ ` ` h u u u y u u u h t F h h F t h F R [ ' ( u u u u u u u h F t h F u u h F u K P P P P P P F 4 4 4 ",
"4 4 4 H o.O.O.{ [ ` ` h u u L U U I U I U U I I U I U U E [ ` ` u u u K P U I I U I I U U U U U I U U R U P P P F 4 4 4 ",
"4 4 4 3 & & & B ' ` ( F u u ! -.-.*.*.-.&.&.&.&.&.&.&.&.] ` ' ` u u y ! -.-.&.&.&.&.&.&.&.&.&.&.-.] [ ` ` P P P H 4 4 4 ",
"3 3 , 0 M M M ) ` ` ` u u u ! -.-.-.-.*.-.-.-.-.-.-.-.-.] [ [ ( h u u ! -.-.-.-.-.-.-.-.-.-.-.-.-.*.` [ ` U P P F 4 4 4 ",
"- - = 0 p.s.s...` ` ` h u u ! -.-.-.-.-.-.-.-.-.-.-.-.-.] { ' ` u u u ~ -.-.-.-.-.-.-.-.-.-.-.-.-.] [ ` ` U P P H 4 4 4 ",
"; ; , y 6.r.9.%.` [ _ h u u ~ -.-.-.-.-.-.-.-.-.-.-.-.-.] ` ` _ u u u ! -.-.-.-.-.-.-.-.-.-.-.-.-.] ` [ ` P P P F 4 4 4 ",
"4 4 4 H 2.4.3.#.` [ ( F u u ~ -.-.-.-.-.-.-.-.-.-.-.-.-.] ` ` ` u u t ! -.-.-.-.-.-.-.-.-.-.-.-.-.+.[ ` ` P P P H 4 4 4 ",
"4 4 4 H ;.,.;.O.` ` ` R U R ` ] ] X.] ] ] ] ] o.} ] ] } } ' [ ` R R R ` ] } ] +.} ] ] } ] +.] ] ] ] [ ` ` U P P H 4 4 4 ",
"4 4 4 F @.$.$.o.[ ` [ [ [ [ ' ` ' ' ` [ { ` [ ` ` ' ' ` [ ' ` [ [ [ ' ' ' ` ' ` ` ' ' ` [ [ ` ` [ ' ` ' ` U P P H 4 4 4 ",
"4 4 4 H ,.1.1.;.o.@.+.+.+.+.+.+.+.+.+.+.@.+.#.@.+.+.+.+.o.@.+.+.#.o.@.+.+.+.+.+.+.+.+.*.+.+.+.+.+.+.+.+.+.o.o.o.P 4 4 4 ",
"4 4 4 H ,.1.1.$.@.@.@.@.@.@.@.@.@.@.@.@.o.@.@.@.@.@.@.@.@.@.@.@.@.@.@.@.@.@.@.@.@.@.@.@.@.@.@.@.+.+.@.=.@.@.@.=.W 4 4 4 ",
"= = = - 1 q q e H F H H F H F H H F F H F S F F H F H H S F H F H F H H F F H F H F H H A H H F H F F H H J J J D 4 4 4 ",
"+ + + @ - - - , 4 4 4 4 4 4 4 4 A 4 4 4 4 4 4 4 4 4 4 4 4 4 4 4 4 4 4 4 4 4 4 4 4 4 4 4 4 4 4 4 4 4 4 4 4 S S S A 4 4 4 "
};
