/* XPM */
static char *f5e475f19022413f9ed8abf715c4abe9uHThoMkoWekgevQH[] = {
/* columns rows colors chars-per-pixel */
"60 60 256 2 ",
"   c #000E00",
".  c #001400",
"X  c #001C00",
"o  c #0C1A00",
"O  c #012400",
"+  c #0A2500",
"@  c #012B00",
"#  c #0B2C00",
"$  c #04280A",
"%  c #132D01",
"&  c #033300",
"*  c #0B3300",
"=  c #033C00",
"-  c #0C3C00",
";  c #0B3D0B",
":  c #133300",
">  c #133D00",
",  c #1B3D00",
"<  c #193503",
"1  c #143613",
"2  c #243A01",
"3  c #252E01",
"4  c #034100",
"5  c #0D4300",
"6  c #0A4B00",
"7  c #064902",
"8  c #134301",
"9  c #1B4400",
"0  c #144B01",
"q  c #1C4C01",
"w  c #194709",
"e  c #0B5700",
"r  c #125300",
"t  c #1B5201",
"y  c #145B01",
"u  c #1B5707",
"i  c #1C4916",
"p  c #234401",
"a  c #2C4501",
"s  c #244C01",
"d  c #2B4C02",
"f  c #23470B",
"g  c #344B02",
"h  c #245401",
"j  c #2B5301",
"k  c #245B01",
"l  c #2B5B02",
"z  c #27580B",
"x  c #3A5502",
"c  c #335D02",
"v  c #3C5D01",
"b  c #355709",
"n  c #264D14",
"m  c #2A5817",
"M  c #375A16",
"N  c #1D6602",
"B  c #186A0F",
"V  c #246202",
"C  c #2C6302",
"Z  c #286807",
"A  c #336403",
"S  c #3B6402",
"D  c #346B01",
"F  c #3B6B00",
"G  c #32640B",
"H  c #346C0B",
"J  c #3B680C",
"K  c #2A7507",
"L  c #3C7302",
"P  c #3D730B",
"I  c #387808",
"U  c #2B6516",
"Y  c #356214",
"T  c #3B6C13",
"R  c #3B641C",
"E  c #356A1A",
"W  c #3B6B1C",
"Q  c #386515",
"!  c #2B7513",
"~  c #3C7313",
"^  c #387718",
"/  c #365A26",
"(  c #2C5627",
")  c #3C6A23",
"_  c #386728",
"`  c #3A7625",
"'  c #3C6832",
"]  c #316E27",
"[  c #445C06",
"{  c #445D19",
"}  c #436403",
"|  c #446B0B",
" . c #486A06",
".. c #44740D",
"X. c #477707",
"o. c #557A08",
"O. c #446C1D",
"+. c #466817",
"@. c #536D15",
"#. c #447314",
"$. c #4D7414",
"%. c #4C7D13",
"&. c #4B741C",
"*. c #447B1B",
"=. c #4C7B1C",
"-. c #437818",
";. c #547818",
":. c #54680F",
">. c #667B19",
",. c #466A28",
"<. c #536D26",
"1. c #437324",
"2. c #4B7C23",
"3. c #497829",
"4. c #547D23",
"5. c #547C2B",
"6. c #587729",
"7. c #486A32",
"8. c #497A36",
"9. c #567A37",
"0. c #536F32",
"q. c #647A26",
"w. c #647837",
"e. c #495E3F",
"r. c #5A7D49",
"t. c #3D8518",
"y. c #37860D",
"u. c #3E8428",
"i. c #49830B",
"p. c #57870B",
"a. c #4C8313",
"s. c #4C831D",
"d. c #468619",
"f. c #56871A",
"g. c #59951B",
"h. c #48910E",
"j. c #64881B",
"k. c #69971B",
"l. c #6D9112",
"z. c #70A21A",
"x. c #4C8323",
"c. c #4C8B24",
"v. c #4B832D",
"b. c #478728",
"n. c #548224",
"m. c #5C8324",
"M. c #548A24",
"N. c #5C8B24",
"B. c #548A2A",
"V. c #5B8B2C",
"C. c #58832C",
"Z. c #599528",
"A. c #4B8436",
"S. c #5B8333",
"D. c #5C8A34",
"F. c #558C3C",
"G. c #578837",
"H. c #5C9434",
"J. c #599736",
"K. c #4C932B",
"L. c #648B2C",
"P. c #668928",
"I. c #689828",
"U. c #749829",
"Y. c #658938",
"T. c #728C36",
"R. c #629433",
"E. c #639B33",
"W. c #6C9C33",
"Q. c #63933C",
"!. c #659C3C",
"~. c #6C9C3C",
"^. c #6C9438",
"/. c #769A37",
"(. c #768A2D",
"). c #59A625",
"_. c #5CA436",
"`. c #6CA82A",
"'. c #77A62B",
"]. c #69A637",
"[. c #73A333",
"{. c #73A43C",
"}. c #7AA738",
"|. c #79B33A",
" X c #71B233",
".X c #5A8944",
"XX c #5C9545",
"oX c #558C4E",
"OX c #658A46",
"+X c #699746",
"@X c #749B4C",
"#X c #779A45",
"$X c #699755",
"%X c #789A56",
"&X c #708B4E",
"*X c #6CA442",
"=X c #68A547",
"-X c #74A343",
";X c #78A848",
":X c #7AB548",
">X c #79A856",
",X c #78B854",
"<X c #6AAC4F",
"1X c #77B565",
"2X c #7AA769",
"3X c #7C9D64",
"4X c #7BCA62",
"5X c #829838",
"6X c #83A93A",
"7X c #89B63B",
"8X c #93B43C",
"9X c #839B4D",
"0X c #87A948",
"qX c #92AB4A",
"wX c #84B34D",
"eX c #88B747",
"rX c #96B64A",
"tX c #86AA55",
"yX c #88B757",
"uX c #94B957",
"iX c #96AA56",
"pX c #A5BD5D",
"aX c #849F71",
"sX c #88B866",
"dX c #95B968",
"fX c #8DB170",
"gX c #A9B96B",
"hX c #96C548",
"jX c #8CC459",
"kX c #97C658",
"lX c #8ECD51",
"zX c #A6C95A",
"xX c #A6D657",
"cX c #AECC55",
"vX c #B2E45B",
"bX c #8CC768",
"nX c #99C767",
"mX c #9AD368",
"MX c #9AC576",
"NX c #96D972",
"BX c #AACC69",
"VX c #A7DA69",
"CX c #B4D979",
"ZX c #AED470",
"AX c #B8E67A",
"SX c #B3E66F",
"DX c #C4DA75",
"FX c #C4E675",
"GX c #95BA84",
"HX c #B6D786",
"JX c #A9D083",
"KX c #B9F086",
"LX c #9FC58C",
"PX c #C8EF8D",
"IX c #D8F8AA",
"UX c #C6DB90",
/* pixels */
"T.@.iX:.[ iXo 7.>.^.M e.6.nXR.z   e.0.b yXJ #Xh m 9 q Q.; 2XkXp.zX0X} 0XP.'.cXl.cX5XqXg { %XxXxX+.HX6.dX$.l $ 1 q ~.J l ",
" .@.[ iX3 gX3 { 0X2 { 7.} L.;XO + / OXT.4.q ;X2.- >X~.> : f W.S (.>.(.CXqX/./. .5XpX(.< +.yXhXxXp f # yXC.z ( . _ H.C D.",
"xXo.g + X T.#Xq.[ [ tXx % v U.} b dXzXX.W.S 8 O.@ nXT s.M O ;.U.:.o [ 5Xa 2 4.BX<.X x /.p P.hXrX# # s L.^.m ' i z tXG 2.",
"'.6X0XM v 5XBX@.g dXDX6X| /.l.DX| o o.SXzX{.tX+XO.5.> 0X=.n.;.qX5X5XgX:.. 0.#X@X, #XrXrX} ;.AX$.0.O ;.;XMX,.X $X1.l l # ",
"8XBXY.. d [ zX[ [ :.BXFX}.;.l.vXdX, eXk.j AX9 +.OX# 5.$./.ZXx [ qX>.DXrXv v j  .Y.6.;X} Y.@.} v a -X;.[.^.9 tX:X-X# MXMX",
"} @.,.: } BX(.5X>.< rX}./.>  .I.~.d - [.j uX#XO.Y.f b p 0X .9 9XgXo 3 >.rX}.o.a.#XO OX&X6.a b iXL.0XP.v | j s n.%.n.D.Q ",
"2 g PXv 5XU.2 g iXU.'.k.eX%.f.P.;...^.uXY.tXtX+ j | : &XIX: + OX3 w.pXj.k.zXVXI...wXs R ,.w.dX: v @.[ X #XyXs * ^.l q G ",
"0.9X5X .8XqX&X+ U.rXU.SXN.s.A :XC.j CX#.OX# z b uX/.f O tXb < M   3 w.rX0Xj S  .[.[.,.%X+ M b @.rX;.#X| 6.,.M R sXuX8 C.",
"U.W.p + a P.0X0X6XF L.=.;Xa.i.`.#.> } 8 p { % @XCX* -XOX- W 1.> OX<.D.1.b Y.. S 7XD 9 3X%X2 +  .cX:.>.q.a M ,.7.T AXq @ ",
"I.rX@.+.<.x rXo.j.0Xd 6.uXa.].Z.&.j wXv +.dX,.f 6.1.O Q S.5 .X3.k h Q.M . OX#X0XhXU.* b tX, Y.U.8XcX(.6.Y.%X. 9 A {.3.8 ",
"].jXS.,.b <.} X.S CXb b Y.@ W.;X=.f.U.6XeX[ 3 X % f 7.. E m & XX^ =X1.w / . P.'.U.s kX0X&.wX;XkX5X:.g { : d $XC.*XH $XoX",
"V <XO.. 3.d  .'.c BX+.<.%X,.T J 0X;.a.rXo.@.aX  + + GX* _ ] @ U ^ *Xv.X LX,.uXPX}.} U.6XL.=.8 T.5Xg &Xg O.5.s +X!.E & ( ",
"8 F.5.O M b  .zX .;.Y.2 HX7.,.& yXL.;X+.. M 0.% aXM 9.> i U F.<X= ` A = @XY.PXP.p ;XU.X.4.z S.,.x . 6.OX6.dX' ` XX- @ & ",
"w h G.G.# sX:.rX} } tXp dX+ 0.z @ #.S.[ j < < &XM : p h > 2.u v.A.E :XuX0XtXP.c ;.;.I.[.h # @ +.+.T.p 9 ,.m ` m 8.U ` m ",
"@ q m./.Q 6.PXrX:.6.P.^.-X#.q 5.Y O.Y.OXT.:.iXx 2 <.<.L.%.g.X.Z.5 l c #XP.$.c o.U.eXh N.b D.F eX0XL.R X r.5 ; .XA.u :X:X",
", S.VXwXp 9 ZXDXq.x T.S #XT 9 yXS.9 4.v f.:.uXx <.g T.;XeXg.L Z.n.MXtX9 p L.}.}.I.N...{.s R.6XrXeXv # _ 8.- O 0 J.*.X.a.",
",.q :X|.#.iXcXj.T.  ;.0XnX8 l I.;. .;.PX..A 0Xh D.G.,.9 %.}.H h c uXT s l %.P V.C ^ H l VXn.& tXI...p ' &X> ' > & x.sXQ.",
"O.;XlX].wX> $.-X#X;.6XeXwXX l ;.o.f.o.mX0 +XAXP.5 >X7.M q -Xt -.nX=.~.>X-Xq k :Xc.z 3.O R.#.l 9 $.L.S.OXn n O * +XQ.D.IX",
"=.kXN.I.c.bX7 ! VXu !.V.F a.0X$.a rXk.[.z T S N.5 U GX9 j PX8 mX1.,.8 6.D.N.|.I & ] 2Xm z 5.9.7.dXMX4.J * r.Q *.C.h fX2X",
"A *XM.Z.e ! ! 7 NXK ;X=.F '.W.s 0X} k.wXO 5.mXL 0 w i . 9 p $.;Xb O O 9 5.,XX.g.8.4 u XXF.R X 9.3.O.N.&.7.m l XXl OX$X1 ",
";X0 8 t _.7 y.B ! <X^ Z [.U.f.} dX9X/.W.> tXkXV b.8.O _ LX,.m.CXnXk Q.G.G.8 O F.>X^ ` 1.) ,.# n GX0 D.z &X/ p gXM * 1 < ",
"].v.F.E ,X<XB 4XB N ].VXp.p.nX9 a :.4.-XO.-Xg.k & .X2X$ +.6.. s.!.G V.<XE ` ' 8.A.7 5 Y * 9.M 2 # 5.M O.0.  9.%Xf > &X' ",
"P !.v.0 ! u.! B B K. Xi.j p sXHXq.{ | n.Y.z P V m 5 w O @XL.d C.<X6 t =Xz +X& ( $XU O * d IX%X% a [ 2 a 0.%X5.G.E .X$ fX",
"yX= Q E @ J.b.u.N jXg.f.^.X 7.2 a [ @Xh +X@ :X,X$ oX8.1.+.p dX8 3.u @ XXJ.6 & 8.W n / * ,.Y.T.HXIXUXX %XJX6.Q > 3.HX1.@ ",
"uXj =.mX^ K.` B c.KXt.sXsXaX&X< { +.dX& M 1.:XV & ; NX!.M 9.+.5.] = z J.; *XZ.].4.Q.> ) m : T.| 9 #XS.+X&X+ + : JXd 2.O.",
"tX9 M.d.y @ w 0 K.jXu u & O + X 6.dXm X X q E.H & i ^ :Xn O Q W .X- & & ;XeXP.C F ,XD.* > dXJ +.,.S.n.s <.a + %XY.+ OXtX",
"> > H J.$ 1X2X.X) W 7 m v.E m q +X+Xz .X7.. G ..$ 0 =Xb.%X. tXf G.O # M k U.{.;Xt jXE.Z.yXJX* O m .XwX0XM ,.T yXOXn R 9.",
"* A.1Xy ] ' 0 X - H.$X5 t.mXbX5 @X6.@ = aX9.9 c <X& G.G.8.# > +XsXp f 3.=.$.sXC.t W.s.s.H ^ oXi + # dXP.M HXL.L.S.$X1.T ",
"( ] m ` r m & i OX0 ~ ].bX_.K e a.-X.XOXn OXg R Q T . $X7.& s h Y.3XO / dXY > X S ..5 . 1.8.O * { 9XBXp a q.U.0X9./ Y Z ",
"' _ @ _ oX_ ] fX>X@ = *.c.b.H Z B.bX* X # Y.{ { -XY > $ R @ G >X* *.7.. #Xb . G.yXO.` n @ f m 7.a HXv qX9XP.BX4.r.n h H.",
"( O O OXC.Q =Xv.` w R.nXA 2.J.v.t R f O 4.tXUX2 C.>X.XX h B.W D.s.C +X> X.xXA ZXs R f O * b %X, O.BXF rXg b O.Y.O z *.:X",
"1., O +X8 0 yXH.8.@ Y NX- - W $Xt & 1.Q iX:.iXq.C.f O X OXHX, S.KXf.tXh xXxXeXk 5 G ,.j uX;.tXc d :Xa.%.OX* @ ) - l W.I.",
"}.VX+XG.U 6 yX;Xz O = v.G.T & ] 3.J.l yXq.[ rXj.9X. $ $ aX% <.:.tXa q./.rXhX).t._.K.wXk ;.uX#X9 J C <Xu ` E k 2.5.+XVXZ.",
"].L u d.u.] B.B.fXA.6 A.,Xv.v.8.& Q.uX0X>.DXrXP.dXR O e.1   < P.P.[ x iX'.I K _.e K...> $.tXD.@ ^ J.J.4 O B 2.l - -X].].",
"5 z [.].H b.C C.O ( ( 0 ~ #.` 8 R s Y.$.BXZXd #.E.d.V .X3.M 4.qX8Xp. . XvXy.e y ` 8 dX#XT.2 > 8.bX` Z J.U v.0 8 q sXy <X",
"w & VXxX0 J.,X5.O . U = A E.- - OX9.. PXuX8 h *.:X).N e =Xq - p.8X5Xk.'. X_.e Z ` - + T.} ZX* tXE & J.^ J.;XB.sXF.F.y N ",
";XN.hX Xy.0 = q +Xz H.k X.VXD v.> 7.& =.:Xr 6 b. Xy.).K 4 _.bX0 vX5X'.C ^ b.J.lX*.* Y.P.j.f.kXf.F N.mXL 5 0 & OX& X ` ! ",
"d.i.'.|.Z.4 6 B 3.Z P a.k.lXM.+X7.- = yX..:X].e 4X).].Z.! ` 3.*X8Xl.D 4 u U ].).{.h ;.S I.v I.6XP.P.X.i.wXQ.~ +Xm i J.^ ",
"Z.|.g.`.jXc.! K ! 4 @ v.wXV.d.F.8.X A.2.M.g.k O.@ O {.[.-X~ & 5 i.jXf.:Xu A.H {.R.2.wXCX^.Y.< < S '.xXX.].X Q U 0 XXNXg.",
"`.y.X.].C u. XK N <X+X5 0 A J.U & A.r @ |.%.L sXU * =.c C b.u 8.k k ].Z .X& 4 jXC V.s ;X9.p # b %.z. X X-X=XE 8 5 D.L D ",
"y.:Xa.*.5 0 ).y.e Z.yXG =.Q - E = bXc.y.NXH t bXb.5 =.C *.t.1X` _ m & & ( = & ].@ -Xs.7 t E & bXc.].Z.V d.+X8.A.l R.8 ].",
"eXkXZ E m G.lXV N H.#X@ s yX8 E G B.h.).u = B N ^ eXJ P 4 K 1Xr & 8.3.8.. 0 c.*XI V ].K.v.Z ! _.,Xe K.].].M.O & M.{.J v.",
":XA & @ & 2.M.].Q @ tX| , L.j #X6.@X2.U & ( ` e 6 H KXN N :X= ` F.@ +Xv.8.U Z. X|. XK _.v.bX^ XXsXO - n.a.N.Z yXZ.mXXX8.",
"i.h 0 8 S.HXV.V.fX, :.zXP.}. ./.a T t v.>X1.U .XXXZ *XD ).y.=XXX` K.H.= 2.mXi.g.7 7 t.,Xb.y 4 6 z MX@ O eXSX0 Z.Z.h n $ ",
"7XC X v.].I.~.Y.Y.iXX 8X}.xX'.l.c ..D N.a.P y ^ NXJ.4 Z _.K t @ z XX;X|.l & W.mXZ e B e ^ e ! E Q.C.+.} 9 I. XK ` = @ O ",
"lXi.t.=Xt ..uX%.v j.rXo.k.FXl.8XU.SXZ.C l kX-X~ K.K - Q.D K.$X8 $ ,Xd.`.d.d.C ,Xy B 7 oXe ! b.sX~ & ;X#X~.].:X_.4 ` O ( ",
"AXy.y.! $ 2.|.'.I.eXhX6XkX%.{.@.9 A.z & P.qX4.c X d #XuX-.W % < . q mXh.t.Z Z a.E.x.O ] 1Xt.N bXD ].<X- sXNXJ.! 7 ] & i ",
"t.<X).u.! +X}.p.z.5Xj.N.N.~ - OXw 8.2X$ 9X;.;.p f 2 P.uXl Y + r.,.7 g. Xy t.E.t kXnXv.7 7 N J.= t.].U 4 0 Y u.] ! =X] ' ",
"u.y.N r 2.].f.U.f. .$.s 5 0 7.m = >X3.8 6.Y.9 @X+ 0.0XkX2.q @ d nX%.D D |.a.5 H.VXX.J.4 ^ I Z jX_.b.& w ' F.` U b.u.` u.",
"K N = V Z.k D F rX0XCXtXs.q @ m 3.C ~ j #X5.D.- X Y.x wXl G 2.dXeXp.yX}.eXAXY c jX%.~ V -.KXH s.*Xz ; r.oX) = ; XX6 y t.",
"y.y.N  XlXC 5 dXQ < X.z.`.Z.8 8 D.R.C J ;XA b 5 D.^.0XyX= mXyXO.= V.sXS.O ;X>XM E.I.eXZ.M.H E.R.+XO   / / n # 0 V.P x.c.",
"_.).).g.Z.kXs.Q.: # > xXhXi.1.- F.=.q W.BX#X2.t l | P.L _.I Q.O 5.5.X O R 9.* OXM.I 7XSXx.6 :XP W w n 0./ n f 1.-XL yXyX",
"lX:X`.`.i.].yXh X | zXi.I VXb X 8 m.|.k.&.9 #.-X- wX'.eXZ Z C %.MX* Y d dX#X& yXW.[.[.L -X=Xc.].h 4.1.M d 9 n fX*.x.>Xx.",
").h.z.h.g.& 0 H tXPX7XX.).;XQ @ M wXg.F j 3.=.R.H.N.[.%._.bXwX~.9 ;.J P.p 0X# dXCXP.I.C 8 q H.*X~ H.z ` $X,.@ 5 -.V r C ",
"y.t.Z.L -XM.t s.W.eXI.F -.G.D.3.S L.j #X6.sXwXf.%.#X9 G ].u k =.tXL.&.$.I.I.uXf.eXP.c ^.O X ) 0 ` 3.@ m 1X1X=Xb.*.^ d.V ",
"h.K i.mXf.c.].R.|.C {.].Q T 2.q 9 uXa a +X> F kXR.q - = g.I.c.q A U.f.j o.rXuX;./.X.wXC.h w $Xk 4 .Xi m u Z J.J.K.K.Z.mX",
"c.I eXk lXd.4 & yX8 h G.+XJ.~.c  .qXP.} ZX .X.eX .A F L i.g.W.|.'.hXl.i.AX+Xd O.qX0X;XG {.:X:XH ^ yXc.O 5 W *.yX` q ^ %.",
"P a.L p.p.:XH r ].M.l Y H P c  ./.>.8XFXrXhX6X6XP.}.`.k.jXPXlX8 z.z.p.z.#Xs : %XL.m.&.b P.|.I M.C %.VXyXXX+XH bX) ) 5.V.",
"|.f.g.7X`.K ^ ! +X;XQ.=XZ.X.X.zXpX9XqXT.@.(.(.(.S f.t M.Q.@XmXg.`.VXhXeX2.O.7.% ^.6.p 9.T V.^ G.h # X.k.=X7.V.~ D.&.D.nX",
"`.q C vXk. X X].c.2.-.A d.i.k.k.5XgXq.q.< P./.(.m.l l H.f : q f.f.X.[.N.> z ' OXS.5., dX5.x.H.q OX~.kXhXs & l ..J j 4.j "
};
