/* XPM */
static char *c088896636b14741948549b4edfddc90t1nC2im7yLNUmziA[] = {
/* columns rows colors chars-per-pixel */
"60 60 144 2 ",
"   c #2F570E",
".  c #335E0E",
"X  c #345F17",
"o  c #365D1A",
"O  c #376012",
"+  c #386315",
"@  c #366B13",
"#  c #3B6E15",
"$  c #376618",
"%  c #3D671F",
"&  c #37691A",
"*  c #3B6D1C",
"=  c #3D7216",
"-  c #3D731B",
";  c #3D781C",
":  c #3E6526",
">  c #3F6E20",
",  c #3F7521",
"<  c #3B7B20",
"1  c #436E16",
"2  c #4A6E17",
"3  c #426E1D",
"4  c #467616",
"5  c #4E7616",
"6  c #467817",
"7  c #4A7A17",
"8  c #43751C",
"9  c #4A761D",
"0  c #45791E",
"q  c #4C7B1D",
"w  c #517D1D",
"e  c #436D23",
"r  c #486C26",
"t  c #447422",
"y  c #4A7522",
"u  c #457B23",
"i  c #4B7C23",
"p  c #467429",
"a  c #4A762B",
"s  c #477B28",
"d  c #4D7B2A",
"f  c #527723",
"g  c #527D24",
"h  c #597E25",
"j  c #527D29",
"k  c #587F2C",
"l  c #517D30",
"z  c #47821B",
"x  c #4B831E",
"c  c #4F891B",
"v  c #52821E",
"b  c #5B851B",
"n  c #528C1D",
"m  c #598C1E",
"M  c #569218",
"N  c #458323",
"B  c #4D8324",
"V  c #4D8B23",
"C  c #4E8429",
"Z  c #4D8A29",
"A  c #538324",
"S  c #5B8625",
"D  c #548C24",
"F  c #5A8D25",
"G  c #53852A",
"H  c #5A852A",
"J  c #558C2A",
"K  c #5B8D2B",
"L  c #4E9026",
"P  c #4F902A",
"I  c #559124",
"U  c #5C9325",
"Y  c #5E9926",
"T  c #55922A",
"R  c #5C932B",
"E  c #5E992B",
"W  c #4E8430",
"Q  c #548231",
"!  c #588432",
"~  c #568C31",
"^  c #5C8D31",
"/  c #5E9431",
"(  c #579830",
")  c #5E9A32",
"_  c #628B25",
"`  c #698C24",
"'  c #628728",
"]  c #628D2B",
"[  c #6A8D2A",
"{  c #629426",
"}  c #6A9425",
"|  c #639B26",
" . c #6D9926",
".. c #62942C",
"X. c #6B942C",
"o. c #639A2C",
"O. c #6A9C2D",
"+. c #71952C",
"@. c #729B2C",
"#. c #799E2E",
"$. c #608F33",
"%. c #639532",
"&. c #6A9632",
"*. c #649B32",
"=. c #6B9C33",
"-. c #699438",
";. c #679F39",
":. c #6E9E39",
">. c #709532",
",. c #739D33",
"<. c #719F3D",
"1. c #789E3B",
"2. c #66A02D",
"3. c #6CA22D",
"4. c #73A22D",
"5. c #79A62E",
"6. c #7BA92F",
"7. c #66A034",
"8. c #6CA233",
"9. c #6DA33A",
"0. c #6FA93B",
"q. c #73A334",
"w. c #7AA534",
"e. c #76AA35",
"r. c #7BAA36",
"t. c #74A43A",
"y. c #7AA53A",
"u. c #74AA3A",
"i. c #7BAA3B",
"p. c #74A440",
"a. c #70A940",
"s. c #7EAB41",
"d. c #81A537",
"f. c #82A936",
"g. c #81A639",
"h. c #83AC3B",
"j. c #89AC3C",
"k. c #81B13B",
"l. c #89B43E",
"z. c #82A740",
"x. c #85AC42",
"c. c #89AA43",
"v. c #90AB4A",
"b. c #85B042",
/* pixels */
"i 9 9 8 3 * 3 * f f f 9 y i u - X e i 8 = - t u B C B B 8 3 8 t 3 r 9 2 9 f i 1 5 w i t * & * 3 * * - u s i C C y 0 0 8 ",
"q 9 8 8 y d a y f f f 9 y i 8 * : t d i 0 s i s x B G A u q y y y k k f y A h w 5 9 y t - & * e s s d s u B G J q 0 6 u ",
"q 9 6 9 j A j y h h h y 8 0 8 @ r a a i q u u - 8 0 B C u y 8 y 9 j H q 9 h S w 5 9 9 8 * * t y d d u - ; 8 N C B 9 9 i ",
"q q q x g A i q ' ' S g i y 8 # d a i i B u - @ = 6 u u i y i i q h A w w w S S 5 q 9 t , t a G s N u - # = 8 u x 6 6 q ",
"x A D A v x w v X.X.[ K A i u 8 l d i j D C u = ; 0 u u q i A H A F A S _ [ X.X._ S q u y i i i u C C u 8 ; 8 u q 4 4 w ",
"D K R F F b _ X.X.,.&.] H A C s a t 9 i J G u u - 8 u 0 q i H ^ K F S _ X.>.#.@.X.' A i s i y 8 x V G C 0 ; 0 q w 9 9 A ",
"D R R U F {  .,.+.@.,...F G C i f t 8 A G D i B # * 0 0 0 q A H U F _ | X.@.+.+.X.H A j C d i 8 x A G V 0 = = 0 y 9 f G ",
"E T U m _ } +.@.}  .X.{ H A G B ! j i G K A B C * - y i u j H K T { O.=.@.X.+.@.F S g B C ~ C y D D J B 6 # ; , i f j H ",
"E I c M O.e.q.} / *./ J C G T ~ ..H A H / J B B < u C C i q A D M 2.3.3.2.2.O...V C C Q ~ ^ J V K K F C 0 ; ; N A j i g ",
"T L V D ..q.O.{ K R R J D J / ~ K S A K / / J J < N J G A i D R M Y 2.| { U F F A G Z ~ ^ / J G ..K K K B z N J A C B g ",
"c V n D U o.o.{ B D J D C G J G $.] K %./ J D J N V ~ K H J K R c U *./ D D D F D D J ~ ~ / R K F K K K D B C J H H A S ",
"z c I D F U { Y D R K J J J J G ^ %.%./ K G A F B G / %...K K R x T ) ) R D K %.J D J Q ~ ~ E ) D D D F F B A F %.] K K ",
"V V T D I U Y Y %.E / / / / ~ J A K / / R R ..o.D R ..&.%.K R K V T ) ) R R E *.R D J J J ~ / *.R R ..*.....F { ......K ",
"V T T J I T ) Y R R J / / ~ J ~ J ~ / %...*.=.,.{ X.=.&...] T J P T ) ) ( F R T R R J J J K / %.....*.9.,.O.o.X...R F S ",
"V T T D V U E ) / J J / / J J ~ ~ ) %./ ..=.,.=.8.,.,.=...] K D P L T ) *.T I U R R K J G D K E R E %.q.t.,.O.@.X.{ K F ",
"J T J V V ( ) ) 9.*./ *./ ~ J J B G J K ..q.i.e.y.e.,.,.} R T D L V L 7.7.2.U U R R R J D D J E R ..&.u.i.i.q.4.O...{ F ",
"U R Y I T E %.E / ) *./ E / D x K K J R *.t.c.v.y.y.i.q.o.Y R %.| Y T Y T U R *.J -./ C A ^ $.H U o.u.s.h.f.d.d.,.=.{ ..",
"| o.o.*.*.*.%.*.J / / R R / R B ../ R E *.t.z.c.y.f.i.t.=.R R R Y I Y O.*.E U R J ( ( G A %.-...U o.t.s.x.h.h.d.q.&.} ] ",
"Y Y Y O.8.o.o.*./ / / R R / K D *.o.o.o.O.q.d.h.f.h.i.i.=.o.R R Y Y Y *.7.E R T D R / H K %.9.-.| o.q.i.b.b.h.g.q.=.{ F ",
"Y n I O.7.U T *.*.%.R R / / R K O.O.=.q.4.w.r.r.f.i.i.e.=.R R T 0.Y U E 2.) *.) D R E Y U &.9.t.=.q.q.i.b.b.i.w.t.X.{ F ",
"| m | 8.0.o.O.0.9.*.R R E ) E R O.8.q.e.y.w.r.r.f.y.q.O.{ U R E u.2.Y 2.7.7.7.%.F R o.Y R O.8.t.i.t.q.y.i.h.y.4.=.X.U R ",
"2.| 2.3.8.7.2.0.0.%.T Y %.E E R | =.y.i.r.e.e.e.f.w.O.{ U R / / 7.o.7.0.0.7.E R Y o.*.o.{ ..=.t.s.i.q.e.e.w.@. .{ U F U ",
"2.2.Y | o.Y o.O.7.U I R *.o.E ..{ =.y.g.y.q.4.3.5.@. .{ R E %.%.Y Y 2.7.9.E R I R ..%.%.....=.t.i.y.1.,.q.4.O. .m D U ..",
"2.3.2.Y Y Y Y T o.F D U o.*.%.o.F &.t.y.1.O.o.| #. .} | ..o.) *.| R Y o.T I I T R R *.*./ ] -.p.y.w.q.=.4.O.O. .U o.8.8.",
"M | U I T V N N V P T E ) %...*.&.t.9.=.=.8.q.q.2.o.| ..O.=.O.o.( T J I I I D Z o.O.=.&.%.-.:.t.<.=.=.8.=.O. .O.| | O.3.",
"Y Y Y R T R T ( E E %.*.%.Y { U &.<.8.O.o.O.O.,.q.2.o.| o.o.O...K D D I U T T J O.O.&.%.%.*.:.9.t.=.O.8.O.{ m Y { | 2.3.",
"R R R ..*.O.8.q.=.q.,.q.8.O.Y F &.:.*.R R o.O.=.q.8.o.{ U { ......U { | 2.8.8.=.q.3.&.*.&.=.=.=.9.O.O.8.2.o.Y m R o.=.8.",
"%./ .... .O.q.y.#.w.y.y.q.8.o.Y =.&.o.U U {  .O.3.3.O.{ { R { R |  .O.5.w.r.e.q.e.q.&.*.-.=.=.&.*.R Y *.8.2.2.| Y | O.O.",
"%.%.%.o.O.4.w.f.5.w.w.i.e.=...U &.=.o.T T Y O.8.O.2.O.o...{ { R }  .4.5.5.5.q.w.i.t.=.*.=.=.=.&.T I U o.8.7.2.2.{ o.o...",
"K %...o.=.w.e.r.r.i.g.i.t.,.&...%.*.%.Y Y o.8.8.| O.=.O.o...{ U O.4.5.6.6.5.w.e.i.q.8.-.-.%.-.o.U U o.8.8.O.| 2.o.o.{ o.",
"] .... .2.3.4.8.e.u.i.u.t.:.-.-.R %.o.Y Y 7.8.8.O.2.8.O.o.R { ..q.w.r.r.r.r.i.x.q.q.:.*.%.....X.R ..=.8.8.O.2.3.*.O...o.",
"....o.o.| Y Y Y Y o.o.*.-.-.-.-.U ) ) E E 2.8.8.4.3.=.O.| ..{ *.8.w.5.e.e.5.i.i.O.=.=...] K K .... .t.i.u.O.w.i.8.&.*...",
" .n U Y T ) ) ( ( ) R K -./ J J Z Z T R ;.i.i.i.w.q.q.q.&.] ] [ u.e.r.r.u.8.8.=.R *.*.R J / / Q T 7.s.x.g.1.q.0.9.%.] ..",
"O.U U o.Y E ) ( I E R K %.R G Z T R R E O.u.l.k.w.e.t.q.=...] %.2.2.2.o.O.o.Y U D ..R D D R / ~ Y =.s.x.g.y.i.e.t.%.K K ",
"o.U o.7.R U ) E I Y R K %./ D Z o.o.{ {  .y.k.h.i.f.i.t.=...R R o.o.o.Y Y E R D R / / G J / ) E o.3.i.j.c.h.f.r.t.&.F F ",
"| I o.2.Y Y 7.2.T %.R ] -.%.J / O.=.O.X.@.e.h.f.h.z.i.q.%.R T T 2.E Y o.;.7.%./ / -./ J U *.=.8.O.O.#.f.j.f.y.5.9.*.F ] ",
"{ U o.8.| Y o.o.O.=...] &.*...%.O.q.q.q.q.r.r.r.h.h.y.O.R R R ) Y R R o.;.7.*.*.%.-.R K F o.8.8.8.q.q.y.f.f.w.5.&.E U ..",
"o.U o.8.o.o. .| 7.8.X.] &.*.R %.O.q.t.e.e.y.i.u.i.i.q.o.U D R / | o.O.8.8.9.9.:.9.&.%.....&.=.q.q.8.u.e.i.w.w.4.R U U T ",
"o.U E q.3.3.q.4.8.8.<.=.t.:...%.X.8.8.=.&.8.9.9.O.3.8.o.R F R %.O.4.e.y.y.e.y.s.t.t.&.=.&.%.=.:.*.8.7.8.0.3.q.q.o.Y F U ",
"Y n Y 8.w.r.k.r.0.u.t.t.s.t...%.U ..o.Y R / *.;.| o.2.O.R F F K @.5.i.r.q.,.q.i.e.8.O.O.o.....-.T Y 7.7.o.2.O.3.O.T M U ",
"m m { w.f.d.f.j.e.w.4.O.8.0.*.J D R / R R ;.9.9.Y Y Y o.Y F ..=.4.r.l.l.y.y.t.<.=.:.=.%...K X.=.R R / *.7.( U ;.O.{ U U ",
"Y Y O.y.f.h.j.j.e.q.O...*.9.*.D J / R K J R / / Y R Y o.U F R *.5.r.f.h.h.z.p.-.*.=.;...F D R ..C T ) 9.a.%.J E E U U R ",
"{ { =.i.i.h.g.h.r.q.o.{ R E R D T E R K J R R R Y Y o.o.......;.e.e.w.r.j.x.t.%.*.*./ T D D J R J / R R *.E E 7.E o.o.o.",
"U R ..t.t.y.y.i.i.0.| U K R J G J R R E E / %.*.Y U Y R ..R ..9.q.u.q.i.x.b.t.R J T T J D D T ) / *.T T ) E E :.T R o.Y ",
"K F ..,.t.,.t.y.i.q...F F K J J D K R / / ) %.;.E I D n F F K -.8.q.q.q.e.i.t.%.T T T J V T R ) G ) *.;.9.*.F D D D I I ",
"] K ..-.9.,.9.t.t.O...R R J J J R D R / E R R %.7.I c c D K K %.*.8.,.=.,.q.&.E / / T J J J T ~ J ) ) / 7.o.D D L I I D ",
"$.^ %.%.*.%.o.&.O......./ K J J R J R / R J J E 7.R D J R K R K *.*...} O.=.*.R -./ R K J H K R *.9.R D T E Y E T D D D ",
"] K K ..R K R { ..{ F %.%.J J J T D R %./ R K ) E I D R / R H A -...{ U } =...J %./ K H H ^ ^ %.J *.( T *.*.T I P V z z ",
"%.A J ^ K C B Z F F F F ..%.K A ~ J G ^ / T I T Y U U T ( I R %.*.^ C Z J ~ R F ..%...%.K G H ~ ^ -.R J K o.R I Z Z V N ",
"F A D K J C B Z F F R K K %.%.H ~ C G J H D c L | U F V n B G K H J C C Z J R ..K K K / / H ! ^ ~ ~ K v D Y 2.m I L V x ",
"A x x J D u u G n F R H K R %.R ~ G J H K K I R 5.2.I F V B C ! A C B B B A R -.K A G ^ ^ ! J J H ..K F U 2.2.| D c c D ",
"q 9 q A u ; 0 Z A K K J A G ! ^ ~ Z J ^ %.....o.r.3.Y R J G G l A i u u N C J ..K A G ~ ^ ! G A F X.X... .8.3.2.n I I U ",
"x 9 q B 0 ; = s A K / J i C G J V G H ] &.>.X.O.@.{ Y F J C j a C 0 - < s C D F A A i Q ! G C v _ } ,.O.o.O. .U I U U R ",
"A u 6 0 u = = ; A H H G i y d d B G H &.>.,.,.X.| _ F R ^ H j y q 8 * * s Z H F B q i d W A A F _ &.1.,.X.&...b R R I R ",
"G q 4 0 s - - ; i G G G i i a i z G ] [ >.#.,.` _ F F ^ / H i 9 i 8 - , , B G G q u p a a i A F [ >.1.>.[ &.] S K D A F ",
"J 8 = 0 s , - , 0 i G G i d t t 6 B H ' [ +.` b ' A x D J d 9 2 i i s , < 6 B A i i s a a t v F [ >.>.' S S S h D A v A ",
"C i i j i u 8 @ = q i C d d u t ; 8 i A S S S x A A A i y j i 8 q q 9 * > , p u s W s * t t 8 q H w b ] f a ! H d j A D ",
"i u i i j i q = y u d d i t e * 0 - i h f g A 9 g g g 9 9 i i 9 v A g 8 t s s s < d , * e t 8 q f q v S e % 3 1 . + 1 6 ",
"0 0 y A k G i 0 y i i i t e * $ 0 8 y 9 5 f g 4 i i q 8 8 9 i 9 A G j i u s u t , s , & * y 8 q y 4 w g % o X .   X 1 8 ",
"; 8 8 i H G C u u t 3 t t 3 e , y 9 f 9 2 f g 4 y y 8 3 1 8 9 9 w A G i u p t * * t > $ 3 y 9 i r 8 f k r e r 3 r r f h "
};
