/* XPM */
static char *_5280_e36abfdf753e3fd104b065e129d7f4203cbed87996370d9ad5bc866be2d0fe9b[] = {
/* columns rows colors chars-per-pixel */
"60 60 256 2 ",
"   c #070602",
".  c #190C03",
"X  c #02150A",
"o  c #1B1309",
"O  c #181814",
"+  c #261608",
"@  c #27180D",
"#  c #052718",
"$  c #073018",
"%  c #302312",
"&  c #362616",
"*  c #131331",
"=  c #201E30",
"-  c #052925",
";  c #14322F",
":  c #043735",
">  c #292929",
",  c #2D342E",
"<  c #292736",
"1  c #373939",
"2  c #4E1E1D",
"3  c #492B15",
"4  c #6A351B",
"5  c #493426",
"6  c #583728",
"7  c #523832",
"8  c #673B28",
"9  c #6A3D34",
"0  c #054539",
"q  c #184738",
"w  c #364C3B",
"e  c #75421C",
"r  c #5A432C",
"t  c #4B4B39",
"y  c #5B4636",
"u  c #6A442A",
"i  c #764729",
"p  c #684B37",
"a  c #784A37",
"s  c #715236",
"d  c #78533C",
"f  c #160E47",
"g  c #1A174B",
"h  c #1C1A55",
"j  c #211B4B",
"k  c #231C58",
"l  c #152D54",
"z  c #2C2A48",
"x  c #393746",
"c  c #292657",
"v  c #353254",
"b  c #1D1967",
"n  c #231965",
"m  c #271C73",
"M  c #0C3961",
"N  c #2A2568",
"B  c #322968",
"V  c #30376D",
"C  c #2B2575",
"Z  c #35267A",
"A  c #3A3379",
"S  c #4B3C64",
"D  c #034A45",
"F  c #01574B",
"G  c #045956",
"H  c #135351",
"J  c #2E564E",
"K  c #365949",
"L  c #01655C",
"P  c #1C6756",
"I  c #2C695B",
"U  c #0A4A6D",
"Y  c #025965",
"T  c #2A5371",
"R  c #046A67",
"E  c #156864",
"W  c #047669",
"Q  c #026B73",
"!  c #057775",
"~  c #187772",
"^  c #286F6F",
"/  c #50524C",
"(  c #6D5048",
")  c #68574A",
"_  c #795746",
"`  c #586358",
"'  c #736456",
"]  c #535272",
"[  c #4F6B6A",
"{  c #686566",
"}  c #6D6F76",
"|  c #8F5332",
" . c #85543A",
".. c #A66439",
"X. c #865846",
"o. c #8F584E",
"O. c #896649",
"+. c #966648",
"@. c #896655",
"#. c #976958",
"$. c #927258",
"%. c #A86447",
"&. c #A97559",
"*. c #B07050",
"=. c #8D5B61",
"-. c #8D736D",
";. c #997A67",
":. c #A47767",
">. c #AF7C6E",
",. c #0B8778",
"<. c #358E79",
"1. c #6D827D",
"2. c #B28059",
"3. c #8D8377",
"4. c #988575",
"5. c #A4836E",
"6. c #A78A75",
"7. c #B78A76",
"8. c #B38E74",
"9. c #C79574",
"0. c #3A3387",
"q. c #36328E",
"w. c #43378D",
"e. c #463997",
"r. c #4A3BA5",
"t. c #2A4C8A",
"y. c #235E93",
"u. c #0F7A84",
"i. c #2C7190",
"p. c #52488A",
"a. c #4A4598",
"s. c #726E8B",
"d. c #4D45A7",
"f. c #7068A2",
"g. c #7A7DC2",
"h. c #807F83",
"j. c #058888",
"k. c #158788",
"l. c #069688",
"z. c #01948D",
"x. c #058A94",
"c. c #029B94",
"v. c #069897",
"b. c #169092",
"n. c #30908F",
"m. c #03A59B",
"M. c #2FAB9F",
"N. c #1199A3",
"B. c #2A88A4",
"V. c #11AEAC",
"C. c #30ADAD",
"Z. c #4C8886",
"A. c #73938F",
"S. c #44A696",
"D. c #76A699",
"F. c #62ABA8",
"G. c #06C4B9",
"H. c #30C6B8",
"J. c #49CEB6",
"K. c #63C5AF",
"L. c #1FB8C6",
"P. c #2CDED1",
"I. c #56D6CB",
"U. c #50F1D3",
"Y. c #6BE9D9",
"T. c #56FCE5",
"R. c #68F7EB",
"E. c #8E928C",
"W. c #B09387",
"Q. c #A69A96",
"!. c #8EA691",
"~. c #A2A29D",
"^. c #9894AC",
"/. c #90AEAE",
"(. c #B1ADA8",
"). c #B8B9B5",
"_. c #BCBCBC",
"`. c #C69786",
"'. c #D4AB97",
"]. c #CEB5AD",
"[. c #C6BDB9",
"{. c #9FCBBA",
"}. c #BBC3BF",
"|. c #C6C3BC",
" X c #D5C4BB",
".X c #F1C9B8",
"XX c #A8ADCF",
"oX c #BDBEC5",
"OX c #A3A4D4",
"+X c #C5BEC3",
"@X c #C2BFEC",
"#X c #9BDAD8",
"$X c #BCC6C6",
"%X c #B7CFCD",
"&X c #C4C4C5",
"*X c #CBC3C4",
"=X c #CBCBC5",
"-X c #C6C5C9",
";X c #C5CBCA",
":X c #C9C8C8",
">X c #CBCBCB",
",X c #D5CBC7",
"<X c #D2CCCC",
"1X c #CCD1CB",
"2X c #D3D3CE",
"3X c #D9D5CA",
"4X c #CCCCD2",
"5X c #CAC8D7",
"6X c #D5CCD3",
"7X c #CAD4D4",
"8X c #D4D4D4",
"9X c #D9D3D4",
"0X c #D7D7D8",
"qX c #D4DCDB",
"wX c #DCDCDC",
"eX c #E9D5CC",
"rX c #E2D9D9",
"tX c #D6E2DB",
"yX c #DDE1DD",
"uX c #E2E3DD",
"iX c #E9E4DD",
"pX c #F6E8DA",
"aX c #DDDDE2",
"sX c #D7D6E9",
"dX c #CBCFF0",
"fX c #E2DEE3",
"gX c #E9DEE8",
"hX c #E5DBFF",
"jX c #DDE3E2",
"kX c #DAE5E8",
"lX c #D9F0F6",
"zX c #E3E3E3",
"xX c #EAE5E4",
"cX c #E4E9E4",
"vX c #EAEBE5",
"bX c #E5E5EA",
"nX c #EBE6EC",
"mX c #E5EBEB",
"MX c #EBEBEB",
"NX c #F6EAE5",
"BX c #F3EBEC",
"VX c #EBF2ED",
"CX c #F2F3EE",
"ZX c #FBF5E9",
"AX c #EEEEF2",
"SX c #E9E8FB",
"DX c #F2EDF1",
"FX c #F9EDF5",
"GX c #EAF9F8",
"HX c #F4F4F4",
"JX c #FAF4F5",
"KX c #FCFCF5",
"LX c #F4F4FB",
"PX c #FBF7F9",
"IX c #F4FDFD",
"UX c #FDFDFD",
/* pixels */
"IXGX7X%XqXUXUXBX+X6XgXUXUXxX*X*XvXUXPXzX;X1XVXUXUX0X|.6XBXUXUX6X,XiXUXKXZX|.~.=XKXKXuX=X3XwXUXUX0X1X-XLXUXUX9X+X<XUXUXIX",
"IXVXtX$X7XHXUXFX4X+XfXUXPXxX2X<XxXUXHXzX$X2XVXUXHX3X6XgXUXUXBX<X~.E.-.{ 7 , @ > }  XvXyX).xXKXUXtX&X;XCXUXUXrX6X:XHXUXUX",
"jXwXCXMXAXqXqXjXIXMXcXwXwXxXMXBXxXrXwXcXIXVX0XrX3X<X(.-.) / & @ . . o o . o % O   . t 1.xXKXyX1XMXIXHXwX6XaXDXFXHXyXqXtX",
"&X6XPXUXHX>X$XqXUXUXcX>X&XwXUXUXzX_.&XMXUXUXvXE.o @ . . . . . @ % % % % % @ O @ o O .   o ` ).1XmXIXUXtX-X+XPXUXUX$X$X$X",
"eXgXgXFXvXjXqXkXcXVXkXtXwXzXMXHXbX9XwXmXCXcXZX!.  & + % 3 & + + + + + + & + @ o o % O o o O ~.yXyXmXmXjXaXaXMXkXVXqXyXtX",
"UXJX6X+XwXUXUXVX$X1XtXKXUXmX>X&XnXUXUXjX_.$XKX|.. + . 3 & 3 r s s ' $.3.4.& . @ O .   o o   (.UXtX;X7XGXUXUXwX4X;XIXIXIX",
"UXFX9X<X9XPXUXHX=X}.yXUXIXmX7X4XbXUXLXjX1X2XZX X+ 5 p -.5.5.8.8.6.6.5.5.5.p r % . + . + O   ~.UXqX;X4XmXUXUX8X>X$XHXIXIX",
"6X6XFXUXFX9X<X9XUXKXVX1XqXkXLXLXbX8X0XzXAXCXvX).. 9 4.:.8.5.;.5.5.5.5.$.5.4.6.r . + o o . . } xXtXIXHXjX7X6XDXIXUX9X7X8X",
";X;XIXUXLX+X:XrXUXUXxX:X;XjXIXUXaXoX;XmXKXKXpX(.y ( O.@.W.:.=.:.:.-.-.W.`.6.5.6 + + . + @ o { 2XvXUXHXjX+X4XJXUXUX>X&X-X",
"kXIXkXGXIXIXnXfXfXrXxXzXaXzXbXMXbXaXzXzXyXiXiX3X-._ $.&.#.-.>.>.>.X.6 '.NX'.6.s 8 i % + @   -.KXwXMXmXmXxXbXfXbXxXxXxXxX",
"IXA.Z.A.!.%XVXGX0X&XBXPXUXcX&X-XMXUXUXjX=X|.ZXZX-.6.pX.X2 =.W.-.>.=.9 `..X7.$.s a s % . @   { KX0X;X&XbXUXUX9X:X<XPXUXUX",
"kX- ; ; 0 0 [ GXoX4XgXJXUXxX>X8XnXIXHXuX1X=XZXZX$.4.eX9.=.=.=.( 9 =.>.:.:.o.@._ s s 2 . @ o { UXqX>X7XUXLXFXfX9X9XDXFXHX",
"%XJ : P F.S.<.K.lXGXSX6X<XfXUXUXxX>X8XcXKXUX3X X@.s @.+.`.=.9 9 4 _ :.o.#.O.#.d s d 6 +   . t jXyXIXIX7X;X8XDXPXPX9X<X>X",
";X< : ^ Y.Y.J.0 #XlXgX6X+XrXUXUXfX+X4XmXUXKX,X X' p _ #.=.9 9 a i a 4 X.+.+.X.u 8  .s 6 >   1 kXmXGXGX7X%X7XLXUXUX6X>X>X",
"sX; D E Y.U.U.J.M./.kXFXNXxXrX0XzXbXbXzXwX0XpXZX' d o.a 4 9 i 4 u a 4  .a a _ 9 8 d X.( @   w ~.A.1./.GXVXmXkXyXzXjXmXMX",
"UX$X[ 0 <.P.U.U.,.<.dXUXUXxX|.&XnXUXUXwX>X_.ZXKX4.r X.| a o.9  . .d _ d y 6 p y y ( t , # - - : J J [ lXIXGXqX;X>XUXUXUX",
"GXGXE.- 0 H.U.P.T.n.T SXLXbXqXaXtXLXAXbX6XgXnXbX{ / X.d X._ p p X.9 y t w K ; ; # - : - : D E ~ <.^ H {.GXSXfX9XyXcXVXVX",
"$XqXAXjXq F ,.T.T.I.B.F.%XkXUXLXCX$XoXDXUXUX5XJ I K / p r 5 5 5 7 7 w J I E 0 : : l D Y Y Q k.! ! Q G Z.dX$XGXUXUX1X=X1X",
">X6XPXUX1.0 R J.U.I.Y.Y D.LXFXUXiX[.9XBXIXIXZ.G ~ R P H H J K 7 7 ] K <.,.,.,.M.C.C.C.C.B.x.v.Q Q R E P K.7XGXUXUX,X>X*X",
"JXnXrX2XVXA.# G I.Y.I.I.Z.A.mX6XpXZXNX1XlX/.G ~ W W R R ,.~ J J / ` ^ ,.,.l.,.b.C.L.V.L.L.N.x.u.! R ,.E Z.GXqX9XwXBXPXAX",
"UXFX6X*X4XsXA.H ,.J.R.T.b.Z.#X).rXKXZXVX{.q D Q Q u.Q Q ,.,.,.I ^ ^ ,.c.m.c.! j.m.V.G.G.P.L.x.j.! W L E I qX7X+X+XUXUXUX",
"gXNXrXrXfXUXmX; : <.U.U.R.C.D lXIX3., w w # J I ^ ^ E Y ,.,.k.~ i.k.b.m.v.v.Q u.v.G.G.G.G.L.v.j.Q R H J ` } MXnXrXBXaXnX",
"*XwXPXUXUX).-XkXI 0 ,.Y.P.P.F.F.A.< X ; X w t { ` [ [ H ~ j.j.u.u.x.c.m.V.N.Y Y u.N.G.G.L.C.V.u.W P I / { ( eXUXJXqX$X5X",
"=X1XIXIXGX>X5XSX).J F M.P.T.R.~ # - J K $ & _ X.o.=.) J ^ b.z.z.z.c.m.m.m.b.Y U Y b.V.V.C.V.S.n.I ` ` ' _ ( W.NXPXjX%X%X",
"UXCX7X1XtXIXUXnXkX/.- D C.R.I.#XT I I # > 7 X.%.o.+.O.` P l.l.z.z.v.m.z.z.b.Y G G G n.M.S.F.D.A./ ` O.d O.d d ].,XHXIXGX",
"UXCX7X$X7XIXPXHX&XoX).: R C.Y.Y.D ^ [ X 5 a X.+.%.%.O.t P ,.z.z.c.v.v.z.z.k.Y G H F Z.D.D.!.!.!.1.u s  .i | 8 6.eXZXIXIX",
"zXzXvXzXbXrX0XBXMXmXVX} ; E K.S.F I / > 7 =.#.+.+.+.O.t E k.l.z.z.c.m.v.l.! R L F D K E.4.6.6.8.2.e e |  . .u 6 eXrXxXxX",
"|.9XPXUXUX>X:X0XHXHXmX0X/ $ $ $ <.P   & ( &.&.&.O.O.O.t P j.l.z.z.c.m.m.b.,.! G G D q 1.Q.8.&.>.9.| e | i i d 3 W.iX[.*X",
"6XwXDXPXMXrX:XrXUXUXmXK q $ <.<.P q t 5 O.&.&.$.$.$.' t ~ j.c.z.c.c.m.m.v.k.! G G F 0 / 4.5.7.&.9.8.i e i i s r y eX XeX",
"UXDXrX:X9XUXUXnX$X(.E.# $ w P I # & 5 e &.*.+...*.+._ / E l.c.c.x.v.m.m.v.j.! L L L D J ) &.7.9.7.9. .4 s u s p 5 Q.JXJX",
"UXDXqX%XqXHXUXBXuXE.X - [ J - - X o 3 &.&.*.....%.X.' [ ~ z.v.c.x.N.N.N.m.x.u.Q R L F H ` 4.>.W.7.9.>. .i 6 s r p ) NXKX",
"fXfXkXGXmXbX9X9XLX(.  ; # } /.1 ) u s 2.%.....*.%.X.-.!.! z.c.v.x.N.N.V.m.x.u.! R L L P E.E.-.W.9.7.'. .i u u r r 7 W.pX",
"-X&XUXUXHX:X>X8XUX8X} ` { E.{ ' ) _ >.%.%.%.*.%.*._ ,X{.W c.m.v.x.x.N.N.N.N.,.! R L R G !.<X-.W.8.8.9.2.| | 4 4 6 y p |.",
"wXnXmXHXMXwX8XwXIXHXwXxXCXQ.5 / @.d *.&.*.| *.>.o.6.CX!.~ v.z.N.b.N.N.B.b.b.u.! R R Y H D.nXQ.4.8.9.9.9.| 4 4 8 p y 5 W.",
"UXUX&X>XwXUXPXHX:X:XxXUXJXNXQ./ & 5 o.&.2.*.>.#.' ].tXD.u.B.u.B.B.i.i.i.i.B.y.~ ^ T E T } KX3X4.6.8.9.`.*.i 9 9 6 y -.ZX",
"UXIX:X&X0XHXUXUX&X&XwXHXUXrXeX+XQ.) 5 6 | &.#.=.].3X;X/.i.i.U U y.y.t.y.y.T M M M l l l [ KXZX).4.:.8.`.`.d 6 9 y (.KXZX",
"0X0XPXHXHX4X0XwXMXPXHXwX9XuXKXKXvX X3.( 7 X._ -.[.BXIXXXT i.V t.q.t.q.t.q.C M N c g j f s.AX6X[.4.;.W.W.W.4.2 -.rXpX3X3X",
"&X:XUXUXUX:X:X8XUXUXmX[.[.0XKXUXuX&X,XZXJXNX]. X+XHXGX%XV A C q.q.r.q.r.q.t.N N n k k * E.LX[.[.[.eX].].(.Q.Q.UXUX[._.,X",
"cXzXcXrXyXzXzXMXmXzXMXwXMXzXtXvXmXjXrXxXNXNXeXiXxXAXmXdXdXOXa.t.q.q.q.r.q.C b N k A f.] ^.LXbXxXNXKXgXNXrXFXDXFXfXxXMXuX",
"UXUX-X:X0XUXHXHX&X).mXUXPXAX>X$XkXUXUXwX|.|.KXUXUX:X$XsXlXg.m q.r.r.r.r.q.m C N f ] @XhX6XfXUXUX3X[.|.FXFXFXaXoX-XUXUXPX",
"UXHX8X>XwXHXUXPX>X<XzXPXUXbX4X4XAXUXIXwX2X1XZXZXHXyX-XsXXXA e.p.e.e.r.e.b q.b h n c f ^.5XaXUXUXyX|.uXvXUXIXaX;X1XHXKXKX",
">XwXHXUXPX8X&XwXUXUXMX>X5XgXUXUXsX$X4XCXCXKXcX|.8XBXUXUXdXp.w.w.e.r.w.m m V h l h c B ^.UXnX&X6XyXUXcXyX;X7XIXUXUX7X1X=X",
";X>XPXUXBX;X=XwXUXPXMX>X5XgXPXUXbX-X>XuXKXKX3X|.=XMXUXLXg.0.w.e.r.e.0.m C n h c g c c f.UXaX+X_.KXKXKXtX&X;XGXUXIX;X|.1X",
"MXzXxXwXmXuXmXmXcXwXxXbXgXgXgXfXzXMXMXuXuX2XcXIXfXbXSX^.A Z e.r.w.Z n C B h g c c c f v ^.LXmXAXcX2XiXuXcXvXwXvXwXVXcXvX",
"UXHX8X_.wXHXUXPX&X&XyXUXUXnX-X-XzXUXUXuX).>XIXUXLXSX^.w.0.w.w.e.w.Z n B B h g c k k f j j oXIXUXwX|.:XvXUXUX<X4X}.UXUXUX",
"MXBX0XwX0XBXHXHX>X0XxXHXPXzX8X9XBXCXvXwX2XjXmXkXIX@Xp.A w.r.w.0.Z Z n Z c j c c j j k j * ] sXLXbX9XyXvXJXCXwX9X9XmXHXHX",
">XwXCXUXHX8X&XwXHXUXMX;X>XyXUXUXuX|.>XCXUXGXsXdXdXf.A a.q.d.e.0.m m n j g h c c j j k g c * ] sXfXUXJXiX=X<XJXUXUX0X>X>X",
">X8XPXUXIX:X&XwXUXUXMX:X:XuXUXUXiX|.1XvXUXIXhX@Xg.0.e.e.e.e.q.Z n Z m k k l c g h k k k f z * s.UXUXUX9X*X,XFXUXUX4X&X4X",
"IXHX8X0XwXMXPXMX0X8XzXCXAXmXwXwXxXHXVXrX0XsXLXOXw.r.r.r.r.e.m m Z n m k h B B B N f h n j = < z ^.xX0XxXPXvXuX2XwXCXHXHX",
"UXHX8X&X0XHXUXHX&X:XwXUXUXbX-X&XyXKXPXzXoXdXdXa.w.r.e.d.e.n Z m n B f B B k ] p.N N N f = v < = < (.:XDXUXKX2X:X&XPXUXUX",
"MXcXxXwXfXvXmXMXwXwXrXAXLXbXaXwXvXCXvXzXgXdXp.S A r.e.e.Z n m n B k j j B f.N A p.k N g = < < < > } nXcXvXMXuXuXwXbXMXAX",
"&X8XUXUXHX>X>X8XUXUXAX:X-XaXUXUXiX}.=XvXFXQ.] s.] B f.N n B k h B c j f OXLX] S A ] c g z = z > ` LXUX9X&X=XKXUXUX4X-X4X",
":X0XUXUXHX4X8X8XUXHXMX4X5XbXUXIXwX&X2XAX+X{ { } } } ] c c c c c g c = f.SXLXLX] ] ] ] z z , > x cXUXUXwX2X1XHXHXUX4X6X6X",
"PXMXyX&XrXCXHXAX8X4XjXPXLXDX0X>XMXUXCX[.` } } { } s.< z z z z v z * } SXSXdXsXXXs.] p.} < = x aXDX:X>XHXKXCXwX0X0XHXLXIX",
"UXHX8X&XwXPXUXHX&X:XwXUXUXbX&X_.MXUXmX(.1 { } { } 1 > 1 x z z z K < 5XUXSX5XoXLXSX+X^.s.{ x aXUX8X8X&XvXUXIX8X:X-XLXUXUX",
"cXMXwXMXwXxXmXcXzXxXcXrXzXmXMXvXzXzXnXnX).> O / 1 7 , 1 x x x x = ^.LXaXcXaXLXbXaXIXMXAXaX9XAXzXMXwXBXzXzXxXcXjXbXMXAXfX",
"_.8XUXUXHX;X:X0XUXUXAX:X&XuXUXUXzX;X>XfXUXHX{     > 1 , , 1 1 , ` UX&X:XyXIXUXHX$X1XzXPXUXbX:X&XbXUXPXuX&X:XAXUXUX>X-X5X",
"0XwXDXHXPX0X>XwXHXPXAX=X1XcXKXPXwX:XwXLXAXUXaX^.1     , , 1 > 1 JXBX0X=X3XCXKXHX=X1XzXHXHXxX>X1XCXUXMX0X>XwXAXPXPXzX0X7X",
"UXBXqX>XwXMXUXHX>X:XuXUXKXiX>X1XMXUXLXaX4X6XnXUXfXh./ O = > > ~.8X0XVXKXKX8X|.uXCXUXvX1X:XmXUXPXzX:X8XHXUXPXaX:X>XDXUXUX",
"UXIX<X&X8XUXUXPX_.:XwXUXUXcX|.|.mXUXLXaX4X5XLXUXUXsX6XoX~.` 3.CX).3XKXUXZX1X}.uXUXUXvX&X&XvXUXUXzX_.:XHXUXUXwX;X-XUXUXUX"
};
