/* XPM */
static char *d3d7abf49a9d42afc1c6c091c823daaaWSyeeHq1rAIUeYAt[] = {
/* columns rows colors chars-per-pixel */
"60 72 206 2 ",
"   c None",
".  c #040B0A",
"X  c #190F05",
"o  c #160F06",
"O  c #1C1206",
"+  c #1F1408",
"@  c #1B180E",
"#  c #061B17",
"$  c #121212",
"%  c #191816",
"&  c #05130F",
"*  c #201506",
"=  c #221609",
"-  c #261A0A",
";  c #2A1C0C",
":  c #321E12",
">  c #06211C",
",  c #09231F",
"<  c #14241B",
"1  c #2E200F",
"2  c #3B2612",
"3  c #382616",
"4  c #392711",
"5  c #092621",
"6  c #092A24",
"7  c #032C2C",
"8  c #0C2E28",
"9  c #042725",
"0  c #0A322B",
"q  c #033232",
"w  c #0A3D37",
"e  c #172723",
"r  c #2C2C2D",
"t  c gray14",
"y  c #343434",
"u  c #3A3A3B",
"i  c #332A2B",
"p  c #492E1D",
"a  c #473414",
"s  c #422F25",
"d  c #473426",
"f  c #553325",
"g  c #5A3A29",
"h  c #543D31",
"j  c #643E2A",
"k  c #693E2F",
"l  c #733F32",
"z  c #6C3E30",
"x  c #0E4037",
"c  c #12493F",
"v  c #10433A",
"b  c #5F471B",
"n  c #5D4837",
"m  c #584B23",
"M  c #66402B",
"N  c #6C432C",
"B  c #73472F",
"V  c #674837",
"C  c #744433",
"Z  c #754A31",
"A  c #7A4D34",
"S  c #7E5136",
"D  c #7E513A",
"F  c #1C1849",
"G  c #1F1A50",
"H  c #211C4D",
"J  c #211C54",
"K  c #241E5B",
"L  c #26205E",
"P  c #292359",
"I  c #2F2D44",
"U  c #271F61",
"Y  c #272061",
"T  c #292264",
"R  c #2C246A",
"E  c #332A7A",
"W  c #312975",
"Q  c #034C4C",
"!  c #034545",
"~  c #134D42",
"^  c #1F4943",
"/  c #145145",
"(  c #15564B",
")  c #18564B",
"_  c #035454",
"`  c #035B5B",
"'  c #085251",
"]  c #135851",
"[  c #255D59",
"{  c #1B635B",
"}  c #166658",
"|  c #036464",
" . c #036C6C",
".. c #1C7D6C",
"X. c #1B7365",
"o. c #037474",
"O. c #037C7C",
"+. c #097070",
"@. c #1D736D",
"#. c #5B5645",
"$. c #545647",
"%. c #5D5D5D",
"&. c #4B594D",
"*. c #6D4F40",
"=. c #6B5444",
"-. c #735343",
";. c #7B5A49",
":. c #746252",
">. c #55516F",
",. c #6F5478",
"<. c #656565",
"1. c #6B6B6B",
"2. c #68676B",
"3. c #6B6A70",
"4. c #496153",
"5. c #804C38",
"6. c #815137",
"7. c #845439",
"8. c #8B593C",
"9. c #88573C",
"0. c #915C3F",
"q. c #895C44",
"w. c #945E42",
"e. c #926246",
"r. c #9C6344",
"t. c #99664A",
"y. c #976B54",
"u. c #9C725C",
"i. c #89614E",
"p. c #A06547",
"a. c #A46949",
"s. c #AC6D4B",
"d. c #A26748",
"f. c #B2724E",
"g. c #A3735B",
"h. c #AB775E",
"j. c #B67450",
"k. c #A06D53",
"l. c #9F7662",
"z. c #946C6C",
"x. c #A17661",
"c. c #A57A64",
"v. c #AB7C66",
"b. c #AB7E68",
"n. c #A97965",
"m. c #B07D6E",
"M. c #21847B",
"N. c #AD8169",
"B. c #AB8065",
"V. c #B2846C",
"C. c #B8866C",
"Z. c #BB8B72",
"A. c #B38B77",
"S. c #C18E74",
"D. c #C59177",
"F. c #C79378",
"G. c #C99479",
"H. c #372D83",
"J. c #3B318C",
"K. c #393087",
"L. c #3E3395",
"P. c #3F3498",
"I. c #4E3982",
"U. c #42369C",
"Y. c #41389D",
"T. c #523C81",
"R. c #4539A4",
"E. c #463AA7",
"W. c #0D7783",
"Q. c #504990",
"!. c #038484",
"~. c #038C8C",
"^. c #039393",
"/. c #039B9B",
"(. c #0F9A99",
"). c #0C8994",
"_. c #238B82",
"`. c #229480",
"'. c #29A799",
"]. c #25A28B",
"[. c #03A3A3",
"{. c #03AAAA",
"}. c #03BBBB",
"|. c #03B7B7",
" X c #1CB6B3",
".X c #34B9B1",
"XX c #64A599",
"oX c #31C5BC",
"OX c #03C4C4",
"+X c #03C9C9",
"@X c #35D3C9",
"#X c #37F3D3",
"$X c #39F6DC",
"%X c #37EED4",
"&X c #3BEAE2",
"*X c #3DFBEC",
"=X c #3AF6E2",
"-X c #3FFDF4",
";X c #40FFF9",
":X c #40FEF7",
">X c #BB9889",
",X c #BAB1C9",
"<X c #D2CAD2",
"1X c #E9E0DC",
"2X c #DEDBE4",
"3X c #F2F2F2",
/* pixels */
"                                                                                                                        ",
"                                        + 1 1 =                                                                         ",
"                                    = + + - 1 1 - - ; = - O                                                             ",
"                                O O = = - 1 = = ; ; ; ; - * * * = - -                                                   ",
"                            X X O O O * - - - - - ; - 1 - + * = * - - -                                                 ",
"                            X o o O O O = - ; ; ; - 1 1 1 4 2 4 : - - -                                                 ",
"                            X O O + + o + 1 ; B.c.B.i.V 2 2 2 4 4 - - -                                                 ",
"                            O X O + O O + ; 1 B.B.V.B.A.A.V.V.B.i.g ; -                                                 ",
"                            O X + + + * 2 c.g.v.n.n.m.A.Z.b.V.m.g.k.m 1                                                 ",
"                            X O + + + * d g.h.v.b.x.x.l.l.y.x.m.g.k.p 1                                                 ",
"                            X = + + - f m b.>X<X>Xz.l.n.x.y.u.m.y.e.e.q.                                                ",
"                          X X = + = Z C V b.>X3X2XI.,.n.n.b.z.z.g.t.e.e.                                                ",
"                          X O O + - Z Z 5.k.A.1X,XI.,.h.v.m.z.I.<X3XB.l.                                          v     ",
"                          O O O + : B S q.w.d.h.n.m.i.z -.y.,.I.2X3XB.u.                                  ~ ~ ~ ~ c 0   ",
"                          X O + = 2 Z 6.8.w.p.n.m.m.i.z j j g.C.e.r.S 9.                                  ~ ( X./ c 0   ",
"                          X O + ; N A z 5.w.w.w.5.l l z k k k.V.r.r.A Z                                 ~ =X*X%X( c 0   ",
"                          + O - g q.A N 7.8.0.0.A l l l l l l l 9.9.A A                                 ~ &X*X=X( ~ 0   ",
"                    w 7   @ + ; M A B j N N N N A A C C l l l l 9.9.S A                             ~ ( -X#X#X-X( ~ 0   ",
"                  O.O. .q q q 9 i B N j N N N N A S S S A A S S D 7.A A                             c ( -X$X%X_.0 w     ",
"                  o.O.M.!.! q q q e 3 : 2 s m N A S S 6.A Z S S D D Z Z                           ~ oX:X#X-X&X~ 0       ",
"                | | o.!.!.!. .q q q 7 9 q w O. .| d g f f g C Z S S B n o.                        ~ oX-X$X.XM.0         ",
"                 .|  . .!.!.!./.{./.o._ 7 ! ~.!.O.M B M p p _ ^ ( +. .M.+.                      ~ ;X=X#X-X} ~ 0         ",
"                O. . . . .!.!.|.|.}.+X+X}.O.^.^.^.@.V N j g  . .`  .o.o.o._                     / -X=X=X'.v w           ",
"              o.O. . . .+.!.^.OX}.OX+X}.[. ././.^.~.n M j o.!.M.|  .o.O.o._                 ~ { ;X#X*X-X~ 0             ",
"              o.o.|  . .O.!.+X+XOXOXOX{.o.o.[.[.^.^.4.n n O.!.W.`  .o. .O._ .               ~ X.-X=XoX_.0               ",
"            =.o. .|  . .!.~.+X+XOXOX}./. .o.[.[.[.^.~.!.O.~.~.M.` o.O. .o. .. 5 6 ,       ~ @X:X#X;X_.~ 0               ",
"            6.9.{ | | o.!.{.}.+X+XOX|.~.` | [.[.[./.~.~.M.~.~.W.` | ..q.=.=.$ 5 8 # &     X.@X*X*X_.~ 0                 ",
"            6.9.8.&.| M.O.}.OX+XOX}.{._ _ _ [.[.[./.^.!.!.^.~.!.` 4.8.w.-.-.s 5 { w 5 & ~ :X$X$X;X/ x 0                 ",
"          6.6.7.8.8.q.O.^.|.+X+X}.{.~._ ` ` /.[./.[.^.~.!.^.~.!.$.0.w.w.q.*.h , } ~ w # '.=X*X&X} 0                     ",
"          A 6.7.9.8.5.5.XXXX.X.X X(._ Q _ _ ^.~.~./.[.^.!.^.O.o.#.w.r.w.w.-.V 3 5 ....0 -X#X*X&X~ 0                     ",
"        j C A 6.7.9.A 9.D.S.S.Z.N.l.Q _ ` _ ^.^.^.[./.^.!.^.O. .#.w.w.p.w.w.*.d 5 ....0 #X-X_.~ 6                       ",
"        N N A S 6.A A C.D.Z.Z.C.b.&.Q _ |  .^.~.~.[./.^.~.^.~.o.#.0.p.a.t.t.*.n 5 ....0 #X;X_.~ 0                       ",
"        N B A A S Z A D.Z.b.Z.N.u.Q _ _ |  .^.~.~.[./.^.~.^.~.o.#.w.r.d.a.s.p.V i > / ].0 0 > &                         ",
"      j j B A A A C u.D.N.b.Z.b.:.Q Q _ ` | ^./.[.[.^.~.^.^.~.o.$.w.p.a.s.f.j.*.h < c M.v v < &                         ",
"      M N B A A C N D.S.b.V.V.y.' Q _ _ | | ^./.[.[.~.^.^./.~.o.$.9.r.a.a.a.f.t.n b m 8 ].M.v 8 >                       ",
"    N M N C N B A q.D.Z.V.Z.x.:.| _ ` |  .O.^./.[.[.^.~./.^.~.O.n D r.a.r.r.f.j.V a 2 # } c ) ) , ,                     ",
"    N N N B M B A Z.D.D.Z.Z.u.[  .` | | o.!.^./.[.[.^.^.^./.~.O.&.6.w.a.p.r.s.j.a.d ; o 8 8 } @.8 ,                     ",
"    N N N j M B A D.F.Z.Z.b.y.`  .` ` | o.O.^.[.{.[.~.^.^./.^.O.  9.0.a.s.r.r.j.j.-.d V V   0 0 8 >                     ",
"  j M N M j j B v.D.D.S.Z.g.  |  .` | | o.!.{.[.[.[.^.^.^./.^.M.  6.w.a.s.a.p.s.j.y.-.;.*.-.8 0 8 ,                     ",
"  M j N j j N B F.F.D.Z.Z.N.   . .` | | o.O.[.{.[.[.~.^./././.W.    r.a.s.s.p.p.j.j.-.;.-.-.                            ",
"  j j M g j N e.G.D.D.Z.Z.v.  | o.` | o.O.O.^.~.^.~./././.^./.!.    r.d.s.f.a.j.j.j.-.k k V                             ",
"    j N j j N D.G.D.N.b.Z.     . .| | O.O.O.^.^.^.~./././.)./.!.      d.s.s.j.f.s.j g f g                               ",
"      j M N A F.D.D.N.Z.C.    Y T J P R L P P.P.U.P.P.L.U.E ^.!.      d.s.s.f.6.g k k                                   ",
"        j N g.V.D.Z.N.B.      Y R J J R K L U.Y.P.P.L.L.U.E ).!.        s.p.j j g f                                     ",
"          M V.Z.G.N.N.c.      Y T J P R R R P.L.L.J.J.L.L.L.E W.                                                        ",
"                              T T J J L T R J.Y.U.P.P.P.J.L.E W.                                                        ",
"                                    L J J R R R.R.R.R.P.L.W                                                             ",
"                                    T L J L R W R.U.R.R.U.L.R.                                                          ",
"                                  R T K J J R R P.R.R.R.U.P.E.                                                          ",
"                                T T T J J T T R T E.R.R.R.R.R.                                                          ",
"                                  T T J H T T R R E R.R.R.U.R.                                                          ",
"                                K K T T J J T R R R Y.R.R.R.R.R.                                                        ",
"                              J J G K T J J K T T R R E.Y.U.J.P.Y.                                                      ",
"                              K J F F T T H J T T T T K.R.K.H.I.R.                                                      ",
"                            J J F F J K T K G J T T T T Y.R.R.R.R.R.                                                    ",
"                          J J K G F J J T T J J L R T R R E.E.E.R.R.Y.                                                  ",
"                          J J J J J J J K U U J G Y Y R T L.E.E.R.R.R.                                                  ",
"                        r r J J J J J J W R U J H P T Y T R E.E.R.R.R.R.                                                ",
"                      r r r r K J J J J U.U.U U G H Y R T T E E.E.E.E.R.U.                                              ",
"                      r r r r J J J J U.U.U.E U P G L Y Y T T P.E.E.E.R.E.                                              ",
"                    y r r r H G J J E R.Y.U.P.Y Y L Y Y T T Y T E.E.E.E.R.E.                                            ",
"                      r r r r J J K R.R.Y.U.    Y Y Y T Y Y T T K.E.E.E.Q.,.2.                                          ",
"                        r r r t H U.R.Y.>.      L Y Y Y Y Y Y Y T Q.3.1.1.1.2.                                          ",
"                          r r r >.1.<.<.<.        Y Y Y P Y T T y m 1.1.1.1.1.2.                                        ",
"                          r r u 2.<.<.%.          L U I y y U y u y %.1.1.1.1.2.<.                                      ",
"                            r <.<.                  y y y y y y y y y 1.1.1.%.r                                         ",
"                                                      y y y y y y y y u r $ $                                           ",
"                                                      y y y y y y y r $ $ $                                             ",
"                                                        y y y y y t $ $ $                                               ",
"                                                        y y y y % $ $                                                   ",
"                                                          y y $ $                                                       ",
"                                                                                                                        "
};
