/* XPM */
static char *image_removebg_preview__1_1671042326[] = {
/* columns rows colors chars-per-pixel */
"60 64 203 2 ",
"   c None",
".  c #0A0607",
"X  c gray11",
"o  c #461A21",
"O  c #4F3E30",
"+  c #742C35",
"@  c #5B4C3D",
"#  c #453F40",
"$  c #525351",
"%  c #5D5B5B",
"&  c #5F5F5E",
"*  c #6C6050",
"=  c #646161",
"-  c #6A6868",
";  c #6A6969",
":  c #6F6C6C",
">  c gray43",
",  c #757474",
"<  c #767474",
"1  c #797875",
"2  c #7E7A7B",
"3  c #7E7C7C",
"4  c gray50",
"5  c #953D4C",
"6  c #844D56",
"7  c #9F4252",
"8  c #A74152",
"9  c #A44A5A",
"0  c #B24154",
"q  c #BB4558",
"w  c #A0505C",
"e  c #995D67",
"r  c #A35C66",
"t  c #B35B69",
"y  c #94666C",
"u  c #8E7167",
"i  c #8C7A65",
"p  c #876C72",
"a  c #956D73",
"s  c #8E777A",
"d  c #807F7F",
"f  c #99747B",
"g  c #A0666E",
"h  c #A9646E",
"j  c #B8606D",
"k  c #A76F76",
"l  c #B86571",
"z  c #A07A7F",
"x  c #C35263",
"c  c #C65A6A",
"v  c #CC6070",
"b  c #CD6977",
"n  c #C36C79",
"m  c #D36B7A",
"M  c #D76E7D",
"N  c #918573",
"B  c #967E82",
"V  c #808080",
"C  c #848484",
"Z  c #868585",
"A  c #878686",
"S  c gray53",
"D  c #8B8385",
"F  c #8E8284",
"G  c #8B8A89",
"H  c #8B8A8A",
"J  c #8D8B8B",
"K  c #8C8B8C",
"L  c #8F8B8C",
"P  c gray55",
"I  c #8F8E8E",
"U  c #978F82",
"Y  c #91898A",
"T  c #918D8C",
"R  c #919091",
"E  c gray57",
"W  c #929191",
"Q  c #959091",
"!  c #959393",
"~  c #969593",
"^  c #949394",
"/  c #959494",
"(  c #979595",
")  c #979795",
"_  c #979596",
"`  c #979797",
"'  c #999797",
"]  c #989897",
"[  c #9A999A",
"{  c #9A9A9A",
"}  c #9F9A99",
"|  c #9E9D9E",
" . c #9D9E9E",
".. c #9F9E9E",
"X. c #A08486",
"o. c #A39295",
"O. c #A59E90",
"+. c #A6999C",
"@. c #A09D9D",
"#. c #A09FA1",
"$. c #A99FA3",
"%. c #9FA1A1",
"&. c #A0A0A1",
"*. c #A2A0A0",
"=. c #A1A1A2",
"-. c #A1A2A2",
";. c #A3A2A4",
":. c #A4A5A5",
">. c #A7A8A7",
",. c #A9A8A3",
"<. c #A5A6A8",
"1. c #A6A6A9",
"2. c #A6A6AB",
"3. c #A9A9A9",
"4. c #ACABAB",
"5. c #A8AAAC",
"6. c #AAAAAC",
"7. c #ABABAC",
"8. c #A9ABAE",
"9. c #AEADAD",
"0. c #AFAFAD",
"q. c #AEAEAE",
"w. c #BEA5A6",
"e. c #B7B4AE",
"r. c #B1B0B0",
"t. c #B0B1B3",
"y. c #B3B2B2",
"u. c gray70",
"i. c #B4B6B1",
"p. c #B1B3B4",
"a. c #B2B3B5",
"s. c #B3B3B5",
"d. c #B4B4B4",
"f. c #B5B4B4",
"g. c #B6B4B4",
"h. c #B5B6B6",
"j. c #B5B6B7",
"k. c #B6B6B6",
"l. c #B9BBB5",
"z. c #B7B6B8",
"x. c gray72",
"c. c #B9B9B9",
"v. c #B9BAB9",
"b. c gray73",
"n. c #BBBBBA",
"m. c #BBBBBB",
"M. c #BABCB9",
"N. c #BABCBC",
"B. c #BABEBD",
"V. c #BCBCBC",
"C. c #BDBCBD",
"Z. c #BDBEBE",
"A. c #C1888E",
"S. c #C2B5B3",
"D. c #C0BDBE",
"F. c #BEC0BC",
"G. c #C1C1BC",
"H. c #C0C0BF",
"J. c #C3C3BE",
"K. c #C1C4BE",
"L. c #BBBDC1",
"P. c #BEBFC1",
"I. c #BFC0C1",
"U. c #BEC1C3",
"Y. c #C6C7C1",
"T. c #C5C5C2",
"R. c #C4C4C3",
"E. c #C1C3C4",
"W. c #C2C4C5",
"Q. c #C3C5C7",
"!. c #C7C9C7",
"~. c #CACCC6",
"^. c #CBCDC7",
"/. c #C0C4C8",
"(. c #C1C4C8",
"). c #C1C5C8",
"_. c #C6C8CB",
"`. c #C6CBCF",
"'. c #C8CACC",
"]. c #C8CBCE",
"[. c #CBCCCF",
"{. c #CBCECF",
"}. c #CED1CC",
"|. c #D7D3C9",
" X c #D1D3CE",
".X c #CDD0D2",
"XX c #D3D6D0",
"oX c #D4D7D1",
"OX c #D0D3D6",
"+X c #D7DAD4",
"@X c #D5D8DD",
"#X c #DADDD8",
"$X c #DCE0D9",
"%X c #E0E1DB",
"&X c #E1E4DE",
"*X c #E5E7E1",
"=X c #E4E8E2",
"-X c #E7EAE4",
";X c #E9EEE6",
":X c #EBF0E9",
">X c #EDF2EA",
",X c #EEF3EB",
"<X c #EFF4ED",
/* pixels */
"                                          1.                                                                            ",
"                                          ].1.P                                                                         ",
"                                          ).o.y F ^                                                                     ",
"                                          L.r.l l a '                                                                   ",
"                                          7._.k m b g Q                                                                 ",
"                  9.k.W.).U.a.              {.+.t M m g Q                                                               ",
"                  &.B o.$.k._..X).&.        )._.f c M b a ^                                                             ",
"                  / g b j r a +.)..XL.        OXr.e v M l F                                                             ",
"                    s b M m c 9 f k..XU.      L.{.o.9 v b a /                                                           ",
"                    D h M M M v 0 e 9..XU.      {.U.f 0 c g ~                                                           ",
"                      s l M M M v 0 e r..Xa.    f..Xt.e q w T                                                           ",
"                      K s l M M M c 0 a m.{.      {.W.o.8 8 Y                                                           ",
"                        / s h m M b q 8 o.W.Z.    a.'.r.e 5 Y                                                           ",
"                          ^ F a l m x 0 e k.W.      8.8.;.B Y                                                           ",
"                              T F a w 0 8 +.U.r.  b.'.'._..Xk.3                                                         ",
"                                  / Y p 6 p b.x./ V.V.m.V.b.Z.P                                                         ",
"                                      | | C :.Z./ S E { 2.%.:.9.{ &.                                                    ",
"                                        T %.` k.k.3.&.* & C V { ' > > ;.                                                ",
"                                            E r.Z.Z.3.C p.F.t.:.~ ^. X!.a.                                              ",
"                                            4.N.V.b.F.#XM.l.$XW.Y.=XY.&XOX&.                                            ",
"                                            P.m.V.b.oX^.^.}.Y.+XR. Xl.G.+XW.                                            ",
"                                          s.Z.m.b.b.oXK.|.=X X XR.b.oX$XG.}.&.                                          ",
"                                          a.Z.b.Z.V. Xe.i |.#X^.R.r.U G.G.^.|                                           ",
"                                          z.m.r.3.>.k.] O * F.^.R.b.1 @ } 9.'                                           ",
"                                          / 3.G.oX$X#X^.O.N &. Xu.@.z u ]  X&X%Xr.                                      ",
"                                          ~ %X>X,X>X>X,X,X&XK.F.V.w.n A.S.^.>X,X$X                                      ",
"                                          %X>X>X>X>X>X>X>X>X-X&X>X-Xw.A.;XJ.=X>X=X&.                                    ",
"                                        E.;X>X>X>X>X>X>X=XP S -X<X<X$XJ.#XK.;X>XK.T                                     ",
"                                        ] #X:X>X>X>X>X,XY.X . > F.+Xi. .F.&X>X&XT           1.                          ",
"                                          k.oX<X>X>X>X>X$X# . . X ` l.Y.:X>X;Xl.        a.a.&.E k.                      ",
"                                            b.+X>X>X>X>X:XX.+ o . & f.$X>X-XW.        5.N.>.k.| :.@.                    ",
"                                                Z.=X>X>X,X^.w 8 o $ +X;X#XZ.          0.V.P > V P 8.                    ",
"                                        L.q.8.%.^ %.F.#X&X:XS.k F ~.+XP.;.              Z.9.1 > 1 3                     ",
"                                      _._._._.`._.W.| P { 3.>.l.e.} E                   9.a.3.r.Q                       ",
"                                    /.W.b.a.8.j.b.N.b.9.] C C &.:.r.P.U.                T k.u.4.                        ",
"                                  a.W.b.b.R N E &.i.l.V.V.0.V.#X#X=X:X,X=X9.            k.m.{                           ",
"                                  P.m.m.k.      , J / 3.N.a.^.>X>X>X>X>X;Xl.b.        k.Z.m.'                           ",
"                                9.Z.m.b.@.          : C b.k.F.>X>X>X>X>X>XK.>.{.).    P.m.b.^                           ",
"                                b.m.b.#.                b.b.f.;X>X>X>X>X>Xl./ N.R.P.3.E.m.k.                            ",
"                              7.b.b.;.                  Z.l.f.-X>X>X>X=X X] P r.b.k.x.m.Z.7.                            ",
"                          q.m.m.b.|                   &.E.k.F.>X>X>X>X=Xk.&., P :.b.b.b.b.@.                            ",
"                        #.E.m.m.b.|                   a.P.r.#X>X>X>X,X,X-X-X,.  3 ' 9.b.9.                              ",
"                        ^ 8.b.m.m.u.                  3.b.k.;X>X>X>X>X>X>X>XoX      3 P                                 ",
"                        = A k.q.m.9.          r.&.  { a.k.K.>X>X:X>X>X>X:X>X*X                                          ",
"                          , C E ,.,       G.#X-XXXH U.Z.r.i.$X;X>X>X>X>X>X>X:Xu.                                        ",
"                              2           }.<X<XXXk.F.b.k.k.N.N.^.=X>X>X>X>X:XY.                                        ",
"                                        9.&X:X;XN.W.m.m.b.N.U.{._.N.oX:X>X>X>X~.                                        ",
"                                          &X=X'.8.W.b.b.b.Z.m.N._.OXU.!.:X>X>XY.                                        ",
"                                          a.{.W.8.I.m.m.m.m.m.m.b.E.@XW. X>X:XZ.                                        ",
"                                            &.1.P u.m.m.m.m.m.m.b.b.E.@XN.oX*X                                          ",
"                                              { H E k.m.b.m.m.m.m.m.b.'.OX8.D.                                          ",
"                                            b.Z.k.C E r.b.m.m.m.m.m.N.N.@X2.                                            ",
"                                          Y.Z.m.Z.r.C S { 3.a.b.b.b.m.m.OXE.                                            ",
"                                          R.m.m.b.r.9.S V P E { k.b.m.m..XG.                                            ",
"                                        L.U.m.V.1.C &.k.{ 4 C P u.m.m.m..X                                              ",
"                                        ).m.m.b.'   d #.b.e./ V r.m.m.Z.[.                                              ",
"                                        W.b.m.k.        { r.P. .u.m.m.W.m.                                              ",
"                                      8.U.b.m.r.            ~ T b.m.m.x.                                                ",
"                                      ;.E.b.m.k.H H           / m.m.9.K     { '                                         ",
"                                      K b.b.b.k.3.P           ' m.m.u.k.b.m.m.b.b.9.J                                   ",
"                                        %.b.b.&.e.:.%         J z.Z.N.b.m.b.m.m.k.>.{ ;                                 ",
"                                          E ,.:.C /             E 3.r.b.m.Z.m.m.k.&.{ C                                 ",
"                                              , % >               : V H } :.r.k.b.k.C ,                                 ",
"                                                                          ; , d S C ;                                   "
};
