/* XPM */
static char *b91157659c844a0f8bbaef9b2eb1dc48rtPlgJqcjilhxAs9[] = {
/* columns rows colors chars-per-pixel */
"60 55 244 2 ",
"   c None",
".  c #010001",
"X  c #080203",
"o  c #1B0B01",
"O  c #150902",
"+  c #03170A",
"@  c #1A1309",
"#  c #050816",
"$  c #031A17",
"%  c #1A1A16",
"&  c #270C01",
"*  c #350800",
"=  c #271507",
"-  c #351A07",
";  c #271912",
":  c #391813",
">  c #03261A",
",  c #11291B",
"<  c #2B2917",
"1  c #342614",
"2  c #12132F",
"3  c #211A36",
"4  c #052C29",
"5  c #033728",
"6  c #013A35",
"7  c #1A3B36",
"8  c #1A2D2A",
"9  c #282828",
"0  c #2A2837",
"q  c #333335",
"w  c #383738",
"e  c #34362D",
"r  c #461E07",
"t  c #49130B",
"y  c #46230A",
"u  c #492B18",
"i  c #54311B",
"p  c #713117",
"a  c #593728",
"s  c #4A3934",
"d  c #4E3329",
"f  c #683A26",
"g  c #73382C",
"h  c #03473B",
"j  c #114A3A",
"k  c #2B473C",
"l  c #5C432B",
"z  c #49483A",
"x  c #5A4439",
"c  c #68452A",
"v  c #77462D",
"b  c #644A35",
"n  c #674838",
"m  c #7A4B38",
"M  c #7D543C",
"N  c #795539",
"B  c #6B503D",
"V  c #70502E",
"C  c #191348",
"Z  c #1B1E5B",
"A  c #191855",
"S  c #1B0F43",
"D  c #25194A",
"F  c #261C57",
"G  c #311F53",
"H  c #152254",
"J  c #2A2646",
"K  c #363444",
"L  c #2A2557",
"P  c #322459",
"I  c #312748",
"U  c #251D68",
"Y  c #291D72",
"T  c #1C2D66",
"R  c #252264",
"E  c #282568",
"W  c #2A2675",
"Q  c #332A78",
"!  c #3B3777",
"~  c #2E326C",
"^  c #4F394D",
"/  c #433A78",
"(  c #443E6E",
")  c #044944",
"_  c #03584A",
"`  c #1A5B49",
"'  c #015658",
"]  c #175954",
"[  c #1A4946",
"{  c #34584C",
"}  c #265D53",
"|  c #324D4E",
" . c #02645D",
".. c #066759",
"X. c #146B54",
"o. c #256759",
"O. c #336956",
"+. c #025E68",
"@. c #0E4F69",
"#. c #2B5371",
"$. c #006C6C",
"%. c #036565",
"&. c #166B6A",
"*. c #077368",
"=. c #177569",
"-. c #057876",
";. c #167976",
":. c #0D6876",
">. c #2B6A6A",
",. c #27746B",
"<. c #267974",
"1. c #377167",
"2. c #484947",
"3. c #564743",
"4. c #4A5748",
"5. c #444356",
"6. c #535752",
"7. c #675848",
"8. c #785645",
"9. c #6F4E4B",
"0. c #576858",
"q. c #7B6759",
"w. c #6E6554",
"e. c #4F4E6F",
"r. c #556F6C",
"t. c #706E70",
"y. c #86543C",
"u. c #884E34",
"i. c #97693B",
"p. c #A36B3E",
"a. c #885946",
"s. c #875B56",
"d. c #92574A",
"f. c #8B664A",
"g. c #97674B",
"h. c #886A5B",
"j. c #956B56",
"k. c #907259",
"l. c #A66B48",
"z. c #A57353",
"x. c #AA7051",
"c. c #886765",
"v. c #8A7565",
"b. c #94756A",
"n. c #9C7C75",
"m. c #926C71",
"M. c #AB7863",
"N. c #B87B68",
"B. c #A37067",
"V. c #AB584B",
"C. c #C27B69",
"Z. c #0F8877",
"A. c #28857B",
"S. c #22927A",
"D. c #698377",
"F. c #AA8151",
"G. c #918778",
"H. c #B7866B",
"J. c #A88778",
"K. c #B48B78",
"L. c #B7947D",
"P. c #A78672",
"I. c #9B8357",
"U. c #C68C78",
"Y. c #C69679",
"T. c #382A89",
"R. c #3B3387",
"E. c #383694",
"W. c #2E3389",
"Q. c #44388C",
"!. c #453998",
"~. c #422E85",
"^. c #473BA2",
"/. c #2C4D92",
"(. c #077B83",
"). c #167889",
"_. c #296F86",
"`. c #48448B",
"'. c #494297",
"]. c #554B8F",
"[. c #625A8E",
"{. c #5445A4",
"}. c #4C4BA3",
"|. c #736A9C",
" X c #8476AE",
".X c #018D8B",
"XX c #088A88",
"oX c #14858A",
"OX c #07958B",
"+X c #078D94",
"@X c #16899A",
"#X c #029393",
"$X c #079999",
"%X c #129499",
"&X c #279586",
"*X c #328E85",
"=X c #01A59C",
"-X c #07A493",
";X c #11A791",
":X c #35AE9D",
">X c #1398A3",
",X c #2E8BA6",
"<X c #07A7A3",
"1X c #17A9A3",
"2X c #12B9B4",
"3X c #32B3A9",
"4X c #55948F",
"5X c #769186",
"6X c #4FAFA4",
"7X c #71A6A2",
"8X c #689F9C",
"9X c #05C6BC",
"0X c #18C4B8",
"qX c #34CBB5",
"wX c #32BBC1",
"eX c #11C7C5",
"rX c #33CFC6",
"tX c #45DBC4",
"yX c #57D7C7",
"uX c #56EAD3",
"iX c #54ECD2",
"pX c #63E4D3",
"aX c #79EDDD",
"sX c #65EFDE",
"dX c #8C9693",
"fX c #A78682",
"gX c #B99486",
"hX c #B3968D",
"jX c #90A1BC",
"kX c #B3B1A5",
"lX c #9F9CA2",
"zX c #CD9181",
"xX c #D0AC98",
"cX c #C9ADA7",
"vX c #9BC2BD",
"bX c #C8C2B6",
"nX c #A49DD1",
"mX c #AFB2EE",
"MX c #9D8CCE",
"NX c #AAC3D6",
"BX c #D1CDD0",
"VX c #FDD9C5",
"CX c #EEECE7",
"ZX c #E0DFDE",
/* pixels */
"                                          z                                                                             ",
"                                      < @ @ e e k < 1 <                                                                 ",
"                                @ = X O o ; 1 & & o o o o = 1 s 1 1                                                     ",
"                            . . O X = 1 1 - = & - - - - - = & = o o ; .                                                 ",
"                            . % @ @ = o = = 1 B a u y t y y y y = = = X                                                 ",
"                            . % @ @ = o ; - u gXL.K.K.K.P.g.M c a d 1 O                                                 ",
"                            X @ @ % @ O z b.c.v.n.n.n.K.fXK.gXhXP.k.l ;                                                 ",
"                            O & @ O ; @ a G.G.fXn.b.n.n.b.c.b.fXk.v.l u                                                 ",
"                            o = o & 7.x x J.xXCXcXd c.fXm.n.c.fXg.f.8.k.                                                ",
"                            O = & - B V 8.n.gXVXxXn 9.n.fXhXc.t xXVXL.q.                                                ",
"                          % X : & y N V N f.f.M.B.P.a.g 9.s.c.s.xXVXP.h.                                  Z.h h h > +   ",
"                          9 X = - i v V y.a.g.g.a.N.y.f g f s.zXf.f.c q.                                  Z.S.;X..5 j   ",
"                          8 # % l 8.N c m N g.f.y.f g g f g m M f.N B h.                                h qXiXtXS.5 8   ",
"                          [ $ , x w.B b b c B f M f m m g g g v y.f.n q.                              ..tXtXiXtX..j h   ",
"                    ) _ } 4 > 4 9 w k s z x b x 8.8.8.a.a.s.8.M N 8.n b.                            ;.:XiXiXtX*.h `     ",
"                    ' =.<.,.] 4 4 4 > $ 4 8 { 4.z s a 9.a a 7.7.w.3.4.0.5X                        _ 3XsXtXtX;Xh `       ",
"                  +.%.$.oX).).).$X#X(.$.' ' =.S.o.{ 3.^ d w [ [ [ #.,.&.] 4X                  &X%.tXuXtXuXZ.4 j         ",
"                ' :.$.-.(.XX+X2X2XeXrXwX3XoXOXZ.Z.,.e.5.5.| o.>.&.+.-.;.%.1.                  *X;XsXuXuX&.5 o.          ",
"                ] +.$.-.-..X<XeX9XeX2X>XoX$.OX;XOXZ.>.} >.>.<.<. .*...*.,.6 0.              >.A.sXtXyX6X) }             ",
"              7 } ]  .*.Z.=X0X9X9XeX2X>X;.$.$X1X-XOXZ.;.;.A.;.;._ =.=.>.r.[ + r.t.0.      ` 6XpXuXpX&X6 4               ",
"            e 2.4.} X.*.Z.-X0X2X2X2X1X(.+.+.@X#X=X=XOXXXXXOXZ.;.} { r.0.6.6.% + , + j D.4X*XiXiXpX*X) o.                ",
"            u 8.0.0.O.o.S.:XqX3XqX1XoX+.+.+.>X<X=X=X#X.XXX.X.X=.{ 0.q.9.s.9.z % { ` 5 + ..pXiXuX6X) [                   ",
"          t f 8.a.7.7.r.5X8X7X6X4X*X%.' +.+.+X+X$X<X$X+X.X#X.X&.4.k.s.a.B.9.s e > O.A._ aXyXpX6X6 7                     ",
"          i y.v a.u.B h.lXlXdXdX7Xr.' _ ' %.XX+X+X$X>X+X#X#X.X..6.a.j.j.d.V.n s + A.X._ aXpX6Xh 7                       ",
"        * f a.v u.u.p Y.L.J.fXdXdX| h  . .$.%X.X+X>X@X+X.X#X.X..0.M f.g.g.F.a.n , k X.=.S.A.] | r.                      ",
"        u B v u.i.p l.Y.N.M.zXG.0.j h _  .$.OX#X>X>X%X@X#X#X+X&.4.f.f.l.z.z.B.8.d $ { ,.h H $ {                         ",
"      ; l b c N N p Y.Y.M.H.K.q.| 7 _ _  .*.XX$X1X>X+X+X$X#XXX,.z f.g.l.l.i.C.V.i 3.| 8 4X4Xj > 8                       ",
"      u 7.V c c p z.Y.H.H.L.j.7.| _  . .*.-.OX=X<X<X.X#X$X#X+X=.2.8.j.l.p.p.l.x.a.i ; + j > ` O.5 8                     ",
"    - b b l c c m Y.Y.K.L.P.G.D.` %.%. .:.-.#X-X<X<X#X#X#X$X+X&.5Xt.N z.p.p.p.F.C.g t s k D.{ k , $                     ",
"  & u b l l f c M.zXzXL.L.q.P.dX] +.%.%.).(.$X=X=X<X$X+X#X<X%X:.vXkXB z.x.p.p.l.C.V.s.s.z G.5X, q                       ",
"  & i b c f p u.zXC.zXK.G.I.  5X@.+.$.+.(.(.#X<X=X=X#X$X>X>X%X;.kXCXG.z.l.p.p.p.x.N.m 9.q.w G.                          ",
"    * i f a v z.zXzXN.B.h.    r.#.@.:._._._.@X@X@X@X@X,X,X@X@X_.7XZXkXk.g.F.l.M.x.d.a d 3.q.                            ",
"      * t t p   V.V.V.a.      e.C @.H #.T T /././.W./././.@.,X_.jXBXBXhXq.I.N N l i 7.m.                                ",
"          *                   ~ H Z L L A W R.R.!.^.E.E.W.@.#.#.jX    BXI.k.w.c N P.                                    ",
"                              P 2 2 C E ~ ~ W {.^.T.E.E.W./.T _.NX    BXkXxX                                            ",
"                                ].nX`.C A U Q Q.^.^.E.E./.W.mXZX                                                        ",
"                                   XG F ! U U W !.E.^.^.!.Q [.mX                                                        ",
"                                F D P P S R W Y T.^.~.!.}.Q.`.mX                                                        ",
"                                  G D D A F U Y Y ~.^.^.T.'.~.mX                                                        ",
"                                S P L D E Z T W Q Y ~.{.Q.!.{.!                                                         ",
"                              # 3 F C E L Z Z W W Y Y Q.!.Q.T.T./ MX                                                    ",
"                            # D S S C E Z A A T R E W Q R.!.!.E.!.[.                                                    ",
"                            # D P A A R Z T Z Z U R E E Q !.}.^.^.~.|.                                                  ",
"                          # 3 D F F A A Z ~ Z Z Z L F U W R.E.^.^.!.~.|.                                                ",
"                        . 3 0 D C A A A ! ! L F A F F E W W W.^.^.^.]./ MX                                              ",
"                      . # 2 J D F U Y R.'.Q ~ G D D P E E U W.T.^.!.Q.Q.( nX                                            ",
"                      . + 3 J 2 F U Q `.R.! {.].D G P P U U Y W.'.E.'.`./ e.mX                                          ",
"                        . 2 0 L D U e.].! E.    D G G G L R W R E `.[.].[.[.`.                                          ",
"                          . 9 0 | e.e.e.          0 J J I L L L J e.|.t.t.[.5.e.                                        ",
"                            . 3 K e.              |.3 0 I K 0 0 q 9 6.t.t.t.5.0                                         ",
"                                                    r.K w 5.K K q | e 3.t.q % 3                                         ",
"                                                      2.q 0 0 q q q 9 % . 9                                             ",
"                                                        K q K w 9 9 . % 0                                               ",
"                                                        e.% q , % q K                                                   ",
"                                                            3.!                                                         "
};
