/* XPM */
static char *_c6b3e1cccd7429aa946fedf3aab5a72FFfDQuvzNUsGgMdg[] = {
/* columns rows colors chars-per-pixel */
"60 60 95 2 ",
"   c #010101",
".  c gray5",
"X  c #141515",
"o  c #1C1C1C",
"O  c #212122",
"+  c #2C2C2D",
"@  c #2F3030",
"#  c #303131",
"$  c #3D3C3C",
"%  c #3F4040",
"&  c #444445",
"*  c #4E4E4E",
"=  c #515252",
"-  c #5B5C5D",
";  c #5E5F60",
":  c #5F6061",
">  c #626263",
",  c #6A6B6C",
"<  c #6D6F70",
"1  c #6F7070",
"2  c #747677",
"3  c #767778",
"4  c #767879",
"5  c #7A7B7C",
"6  c #BF360C",
"7  c #C4360B",
"8  c #C5390E",
"9  c #C9390D",
"0  c #C93B10",
"q  c #D74315",
"w  c #DA4415",
"e  c #E24716",
"r  c #E74917",
"t  c #E84917",
"y  c #E64A19",
"u  c #EE4E1C",
"i  c #F04F1D",
"p  c #F4511E",
"a  c #FF551F",
"s  c #FE5722",
"d  c #B25E45",
"f  c #B66146",
"g  c #B86247",
"h  c #BF6A50",
"j  c #C1664A",
"k  c #C6694C",
"l  c #CC6B4E",
"z  c #D16E4F",
"x  c #D26F50",
"c  c #D37456",
"v  c #DE7454",
"b  c #D1765B",
"n  c #D5785C",
"m  c #E37756",
"M  c #E87957",
"N  c #EE7D5A",
"B  c #F27E5B",
"V  c #F9825D",
"C  c #DF856A",
"Z  c #E68466",
"A  c #E5896C",
"S  c #E98A6D",
"D  c #F28F71",
"F  c #87898A",
"G  c #8F9092",
"H  c #929495",
"J  c #9E9E9E",
"K  c #9F9FA0",
"L  c #9EA0A1",
"P  c #A3A3A3",
"I  c #A5A7A8",
"U  c #A7A9AA",
"Y  c #A9ABAC",
"T  c #ADAFB0",
"R  c #B4B5B6",
"E  c #BCBEBE",
"W  c #BEBFC0",
"Q  c #BEC0C2",
"!  c #C1C3C4",
"~  c #C5C7C8",
"^  c #CACCCD",
"/  c #CECFD1",
"(  c #CFD1D2",
")  c #D1D3D5",
"_  c #D6D8DA",
"`  c #D9DBDD",
"'  c #DDDFE1",
"]  c #DEE1E3",
"[  c #E2E5E6",
"{  c #E7EAEC",
"}  c #EBEBEC",
"|  c #ECEFF1",
" . c #EEF1F3",
".. c #F0F3F5",
"X. c #F3F6F8",
/* pixels */
"p p p i y y y w q q q 0 6 6 6 i p s u y y y w w w w 0 6 6 0 u u y y y e w q w 0 6 6 8 s s u s s y y y y w q q q 0 6 6 6 ",
"p p p i y y y e q q q 6 6 6 0 u p p u y y y w w w w 8 6 6 6 u p y y y y w q q 0 6 6 6 u s s u u u y y y e w w q 8 6 6 6 ",
"p p p i y y y e q q q q 6 6 0 u p p u y y y w q w q 0 6 6 8 u p y y y w q q w 0 6 6 8 i s u u s u y y y w q q q 8 6 6 6 ",
"p p p i y y y w q q q 6 6 6 6 u p p u y y y y q q q 0 6 6 0 u u y y y e w q q 0 6 6 6 s s u s y s w y y y w q q 0 6 6 6 ",
"u s s u y y y e q q q 6 6 6 8 u p p i y y y y q q q 8 6 6 8 u u y y y e w q q 0 6 6 8 s s i i s i y y y w q q q 0 6 6 6 ",
"i i u i y y u w q q q q 6 6 8 u p p i y y y w q q q 8 6 6 8 u p y y y e q w q 0 6 6 6 i s i u s i y y y y q q q 0 6 6 6 ",
"s u u u y y y w q q q 8 6 6 8 u p p i y y y w q q q 8 6 6 8 u i y y y e q w w 0 6 6 6 u s u i i i y y y w w w q 6 6 6 6 ",
"s i s i y y y y q q q 0 6 6 8 u p p i y y y y q q q 0 6 6 8 u p y y y e q q q 0 6 6 6 s s s s u i y y y y q q q 6 6 6 6 ",
"u s i u y y y y q q q 0 6 6 8 u p p u y y y y q q q 8 6 6 8 u p y y y y q q q 0 6 6 7 p s p p p i y y y w q q q q 6 6 6 ",
"i i s u y y y w q q q 0 6 6 8 u p p u y y y w q q q 0 6 6 8 u p y y y e q q w 0 6 6 8 p s p p p i y y y y q w q 6 6 6 6 ",
"s i u u y y y y q q q 8 6 6 8 u p p p y y y w q q q 0 6 6 8 u p y y y y q w q 0 6 6 8 p s p p p u y y y w q q q 0 6 6 6 ",
"u u s u y y y w q q q 8 6 6 8 u p p p y y y y q q q 0 6 6 8 u u y y y w w q q 0 6 6 8 p s p p p i y y y y q q q 6 6 6 6 ",
"i i u u y y y w q q q 8 6 6 8 u p p p y y y y q q q 8 6 6 8 u p y y y e q w q 0 6 6 6 p s p p p i y y y w q q q q 6 6 6 ",
"i s s i y y y y q w q 0 6 6 8 u p p u y y y w q q q 8 6 6 8 u p y y y e q q q 0 6 6 8 p s a p p i y y y y q q q 6 6 6 6 ",
"i i i i y y y w w w q 8 6 6 8 u p p p y y y y q q q 8 6 6 8 u u y y y e q q q 0 6 6 6 p s p p p i y y y w q q q 6 6 6 6 ",
"s u s y y y y w q q q 0 6 6 8 u p p u y y y w q q q 8 6 6 8 u p y y y e q w q 0 6 6 8 p a p p p u y y y y q q q q 6 6 6 ",
"p p p i y y t w w q q 9 6 6 7 u p p u y y y w e w w 7 7 6 7 u i t y y e q q e 9 7 6 7 i s p p p i r t t r w q q 7 6 6 6 ",
"p p p t r r r e 0 e 0 7 6 6 7 u p p u y r r e 0 0 0 7 7 6 7 t i r r r e w 0 0 9 7 7 7 t a i i i t r r r e 0 q q 7 6 6 6 ",
"B B B B M M M m m m v z k l z N B B Z M M M m v M m x z l z N B M M M m m v v x l l z B V V B B B M m M m v v v z l l l ",
"} } } } } } } } } } } } } } } } } | { | } } } } } } } } } } } } } } } } } } } } } } } } } } } } } } } } } } } } } } } } ",
"} | |  .| | | } } | | |  .| |  .| | | | | | | | | | | | } | | | | | |  .| | | | } } | | | | | | } }  .}  .| |  .} | | | ",
"}  . .} | | ........ . . . . . . . . . . .|  . ... . .| | | | | |  . . . . .|  ..... . . ... . ......... . . .} | | | | ",
"| | | | ..W 3 3 4 3 3 3 4 4 4 5 4 4 4 2 I  .R 2 3 5 ^ ..| | | |  .^ 4 3 4 R  .I 3 4 4 4 4 4 4 4 4 4 4 4 4 4 Q  .|  .| | ",
"| | | | ..G                             - ..2       U .. .| | | ..Y       2 ..-                             G  .| } | | ",
"| | | | ..G                             - ..4       & - - , `  ...Y       5 ..-                             H ..| | | | ",
" .| | | ..H .   .               .       >  .4             o (  ...Y       4 ..;     .               .       H ..| | | | ",
"} | | |  .) U U Y Y U @     X H Y U Y Y !  .4             o )  ...Y       4  .~ U Y Y Y H X     # U Y U Y Y )  .| | | | ",
" .| | | | | .... . .| &     o ) ........ ...3       . . . + ~ [ [ I       4  . ... ...X.) O     &  ..... ... . .| | | | ",
"| | | | | | | | | | { &     o (  .| | | | ..4       F ~ Q T & + + O       4  .|  .| |  .) o     & { | |  .| | | | | | | ",
"| | | | | | | | | | { &     o )  . .| | |  .4       T X. .) o             4  .| | | |  .) o     & { | | | | | | |  .| | ",
"| | | |  .| |  . .| } &     o )  .| |  .|  .4       Y  . .( o             4  . .| | |  .) o     & }  .| |  . .| }  .| | ",
"| | | } ' ' ' ' ' ] ` $     o )  .| { ' ' [ <     . Y  . ._ & + + O       4  .| | | |  .( o     % ` ' ' ' ' ' ' { | | | ",
"| | | _ I P P P P P J +     o )  . .` I P P =       T ..| } [ ] [ L       4  .| | | |  .) o     @ K P P P P P I _  .} } ",
"| | | _ K J J J J J J +     o )  . ._ K J P *       Y ..| | | | ..Y       4  . .| | |  .( o     + J J J K J J K _  .} ..",
" .| .._ K J J J J J J +     o )  . ._ J J J *       Y ....|  . ...Y       3 .. . .|  . .( o     + H J J J J J K _  . . .",
"/ / / ! K J J Y W W R > $ $ * E ( ( ~ W E E 5 $ $ & P ) ^ ) ^ ( ) T > : - H ( / / / / / Q , - - 1 J K J J J J K ! ( ( ( ",
"J J J J J K J ~  .| | R J J J J J J R } |  .~ J L J J J J J K J J R | |  .~ J J J J J J I [  ..._ K J K J K J J J J J J ",
"J J J K J J J ~  . .} R J J J J J J R } | | ~ J J J J J J K J J J R | | | ~ J J J J J J U [  .| _ L J J J J J J J J J J ",
"J K J J J J J ~  .| } R J J J J J J R | | | ~ K J K J J J J J J J R } |  .~ J J J J J J U [ |  ._ L J J J J L L J J J J ",
"x x x z l l l b C C C h d d f z x x n S S S n j j j g d d f z z l c A A C b j f d d f z m S D D Z l l l k j j j g d f d ",
"p p p i t y y w q 0 q 7 7 6 7 u s i u y y e e w q q 8 6 6 6 u u t t r w q q q 8 6 6 7 p a i i i u y y y w w w q 8 6 6 6 ",
"p p p u y y y y w w w 8 6 6 7 u p p u y y y w w q q q 6 6 0 u u y y t e q q q 8 6 6 8 p s p p p i y y y w q q q 8 6 6 6 ",
"p p p p y y y w w q w 8 6 6 8 u p p i y y y w w q q 6 6 6 6 u p t y r e q q q q 6 6 7 p a p p p i y y y y w q q 8 6 6 6 ",
"p p p p y y y e w q q 8 6 6 8 u p p i y y y w w q q 6 6 6 q u p y y r e q q q 0 6 6 7 p a p p p i y y y w w w q 8 6 6 6 ",
"p p p i y y y e q q w 8 6 6 8 u p p i y y y w q q q 6 6 6 8 u u y y y e q w q 0 6 6 6 p s p p p i y y y w q q q 8 6 6 6 ",
"p p p i y y y w w w q 8 6 6 8 u p p i y y u w q q q 6 6 6 8 u p t y y e q q q 0 6 6 8 p s p p p i y y y y q q q 0 6 6 6 ",
"p p p i y y y e q w q 8 6 6 8 u p p i y y y e q q q 0 6 6 8 u p y y y e q q q 6 6 6 7 p s p p p u y y y w q q q 0 6 6 6 ",
"p p p i y y y w q q q 8 6 6 8 u p p i y y y e q q q 0 6 6 8 u u y y y w q q q q 6 6 8 p s a p p u y y y y w q q 0 6 6 6 ",
"p p p i t y y e q q q 0 6 6 8 u s u i y y y e q q q 0 6 6 8 u p y y y e w w q 0 6 6 6 y s s p p u y y y w q q q 6 6 6 6 ",
"p p p i t y y w q q q 0 6 6 8 u p p u y y y w q q q 8 6 6 8 u p y y y e q q q 0 6 6 8 s s u p u u y y y e w w q 6 6 6 6 ",
"p p p i y y y e q q q 8 6 6 8 u p p u y y y y q q q 8 6 6 8 u p y y y e q w w 0 6 6 6 u s p p s u y y y w q q q q 6 6 6 ",
"p p p i y y y w q q q 8 6 6 8 u p p i y y u w q q q 8 6 6 8 u p y y y y w q q 0 6 6 8 s s p p p s w y y y w q q 6 6 6 6 ",
"u s s i y y y e q q q 6 6 6 8 u p p i y y y e q q q 0 6 6 8 u p y y y e q q q 0 6 6 8 y s s i u i y y y w q q q 6 6 6 6 ",
"i i u u y y y e w q q q 6 6 8 u p p i y y y w q q q 0 6 6 8 u u y y y e q w q 0 6 6 6 s s u s s i y y y e w w q q 6 6 6 ",
"s u i u y y y w q q q 8 6 6 8 u p p i y y y w w q q 0 6 6 8 u p y y y e q q q 0 6 6 8 y s u u i i y y y w q q q 6 6 6 6 ",
"p i s i y y y y q q q 8 6 6 8 u p p i y y u w w q q 8 6 6 8 u i y y y y q q q 0 6 6 8 s s i s i i y y y y w q q 0 6 6 6 ",
"p u i u y y y y q q q 0 6 6 8 u p p i y y y w q q w 0 6 6 8 u p y y y e q w q 0 8 6 8 i s u i u i y y y y q q q 0 6 6 6 ",
"p s s i y y y w q q q 0 6 6 8 u p p i y y y y q w q 0 6 6 8 u u y y y e q q q 0 8 6 8 i s s i s i y y y w q q q 8 6 6 6 ",
"s i u u y y y w q q q 8 6 6 8 i p p i y y y w q q q 8 6 6 8 u p y y y e q q q 0 6 6 8 i s i i s i y y y y q q q 0 6 6 6 ",
"u u s u y y y w q q q 8 6 6 8 i p p i y y y y q q q 8 6 6 8 u p y y y e q q q 0 6 6 8 i s s i i i y y y w q q q 0 6 6 6 "
};
