/* XPM */
static char *_650c47c802d4ce092ca3ba5c5a7e6e7tU2MtU6OkPsl1GG4[] = {
/* columns rows colors chars-per-pixel */
"60 60 247 2 ",
"   c black",
".  c #090102",
"X  c #260607",
"o  c #280607",
"O  c #270607",
"+  c #240507",
"@  c #240506",
"#  c #240607",
"$  c #060101",
"%  c #2C0708",
"&  c #C21E24",
"*  c #CD2026",
"=  c #CC2026",
"-  c #C81E25",
";  c #B91922",
":  c #B81821",
">  c #BC1A22",
",  c #CB1F26",
"<  c #C91E25",
"1  c #BB1922",
"2  c #CA1F26",
"3  c #BA1922",
"4  c #CA1F25",
"5  c #C91F25",
"6  c #B81C22",
"7  c #1D0505",
"8  c #300709",
"9  c #D22027",
"0  c #DE2229",
"q  c #DD2229",
"w  c #D82128",
"e  c #C81B24",
"r  c #C71A24",
"t  c #CB1C25",
"y  c #DB2229",
"u  c #D92128",
"i  c #C91B25",
"p  c #CA1B25",
"a  c #DB2129",
"s  c #DA2128",
"d  c #DA2129",
"f  c #C71F25",
"g  c #200506",
"h  c #D12027",
"j  c #DC2229",
"k  c #D72028",
"l  c #C61A24",
"z  c #C81B25",
"x  c #C61F25",
"c  c #2F0708",
"v  c #D01E25",
"b  c #DC2027",
"n  c #D71E26",
"m  c #C71822",
"M  c #C51822",
"N  c #CA1923",
"B  c #DA1F27",
"V  c #D81E26",
"C  c #C91923",
"Z  c #DA1F26",
"A  c #D81F26",
"S  c #C81922",
"D  c #C81923",
"F  c #D91F26",
"G  c #DD2027",
"H  c #C61D23",
"J  c #310F10",
"K  c #D64046",
"L  c #E2444A",
"P  c #DE4249",
"I  c #D03D46",
"U  c #CF3D45",
"Y  c #CE3D45",
"T  c #D23E46",
"R  c #E04349",
"E  c #E1444A",
"W  c #DE4349",
"Q  c #DF4349",
"!  c #D03E46",
"~  c #D13E46",
"^  c #E3444A",
"/  c #CB3D42",
"(  c #200A0B",
")  c #363333",
"_  c #EFDFDF",
"`  c #FDEBEC",
"'  c #FCEBEB",
"]  c #FBEAEB",
"[  c #FAEAEB",
"{  c #FBEBEB",
"}  c #FDECED",
"|  c #E3D3D4",
" . c #242222",
".. c #373737",
"X. c #F2F3F3",
"o. c white",
"O. c #E6E7E7",
"+. c #252525",
"@. c gray95",
"#. c #E6E6E6",
"$. c gray97",
"%. c gainsboro",
"&. c #DADADA",
"*. c gray85",
"=. c gray88",
"-. c gray99",
";. c #F9F9F9",
":. c #DDDDDD",
">. c #DFDFDF",
",. c #FBFBFB",
"<. c gray98",
"1. c gray87",
"2. c #D0D0D0",
"3. c gray15",
"4. c #181818",
"5. c #191919",
"6. c #161616",
"7. c #414141",
"8. c #EEEEEE",
"9. c #2C2C2C",
"0. c gray9",
"q. c #393939",
"w. c #E7E7E7",
"e. c #E1E1E1",
"r. c #323232",
"t. c #313131",
"y. c #CACACA",
"u. c gray5",
"i. c #ECECEC",
"p. c gray83",
"a. c #131313",
"s. c #222222",
"d. c gray90",
"f. c #1B1B1B",
"g. c gray10",
"h. c #0C0C0C",
"j. c gray17",
"k. c #D5D5D5",
"l. c #151515",
"z. c gray14",
"x. c #D2D2D2",
"c. c gray19",
"v. c #232323",
"b. c #1D1D1D",
"n. c #020202",
"m. c #070707",
"M. c gray13",
"N. c gray29",
"B. c #EFEFEF",
"V. c #060606",
"C. c #202020",
"Z. c #1E1E1E",
"A. c gray1",
"S. c #E2E2E2",
"D. c #3C3C3C",
"F. c gray12",
"G. c #040404",
"H. c gray23",
"J. c gray91",
"K. c gray72",
"L. c #0E0E0E",
"P. c #2A2A2A",
"I. c #E4E4E4",
"U. c #E9E9E9",
"Y. c #FDFDFD",
"T. c #C3C3C3",
"R. c gray79",
"E. c #C8C8C8",
"W. c gray81",
"Q. c #101010",
"!. c #282828",
"~. c #EAEAEA",
"^. c gray86",
"/. c #CDCDCD",
"(. c #2F2F2F",
"). c gray93",
"_. c gray18",
"`. c gray11",
"'. c LightGray",
"]. c gray94",
"[. c #434343",
"{. c gray92",
"}. c gray21",
"|. c #3F3F3F",
" X c #3A3A3A",
".X c gray89",
"XX c #F2F4F3",
"oX c #363132",
"OX c #EED9D9",
"+X c #FCE5E6",
"@X c #FBE4E5",
"#X c #FAE4E5",
"$X c #F8E3E5",
"%X c #F9E4E5",
"&X c #F8E4E5",
"*X c #FCE6E7",
"=X c #E2CECE",
"-X c #242121",
";X c #300D0E",
":X c #D53A3F",
">X c #E13D43",
",X c #E03D43",
"<X c #DC3B42",
"1X c #CE363F",
"2X c #CD363E",
"3X c #D0373F",
"4X c #DF3C42",
"5X c #DD3B42",
"6X c #DD3C42",
"7X c #CF363F",
"8X c #CF373F",
"9X c #DE3C42",
"0X c #E23D43",
"qX c #CA373C",
"wX c #20090A",
"eX c #2F0709",
"rX c #D01F25",
"tX c #D71F26",
"yX c #C71923",
"uX c #C61822",
"iX c #CA1A23",
"pX c #DA2027",
"aX c #D81F27",
"sX c #D91F27",
"dX c #DD2028",
"fX c #CB1B25",
"gX c #DF222A",
"hX c #2B0708",
"jX c #BC1D23",
"kX c #C21D24",
"lX c #B41821",
"zX c #B31720",
"xX c #B21720",
"cX c #B61921",
"vX c #C51E25",
"bX c #C31D24",
"nX c #C41E24",
"mX c #B51821",
"MX c #C41E25",
"NX c #C81F25",
"BX c #B31C21",
"VX c #1D0405",
"CX c #070101",
"ZX c #1E0506",
"AX c #1F0506",
"SX c #050101",
"DX c white",
/* pixels */
"                                                                                                                        ",
"                                                                                                                        ",
"                                                                                                                        ",
"      . X o o O + @ + + + + @ + O o o O + @ + + + + @ + O o o O + @ + + + + @ + O o o O + @ + + + + @ + O o o # $       ",
"      % & * = - ; : : : : : : > , = = < ; : : : : : : 1 2 = = < 3 : : : : : : 3 2 = = 4 3 : : : : : : 3 5 = * 6 7       ",
"      8 9 0 q w e r r r r r r t y q q u i r r r r r r p a q q s i r r r r r r p a q q d p r r r r r r i d q 0 f g       ",
"      8 h q j k r l l l l l l p d j j w e l l l l l l i d j j u e l l l l l l i s j j u i l l l l l l z u j q x g       ",
"      8 h q j k r l l l l l l p d j j w e l l l l l l i d j j u e l l l l l l i s j j u i l l l l l l z u j q x g       ",
"      8 h q j k r l l l l l l p d j j w e l l l l l l i d j j u e l l l l l l i s j j u i l l l l l l z u j q x g       ",
"      8 h q j k r l l l l l l p d j j w e l l l l l l i d j j u e l l l l l l i s j j u i l l l l l l z u j q x g       ",
"      8 h q j k r l l l l l l p d j j w e l l l l l l i d j j u e l l l l l l i s j j u i l l l l l l z u j q x g       ",
"      8 h q j k r l l l l l l p d j j w e l l l l l l i d j j u e l l l l l l i s j j u i l l l l l l z u j q x g       ",
"      8 h q j k r l l l l l l p d j j w e l l l l l l i d j j u e l l l l l l i s j j u i l l l l l l z u j q x g       ",
"      8 h q j k r l l l l l l p d j j w e l l l l l l i d j j u e l l l l l l i s j j u i l l l l l l z u j q x g       ",
"      8 h q j k r l l l l l l p d j j w e l l l l l l i d j j u e l l l l l l i s j j u i l l l l l l z u j q x g       ",
"      8 h q j k r l l l l l l p d j j w e l l l l l l i d j j u e l l l l l l i s j j u i l l l l l l z u j q x g       ",
"      8 h q j k r l l l l l l p d j j w e l l l l l l i d j j u e l l l l l l i s j j u i l l l l l l z u j q x g       ",
"      8 h q j k r l l l l l l p d j j w e l l l l l l i d j j u e l l l l l l i s j j u i l l l l l l z u j q x g       ",
"      c v b b n m M M M M M M N B b b V m M M M M M M C Z b b A S M M M M M M D F b b F S M M M M M M S F b G H g       ",
"      J K L L P I U U U U U Y T R E L W I U U U U U U T R E L Q ! U U U U U U ~ Q E E Q ~ U U U U U U ~ Q L ^ / (       ",
"      ) _ ` ' ] [ [ [ [ [ [ [ [ ' ' ' { [ [ [ [ [ [ [ [ ' ' ' { [ [ [ [ [ [ [ [ ' ' ' ' [ [ [ [ [ [ [ [ ' ' } |  .      ",
"      ..X.o.o.o.o.o.o.o.o.o.o.o.o.o.o.o.o.o.o.o.o.o.o.o.o.o.o.o.o.o.o.o.o.o.o.o.o.o.o.o.o.o.o.o.o.o.o.o.o.o.o.O.+.      ",
"      ..@.o.o.o.o.o.o.o.o.o.o.o.o.o.o.o.o.o.o.o.o.o.o.o.o.o.o.o.o.o.o.o.o.o.o.o.o.o.o.o.o.o.o.o.o.o.o.o.o.o.o.#.+.      ",
"      ..@.o.o.$.%.&.&.&.&.&.&.&.&.&.*.=.-.o.o.;.:.&.&.&.&.&.&.&.&.&.*.>.,.o.o.<.1.&.&.&.&.&.&.&.&.&.&.1.<.o.o.#.+.      ",
"      ..@.o.o.2.3.4.5.5.5.5.5.5.5.5.6.7.8.o.o.*.9.4.5.5.5.5.5.5.5.5.0.q.w.o.o.e.r.0.5.5.5.5.5.5.5.5.0.t.=.o.o.#.+.      ",
"      ..@.o.o.y.u.                    9.i.o.o.p.a.                    s.d.o.o.:.f.                    g.%.o.o.#.+.      ",
"      ..@.o.o.y.h.                    j.i.o.o.k.l.                    z.d.o.o.:.g.                    5.%.o.o.#.+.      ",
"      ..@.o.o.x.c.v.z.b.n.    m.M.z.M.N.B.o.o.k.l.    V.C.z.z.Z.A.    z.d.o.o.S.D.s.z.F.G.    G.F.z.s.H.e.o.o.#.+.      ",
"      ..@.o.o.<.#.d.J.K.L.    P.k.#.I.U.Y.o.o.k.l.    z.2.#.w.T.6.    z.d.o.o.-.J.d.w.R.f.    g.E.w.d.J.,.o.o.#.+.      ",
"      ..@.o.o.o.o.o.o.W.Q.    c.B.o.o.o.o.o.o.k.l.    !.~.o.o.^.5.    z.d.o.o.o.o.o.o.e.Z.    b.=.o.o.o.o.o.o.#.+.      ",
"      ..@.o.o.o.o.o.o./.Q.    (.).o.o.o.o.o.o.k.l.    !.J.o.o.*.4.    z.d.o.o.o.o.o.o.=.Z.    b.>.o.o.o.o.o.o.#.+.      ",
"      ..@.o.o.o.o.o.o./.Q.    (.).o.o.o.o.o.o.k.l.    !.J.o.o.*.4.    z.d.o.o.o.o.o.o.=.Z.    b.>.o.o.o.o.o.o.#.+.      ",
"      ..@.o.o.o.o.o.o./.Q.    (.).o.o.o.o.o.o.k.l.    !.J.o.o.*.4.    z.d.o.o.o.o.o.o.=.Z.    b.>.o.o.o.o.o.o.#.+.      ",
"      ..@.o.o.o.o.o.o./.Q.    (.).o.o.o.o.o.o.k.l.    !.J.o.o.*.4.    z.d.o.o.o.o.o.o.=.Z.    b.>.o.o.o.o.o.o.#.+.      ",
"      ..@.o.o.o.o.o.o./.L.    _.).o.o.o.o.o.o.p.a.    3.J.o.o.*.0.    s.d.o.o.o.o.o.o.>.`.    f.1.o.o.o.o.o.o.#.+.      ",
"      ..@.o.o.o.o.o.o.'._.F.Z.N.].o.o.o.o.o.o.&.r.F.Z.[.{.o.o.1.}.F.Z.|.J.o.o.o.o.o.o.I.H.F.F. X.Xo.o.o.o.o.o.#.+.      ",
"      ..@.o.o.o.o.o.o.;.I.S.e.w.Y.o.o.o.o.o.o.<.I.S.e.#.-.o.o.,.d.S.S.#.-.o.o.o.o.o.o.,.d.S.S.d.,.o.o.o.o.o.o.#.+.      ",
"      ..@.o.o.o.o.o.o.o.o.o.o.o.o.o.o.o.o.o.o.o.o.o.o.o.o.o.o.o.o.o.o.o.o.o.o.o.o.o.o.o.o.o.o.o.o.o.o.o.o.o.o.#.+.      ",
"      ..XXo.o.o.o.o.o.o.o.o.o.o.o.o.o.o.o.o.o.o.o.o.o.o.o.o.o.o.o.o.o.o.o.o.o.o.o.o.o.o.o.o.o.o.o.o.o.o.o.o.o.O.+.      ",
"      oXOX+X@X#X$X$X$X$X$X$X$X%X@X@X@X#X$X$X$X$X$X$X$X%X@X@X@X#X$X$X$X$X$X$X$X&X#X@X@X#X&X$X$X$X$X$X$X&X#X@X*X=X-X      ",
"      ;X:X>X,X<X1X2X2X2X2X2X2X3X4X,X,X5X1X2X2X2X2X2X2X3X4X,X,X6X7X2X2X2X2X2X2X8X9X,X,X9X7X2X2X2X2X2X2X7X9X,X0XqXwX      ",
"      eXrXb b tXyXM uXuXuXuXM iXpXb b A yXM uXuXuXuXM C pXb b aXD M uXuXuXuXM D sXb b sXD M uXuXuXuXM D sXb dXH g       ",
"      8 h q j k r l l l l l l p d j j w e l l l l l l i d j j u e l l l l l l i s j j u i l l l l l l z u j q x g       ",
"      8 h q j k r l l l l l l p d j j w e l l l l l l i d j j u e l l l l l l i s j j u i l l l l l l z u j q x g       ",
"      8 h q j k r l l l l l l p d j j w e l l l l l l i d j j u e l l l l l l i s j j u i l l l l l l z u j q x g       ",
"      8 h q j k r l l l l l l p d j j w e l l l l l l i d j j u e l l l l l l i s j j u i l l l l l l z u j q x g       ",
"      8 h q j k r l l l l l l p d j j w e l l l l l l i d j j u e l l l l l l i s j j u i l l l l l l z u j q x g       ",
"      8 h q j k r l l l l l l p d j j w e l l l l l l i d j j u e l l l l l l i s j j u i l l l l l l z u j q x g       ",
"      8 h q j k r l l l l l l p d j j w e l l l l l l i d j j u e l l l l l l i s j j u i l l l l l l z u j q x g       ",
"      8 h q j k r l l l l l l p d j j w e l l l l l l i d j j u e l l l l l l i s j j u i l l l l l l z u j q x g       ",
"      8 h q j k r l l l l l l p d j j w e l l l l l l i d j j u e l l l l l l i s j j u i l l l l l l z u j q x g       ",
"      8 h q j k r l l l l l l p d j j w e l l l l l l i d j j u e l l l l l l i s j j u i l l l l l l z u j q x g       ",
"      8 h q j k r l l l l l l p d j j w e l l l l l l i d j j u e l l l l l l i s j j u i l l l l l l z u j q x g       ",
"      8 h q j k r l l l l l l p d j j w e l l l l l l i d j j u e l l l l l l i s j j u i l l l l l l z u j q x g       ",
"      8 9 0 0 u i r r r r r r t j q 0 u i r r r r r r fXy 0 0 d i r r r r r r p a 0 0 a p r r r r r r p d 0 gXf g       ",
"      hXjXf f kXlXzXzXzXzXzXxXcXvXf f bXlXzXzXzXzXzXxXcXvXf f nXmXzXzXzXzXzXzXmXMXf f nXmXzXzXzXzXzXzXmXnXf NXBXVX      ",
"      CXZXg g AXVXVXVXVXVXVXVXVXg g g g VXVXVXVXVXVXVXVXg g g g VXVXVXVXVXVXVXVXg g g g VXVXVXVXVXVXVXVXg g g VXSX      ",
"                                                                                                                        ",
"                                                                                                                        ",
"                                                                                                                        "
};
