/* XPM */
static char *tree_prev_ui__1_1670846489[] = {
/* columns rows colors chars-per-pixel */
"50 43 162 2 ",
"   c None",
".  c #593302",
"X  c #5B3402",
"o  c #5D3602",
"O  c #623B03",
"+  c #643B03",
"@  c #673D04",
"#  c #3B5E26",
"$  c #366825",
"%  c #376B27",
"&  c #346429",
"*  c #37692A",
"=  c #37682D",
"-  c #37692E",
";  c #3A6E29",
":  c #38692D",
">  c #396B2F",
",  c #3A6B2E",
"<  c #3A6B2F",
"1  c #3F7127",
"2  c #3E712B",
"3  c #396A31",
"4  c #3B6D31",
"5  c #3C6D31",
"6  c #47551B",
"7  c #4D561A",
"8  c #684104",
"9  c #6E4907",
"0  c #634D0A",
"q  c #764D06",
"w  c #714B0A",
"e  c #744E08",
"r  c #715108",
"t  c #79510A",
"y  c #7A550A",
"u  c #7F5709",
"i  c #7D560C",
"p  c #7C5A0E",
"a  c #655711",
"s  c #655512",
"d  c #7E5A11",
"f  c #415820",
"g  c #426028",
"h  c #4D7E26",
"j  c #44752B",
"k  c #437829",
"l  c #487A28",
"z  c #4E7F2A",
"x  c #487E2C",
"c  c #4B7E2D",
"v  c #447631",
"b  c #467B32",
"n  c #825D0E",
"m  c #835E0E",
"M  c #86600D",
"N  c #8B600C",
"B  c #91670E",
"V  c #966A0F",
"C  c #996B0D",
"Z  c #8F6717",
"A  c #906A1A",
"S  c #9E7210",
"D  c #A6770F",
"F  c #4F832B",
"G  c #538325",
"H  c #548625",
"J  c #578827",
"K  c #5A8B21",
"L  c #5B8C25",
"P  c #5C8C25",
"I  c #5E8F25",
"U  c #528229",
"Y  c #53862C",
"T  c #54862F",
"R  c #588B2A",
"E  c #588B2B",
"W  c #5C8E29",
"Q  c #5D8F2B",
"!  c #5D9122",
"~  c #5F9324",
"^  c #629523",
"/  c #639526",
"(  c #639824",
")  c #649A25",
"_  c #659826",
"`  c #6C9F22",
"'  c #699B25",
"]  c #689E25",
"[  c #6B9F26",
"{  c #6FA323",
"}  c #6FA225",
"|  c #6CA126",
" . c #6DA329",
".. c #68A528",
"X. c #6FAB2D",
"o. c #72A724",
"O. c #76A923",
"+. c #73AA27",
"@. c #76AC27",
"#. c #7CAF26",
"$. c #72A828",
"%. c #79AE28",
"&. c #79AE2A",
"*. c #75B12F",
"=. c #7AB22E",
"-. c #72B232",
";. c #75B533",
":. c #78B334",
">. c #7FBA34",
",. c #7DBA36",
"<. c #BF8D0F",
"1. c #B28210",
"2. c #81B225",
"3. c #8BBA27",
"4. c #87B728",
"5. c #84B62B",
"6. c #87BA2E",
"7. c #89BB2B",
"8. c #8FBD29",
"9. c #88BB2E",
"0. c #8BBE2C",
"q. c #8CBC2F",
"w. c #8EBF2E",
"e. c #82BA30",
"r. c #80BB33",
"t. c #84BB31",
"y. c #86BD34",
"u. c #85BE36",
"i. c #8BBD30",
"p. c #C9940D",
"a. c #90C02B",
"s. c #90C02F",
"d. c #95C22D",
"f. c #86C036",
"g. c #8DC131",
"h. c #8CC233",
"j. c #88C235",
"k. c #89C036",
"l. c #89C136",
"z. c #8CC435",
"x. c #8AC238",
"c. c #90C232",
"v. c #91C232",
"b. c #94C331",
"n. c #94C632",
"m. c #91C734",
"M. c #94C936",
"N. c #98C933",
"B. c #9AC932",
"V. c #98CD36",
"C. c #9DCC35",
"Z. c #9CCE36",
"A. c #96CB3A",
"S. c #A0CD32",
"D. c #A1CF34",
"F. c #A5D235",
"G. c #ABD635",
"H. c #ACD835",
"J. c #AFDA37",
"K. c #B2DB36",
"L. c #B6DD37",
"P. c #BBE136",
/* pixels */
"                                                                                                    ",
"                                                                                                    ",
"                                                x.f.e.                                              ",
"                                          >.l.M.V.V.z.>.                                            ",
"                                      ;.u.l.V.F.G.K.F.z.r.                                          ",
"                                    *.u.z.V.F.H.L.L.G.Z.M.>.                                        ",
"                                    -.l.Z.F.G.L.L.P.K.F.n.9.:.                                      ",
"                                    l.M.C.G.L.P.P.P.K.F.b.q.l.-.                                    ",
"                                  r.v.C.F.G.K.P.P.P.K.N.v.i.v.t.                                    ",
"                                f.m.n.N.D.F.G.G.L.G.F.b.i.v.n.A.f.                                  ",
"                              X.u.n.B.d.B.D.D.F.F.b.w.q.q.i.v.m.f.                                  ",
"                                z.v.q.q.n.v.N.D.g.q.b.s.n.i.N.m.                                    ",
"                                i.b.i.9.9.9.w.b.q.s.d.N.b.0.n.N.v.                                  ",
"                              g.9.q.5.s.w.s.q.9.s.a.a.s.w.0.n.b.u.t.                                ",
"                            =.9.s.6.5.q.0.7.s.w.d.d.8.8.a.a.8.s.6.9.*.                              ",
"                              e.q.6.a.7.7.0.a.8.8.8.8.8.a.a.a.7.#.*.                                ",
"                          ..%.%.#.5.5.4.4.7.8.8.3.4.3.3.8.3.4.#.@.$.                                ",
"                             .$.@.@.@.@.@.2.7.2.2.2.2.2.2.#.2.{ (  .                                ",
"                           .| _ ] o.@.| ] o.O.O.O.o.o.#.O.` ` { / | X.                              ",
"                          | ~ P ~ ~ ( ! ( ] o.o.O.O.{ ` ` ^ ! I ^ |                                 ",
"                            / P G G G G H ! ^ ) ` ^ ! I K ! ( ( ' o.                                ",
"                            L G h h F h G G G J K K I P I I ( ) ' [  .                              ",
"                          Q G G U h h h G G G G h J ! P J P P P ^ ( /                               ",
"                          T z l l F z h U U U U U J J J G R Q Q W Q R                               ",
"                        b j j 1 1 h k F U z U F Y J E Y Y E E F Y F c v                             ",
"                          5 > > ; z k k j l U z Y Y F F Y x Y k $ 2 4                               ",
"                            3 > ; 2 ; $ $ 1 F 2 k z x x k $ 2 ; & 5 3                               ",
"                              4 > - * $ $ ; % $ % % 2 ; % $ > * -                                   ",
"                                    3 - > > & & & & & & 4 3 4                                       ",
"                                          g 6 6 f # 7 g                                             ",
"                                          s 0 0 0 a r p                                             ",
"                                        n y n r r M M n                                             ",
"                                        n B B q n D D m Z                                           ",
"                                      e u D M 8 n D p.C n A                                         ",
"                                        V D q @ q 1.p.D y w d                                       ",
"                                      n D m @ O 8 C p.1.B                                           ",
"                                      V B 8 o o o y D D C                                           ",
"                                    t M w X     X O u C B p                                         ",
"                                    9 e             + q u i                                         ",
"                                                        @                                           ",
"                                                                                                    ",
"                                                                                                    ",
"                                                                                                    "
};
